<?xml version="1.0" encoding="utf-8"?>
<!-- Generator: Adobe Illustrator 26.3.1, SVG Export Plug-In . SVG Version: 6.00 Build 0)  -->
<svg version="1.1" id="Layer_1" xmlns="http://www.w3.org/2000/svg" xmlns:xlink="http://www.w3.org/1999/xlink" x="0px" y="0px"
	 viewBox="0 0 595.3 841.9" style="enable-background:new 0 0 595.3 841.9;" xml:space="preserve">
<style type="text/css">
	.st0{fill-rule:evenodd;clip-rule:evenodd;fill:#E5E6E7;}
	.st1{fill-rule:evenodd;clip-rule:evenodd;fill:#1D70B8;}
	.st2{fill-rule:evenodd;clip-rule:evenodd;fill:#FFFFFF;}
	.st3{display:none;}
	.st4{display:inline;}
	.st5{fill:#1D70B8;}
	.st6{fill:#E0B643;}
	.st7{display:inline;fill:#1D70B8;}
	.st8{display:inline;fill:#E0B643;}
	.st9{fill:#EDEDED;}
	.st10{fill:none;}
	.st11{fill:#FFFFFF;}
</style>
<g>
	<path class="st0" d="M311.9,237.3c110.1,0,199.2,89.2,199.2,199.2c0,110.1-89.2,199.6-199.2,199.6c-110.4,0-199.6-89.5-199.6-199.6
		C112.3,326.4,201.5,237.3,311.9,237.3L311.9,237.3z"/>
	<path class="st1" d="M311.9,436.5v199.6c-110.4,0-199.6-89.5-199.6-199.6c0-110.1,89.2-199.2,199.6-199.2
		c110.1,0,199.2,89.2,199.2,199.2H311.9z"/>
	<path class="st2" d="M311.9,281c85.9,0,155.6,69.7,155.6,155.6c0,85.9-69.7,155.6-155.6,155.6c-86.3,0-155.9-69.7-155.9-155.6
		C156,350.6,225.7,281,311.9,281L311.9,281z"/>
</g>
<g class="st3">
	<g class="st4">
		<path class="st5" d="M368.5,405.8c4.6-78.4-69.2-75.8-87.2-56.5c-33.4,1.8-25.7,57.2-25.7,57.2c1.2-5.4,9.4-2.1,13.1-0.7
			c-0.7-9.9,3.7-26.4,3.7-26.4c26.4,19.1,72.3,3,72.3,3c5.6,3.1,11.9,18.6,11.5,25.8C364.4,405.6,368.5,405.8,368.5,405.8z"/>
		<g>
			<path class="st5" d="M346.1,499.8l-16.1,12.9l1.2,2.4h65.6C382.4,509.5,364.5,503.5,346.1,499.8z"/>
			<path class="st5" d="M293.6,512.8l-16-12.8c-18.4,3.7-36.2,9.6-50.8,15.2h65.7L293.6,512.8z"/>
		</g>
		<path class="st6" d="M259,409.7c-1.3,0.1-2.4,0.3-3.2,0.8c-2.8,1.8,2.5,15.3,2.5,18.9c0,2.9,1.2,10,5,7.8
			c1.6,6.5,3.7,13.3,6.6,19.8c8.2,18.6,24,34.7,42.4,34.7c20.5,0,36.1-19.3,44.4-40.2c1.9-4.8,3.4-9.6,4.6-14.4
			c3.9,2.2,5.1-4.8,5.1-7.8c0-3.5,5.3-17.1,2.5-18.9c-0.7-0.5-1.8-0.7-3-0.8c0,0,0,0,0-0.1c-1.8,0.3-4.7,0.8-8.7,2.1l-5.1,1.6
			l0.2-5.3c0.3-5.8-4.6-17.8-8.5-21.5c-5.2,1.6-20.6,5.9-37.5,5.9c-12.6,0-23.3-2.4-31.8-7.1c-1.2,5.5-2.8,14.2-2.4,20.2l0.4,5.7
			c0,0-5-1.8-9-2.2C261.1,408.6,259,409.4,259,409.7z"/>
	</g>
</g>
<g class="st3">
	<path class="st7" d="M389.6,383.1c6.6,0,7.5-3,2.1-6.7l-67.2-46c-5.4-3.7-14.3-3.7-19.8-0.1l-68.3,46.1c-5.4,3.7-4.5,6.7,2,6.7
		H389.6z"/>
	<path class="st8" d="M323.3,466.9c2.6,0,4.8-2.2,4.8-4.8v-49.7c0-2.6-2.2-4.8-4.8-4.8h-15.5c-2.6,0-4.8,2.2-4.8,4.8v49.7
		c0,2.6,2.2,4.8,4.8,4.8H323.3z"/>
	<path class="st7" d="M376.4,466.9c2.6,0,4.8-2.2,4.8-4.8v-49.7c0-2.6-2.2-4.8-4.8-4.8h-15.5c-2.6,0-4.8,2.2-4.8,4.8v49.7
		c0,2.6,2.2,4.8,4.8,4.8H376.4z"/>
	<path class="st7" d="M270.3,466.9c2.6,0,4.8-2.2,4.8-4.8v-49.7c0-2.6-2.2-4.8-4.8-4.8h-15.5c-2.6,0-4.8,2.2-4.8,4.8v49.7
		c0,2.6,2.2,4.8,4.8,4.8H270.3z"/>
	<g class="st4">
		<path class="st5" d="M328.1,472.8C328.1,472.8,328.1,472.9,328.1,472.8C328.1,472.9,328.1,472.9,328.1,472.8
			C328.1,472.8,328.1,472.8,328.1,472.8z"/>
		<path class="st5" d="M303.1,472.9C303.1,472.9,303.1,473,303.1,472.9C303.1,472.9,303.1,472.8,303.1,472.9
			C303.1,472.8,303.1,472.8,303.1,472.9z"/>
		<path class="st5" d="M356.1,472.9C356.1,472.9,356.1,473,356.1,472.9C356.1,472.9,356.1,472.8,356.1,472.9
			C356.1,472.8,356.1,472.8,356.1,472.9z"/>
		<path class="st5" d="M381.1,472.8C381.1,472.8,381.1,472.9,381.1,472.8C381.1,472.9,381.1,472.9,381.1,472.8
			C381.1,472.8,381.1,472.8,381.1,472.8z"/>
		<path class="st5" d="M250,472.9C250,472.9,250,473,250,472.9C250,472.9,250,472.8,250,472.9C250,472.8,250,472.8,250,472.9z"/>
		<path class="st5" d="M275.1,472.8C275,472.8,275,472.9,275.1,472.8C275.1,472.9,275.1,472.9,275.1,472.8
			C275.1,472.8,275.1,472.8,275.1,472.8z"/>
		<path class="st5" d="M232.1,481.7c0,2.6,2.2,4.8,4.8,4.8h153.7c2.6,0,4.8-2.2,4.8-4.8v-2.8c0-2.6-2.2-4.8-4.8-4.8h-4.8
			c-2.6,0-4.7-0.2-4.7-0.4s-0.4-1.9-1-3.2c-0.6-1.3-5.8-2.3-8.5-2.3h-5.9c-2.6,0-5.8,0.5-7.1,1s-2.4,3.8-2.4,4c0,0.2-2,0.8-4.6,0.8
			h-18.8c-2.6,0-4.7-0.2-4.7-0.4s-0.4-1.9-1-3.2c-0.6-1.3-5.8-2.3-8.5-2.3h-5.9c-2.6,0-5.8,0.5-7.1,1c-1.3,0.6-2.4,3.8-2.4,4
			c0,0.2-2,0.8-4.6,0.8h-18.8c-2.6,0-4.7-0.2-4.7-0.4s-0.4-1.9-1-3.2s-5.8-2.3-8.5-2.3h-5.9c-2.6,0-5.8,0.5-7.1,1
			c-1.3,0.6-2.4,3.8-2.4,4c0,0.2-2,0.8-4.6,0.8h-8.6c-2.6,0-4.8,2.2-4.8,4.8V481.7z"/>
	</g>
	<path class="st7" d="M358.5,404.7c1.3,0.6,4.5,1.1,7.2,1.1h5.9c2.6,0,5.9-0.5,7.2-1.1c1.3-0.6,2.4-4.4,2.4-5.2
		c0-0.8,2.2-1.5,4.8-1.5h4.6c2.6,0,4.8-2.2,4.8-4.8v-2.8c0-2.6-2.2-4.8-4.8-4.8H236.8c-2.6,0-4.8,2.2-4.8,4.8v2.8
		c0,2.6,2.2,4.8,4.8,4.8h8.4c2.6,0,4.8,0.7,4.8,1.5c0,0.8,0.5,2.5,1.1,3.8c0.6,1.3,5.9,2.4,8.5,2.4h5.9c2.6,0,5.9-0.5,7.2-1.1
		c1.3-0.6,2.4-4.4,2.4-5.2c0-0.8,2.2-1.5,4.8-1.5h18.4c2.6,0,4.8,0.7,4.8,1.5c0,0.8,0.5,2.5,1.1,3.8c0.6,1.3,5.9,2.4,8.5,2.4h5.9
		c2.6,0,5.9-0.5,7.2-1.1c1.3-0.6,2.4-4.4,2.4-5.2c0-0.8,2.2-1.5,4.8-1.5h18.4c2.6,0,4.8,0.7,4.8,1.5
		C356.1,400.3,357.2,404.1,358.5,404.7z"/>
	<path class="st7" d="M411.8,493.4c0-2.9-2.4-5.2-5.2-5.2H220.8c-2.9,0-5.2,2.4-5.2,5.2v1.9c0,2.9,2.4,5.2,5.2,5.2h185.8
		c2.9,0,5.2-2.4,5.2-5.2V493.4z"/>
</g>
<g class="st3">
	<g class="st4">
		<g>
			<path class="st6" d="M400.1,467.7c-2.1,4.1-6.2,6.5-10.5,6.5c-0.9,0-1.7-0.1-2.6-0.3c2,3.3,2.3,7.4,0.5,11.1
				c-2,4.3-6.3,6.8-10.7,6.8c-1.7,0-3.4-0.4-5-1.1l-1.9-0.9c2.6,3.6,3.1,8.5,0.9,12.6c-2.1,3.9-6.2,6.2-10.4,6.2
				c-1.9,0-3.8-0.5-5.6-1.4l-3.4-1.8c1.6,3.2,1.7,7.2-0.1,10.6c-2.1,4.1-6.2,6.4-10.5,6.4c-1.8,0-3.7-0.4-5.4-1.3l-4.4-2.2l2-2.2
				c2.5-2.7,3.8-6.3,3.6-10c-0.2-3.7-1.8-7.1-4.5-9.6c-1.5-1.3-3.2-2.3-5.1-3l-0.9-0.3l0.3-0.9c1.6-5,0.2-10.4-3.5-14
				c-2.6-2.6-6.1-4-9.7-4c-2.4,0-4.7,0.6-6.8,1.8l-0.9,0.5l-0.4-1c-0.6-1.7-1.6-3.2-2.8-4.5c-2.6-2.8-6.3-4.4-10.2-4.4
				c-3.5,0-6.9,1.3-9.5,3.7l-5.1,4.8l-0.6-1.1c-0.7-1.3-1.6-2.5-2.6-3.5c-2.6-2.5-6-3.9-9.7-3.9c-3.8,0-7.3,1.5-10,4.2l-2.2,2.3
				c-1,1-1.8,2.2-2.4,3.4l-4.8-2.5c-0.5-0.2-0.9-0.5-1.3-0.8c-8.8-3.7-16-10.5-20.4-18.9c-0.5-0.4-1.1-0.8-1.6-1.2
				c-6.2-4.8-24.6-19.9-44.5-35.8c3.6-23,13-44,26.7-61.5c19.8,16,39.7,31.8,49.6,38.6c1.1-0.2,2.2-0.3,3.3-0.4
				c0.7-0.2,1.3-0.3,2-0.3l34.8-2.4c-1.2,0.6-3.2,1.6-4,2c-3.4,1.7-6,4.8-7.1,8.5c-1.6,5.3-8.3,14.1-12.5,18.7
				c-5.2,5.6-4.9,14.4,0.6,19.6c2.6,2.4,6,3.8,9.5,3.8c3.8,0,7.5-1.6,10.1-4.4c1.7-1.9,10.7-11.7,16-22.6l0.2-0.4l0.4-0.1
				c3.1-1,7.3-2.1,12-3.1l0.3-0.1l74,37.4l0-0.1l0.5,0.3l0.4,0.2l0.5,0.3C400.7,454.8,403.1,461.9,400.1,467.7z"/>
			<path class="st5" d="M340.8,524.3c-2.2,0-4.4-0.5-6.3-1.5l-6.8-3.5l3.8-4.2c2.1-2.3,3.2-5.3,3.1-8.5c-0.1-3.2-1.5-6.1-3.8-8.2
				c-1.3-1.1-2.7-2-4.3-2.5l-2.8-0.9l0.9-2.8c1.3-4.2,0.2-8.8-3-11.9c-2.2-2.2-5.2-3.4-8.3-3.4c-2,0-4,0.5-5.8,1.5l-3,1.7l-1.2-3.3
				c-0.5-1.4-1.4-2.7-2.4-3.9c-2.2-2.4-5.4-3.8-8.6-3.8c-3,0-5.9,1.1-8,3.2l-7.1,6.6l-1.8-3.5c-0.6-1.1-1.3-2.1-2.2-3
				c-2.2-2.1-5.1-3.3-8.2-3.3c-3.2,0-6.2,1.3-8.5,3.6L254,475c-0.8,0.9-1.5,1.8-2.1,2.9l-0.9,1.9l-6.7-3.4c-0.5-0.2-0.9-0.5-1.3-0.8
				c-8.9-3.9-16.4-10.7-21-19.3c-0.4-0.3-0.9-0.6-1.3-0.9c-3.1-2.4-9.2-7.4-17-13.7c-7.8-6.3-17.5-14.2-27.5-22.2l-0.9-0.8l0.2-1.2
				c3.5-22.7,12.9-44.3,27.1-62.5l1.3-1.7l1.6,1.3c23.8,19.3,40.2,32.1,48.8,38c0.8-0.1,1.7-0.2,2.5-0.3c0.7-0.2,1.5-0.3,2.2-0.3
				l45.1-3.1l-9.3,4.6c-1.2,0.6-3.2,1.6-4,2c-2.9,1.5-5.1,4.1-6,7.2c-1.8,6-8.9,15.1-13,19.5c-4.4,4.8-4.2,12.2,0.5,16.7
				c2.2,2.1,5.1,3.2,8.1,3.2c3.3,0,6.4-1.4,8.6-3.7c1.7-1.8,10.4-11.4,15.7-22.1l0.6-1.2l1.3-0.4c3.2-1,7.4-2.1,12.2-3.2l1-0.2
				l72.8,36.8l0-0.1l3.3,1.7c3.3,1.7,5.8,4.5,6.9,8.1c1.2,3.5,0.9,7.3-0.8,10.6c-2.3,4.5-6.7,7.4-11.7,7.6c0.9,3.2,0.6,6.6-0.8,9.6
				c-2.3,4.8-7.2,7.9-12.6,7.9c-1,0-2-0.1-2.9-0.3c0.8,3.3,0.3,6.8-1.3,9.8c-2.4,4.5-7.1,7.3-12.2,7.3c-2,0-3.9-0.4-5.7-1.2
				c0.2,2.5-0.3,5.1-1.5,7.5C350.8,521.5,346,524.3,340.8,524.3z M334.4,518.1l2,1c1.4,0.7,2.9,1.1,4.4,1.1c3.7,0,7-2,8.6-5.3
				c1.4-2.8,1.4-6,0.1-8.8l-2.9-5.9l9.1,5c1.4,0.8,3,1.2,4.6,1.2c3.6,0,6.8-1.9,8.5-5.1c1.8-3.3,1.5-7.4-0.7-10.4l-4.9-6.7l9.4,4.4
				c1.3,0.6,2.7,0.9,4.1,0.9c3.7,0,7.2-2.2,8.8-5.6c1.4-2.9,1.2-6.4-0.4-9.1l-2.5-4.2l4.8,1.1c0.7,0.2,1.4,0.2,2.1,0.2
				c3.7,0,7-2,8.7-5.3c1.2-2.3,1.4-4.9,0.6-7.4c-0.8-2.3-2.3-4.2-4.4-5.4l0,0l-75.2-38c-4.2,1-8,1.9-10.9,2.8
				c-5.5,11-14.4,20.8-16.1,22.7c-3,3.2-7.3,5-11.7,5c-4.1,0-8-1.5-10.9-4.3c-6.4-6-6.7-16.1-0.7-22.6c4-4.3,10.6-12.9,12-17.8
				c0.8-2.8,2.4-5.2,4.5-7.2l-26.1,1.8c-0.6,0-1.1,0.1-1.7,0.3l-0.2,0l-0.2,0c-1.1,0.1-2.1,0.2-3.2,0.4l-0.8,0.1l-0.7-0.5
				c-8.2-5.6-24.4-18.2-48-37.3c-12.8,16.9-21.4,36.8-24.8,57.7c9.7,7.8,19.1,15.3,26.6,21.5c7.7,6.3,13.8,11.2,16.9,13.6
				c0.5,0.4,1,0.8,1.5,1.1l0.4,0.3l0.2,0.5c4.2,8,11.1,14.4,19.4,17.9l0.2,0.1l0.2,0.1c0.3,0.2,0.7,0.5,1.1,0.7l3,1.6
				c0.5-0.8,1.1-1.5,1.7-2.1l2.2-2.3c3-3.1,7.1-4.9,11.5-4.9c4.2,0,8.1,1.6,11.1,4.5c0.9,0.8,1.6,1.7,2.3,2.7l3.2-3
				c3-2.8,6.8-4.3,10.9-4.3c4.4,0,8.7,1.9,11.7,5.1c1.1,1.2,2.1,2.6,2.8,4c2.1-0.9,4.3-1.4,6.7-1.4c4.2,0,8.2,1.6,11.2,4.6
				c4,4,5.6,9.6,4.3,15.1c1.8,0.7,3.4,1.7,4.8,3c3.2,2.9,5,6.8,5.2,11.1c0.2,4.3-1.3,8.3-4.2,11.5L334.4,518.1z"/>
		</g>
		<path class="st5" d="M300.7,472.9c-4.4-4.8-11.9-5-16.7-0.6l-7.7,7.2c-0.3-2.6-1.5-5.1-3.5-7c-4.7-4.5-12.1-4.4-16.7,0.3L254,475
			c-4.5,4.7-4.4,12.1,0.3,16.7c2.3,2.2,5.3,3.3,8.2,3.3c0.8,0,1.6-0.1,2.3-0.2c-0.2,3.1,0.9,6.2,3.1,8.7c2.3,2.5,5.5,3.8,8.6,3.8
			c2.4,0,4.8-0.7,6.8-2.2c-0.7,3.7,0.5,7.7,3.3,10.5c2.3,2.3,5.3,3.4,8.3,3.4c3,0,6.1-1.2,8.4-3.5l1.2-1.2c0,3.2,1.3,6.4,3.8,8.7
			c2.3,2.1,5.1,3.1,7.9,3.1c3.2,0,6.4-1.3,8.7-3.8l6.4-7.1c4.4-4.8,4-12.3-0.8-16.7c-2.2-2-5-3.1-7.9-3.1c3.2-4.6,2.7-11-1.4-15.1
			c-4.6-4.6-12.1-4.5-16.7,0.1l-0.9,0.9C303.9,478.3,302.9,475.3,300.7,472.9z"/>
		<path class="st5" d="M439.9,410.6c-19.6,17.6-36.6,33.1-38,34.2c-2.2,1.7-4.5,3.1-6.9,4.2c-0.1,0.2-0.2,0.3-0.3,0.5l-0.4-0.2
			l-2.9-1.4l-71.8-36.3h0c-5.2,1.1-10.6,2.5-14.5,3.8c-5.2,11.3-15,21.9-16.2,23.2c-2.3,2.5-5.5,3.7-8.6,3.7c-2.9,0-5.8-1.1-8.1-3.2
			c-4.7-4.5-5-11.9-0.5-16.7c4.1-4.4,11.2-13.5,13-19.5c0.9-3.1,3.1-5.7,6-7.2c6.1-3,16.1-5.6,24-7.3h0c5.2-1.1,9.5-1.9,11.1-2.2
			c0.7-0.1,1.5-0.2,2.2-0.2l31.4,0.7c1.2,0,2.3,0.2,3.3,0.6c1.5,0.1,3,0.3,4.4,0.6c2.1-1.5,21-19.6,41.2-38.8
			C423.9,366.2,434.9,387.3,439.9,410.6z"/>
	</g>
</g>
<path class="st9" d="M253.5,393.3c0,0,0-0.1,0-0.1c0,0,0-0.1,0-0.1V393.3z"/>
<path class="st9" d="M368.5,393c0,0,0,0.1,0,0.1c0,0,0,0.1,0,0.1V393z"/>
<polygon class="st10" points="274.1,391.9 255.2,552.1 371.4,551.4 346.8,391.9 "/>
<g>
	<path class="st6" d="M281.3,511.3c1.8,1.6,3.3,3.4,4.4,5.5c1.1,2.1,1.7,4.4,1.8,6.9l50.9-0.3c0-2.5,0.5-4.8,1.5-6.9
		c1-2.1,2.4-3.9,4.2-5.5c1.8-1.6,3.9-2.8,6.2-3.8c2.4-0.9,5-1.5,7.8-1.6l-15.8-120c-2-0.1-3.9-0.3-5.7-0.8c-1.8-0.4-3.4-1-4.8-1.8
		c-1.4-0.7-2.5-1.6-3.4-2.5c-0.9-0.9-1.4-1.9-1.6-3l-33.1,0c-0.2,1.1-0.7,2.1-1.5,3c-0.8,0.9-2,1.8-3.3,2.5c-1.4,0.7-3,1.3-4.7,1.8
		c-1.8,0.4-3.7,0.7-5.7,0.8L267,506c2.8,0.1,5.5,0.7,7.9,1.6C277.3,508.5,279.5,509.7,281.3,511.3z M279.7,432.2
		c0.2-2.3,1.2-4.4,3-6.3c1.7-1.9,4.1-3.6,7-5c2.8-1.4,6.2-2.5,9.8-3.3c3.6-0.8,7.6-1.2,11.8-1.2c4.2,0,8.2,0.4,11.8,1.2
		c3.7,0.8,7,1.9,9.9,3.3c2.9,1.4,5.3,3.1,7.1,5c1.8,1.9,2.9,4,3.2,6.3c0.3,2.3-0.4,4.5-1.8,6.6c-1.4,2.1-3.6,4-6.5,5.6
		c-2.9,1.6-6.3,3-10.3,3.9c-3.9,0.9-8.3,1.5-12.9,1.5c-4.6,0-9-0.5-13-1.4c-4-0.9-7.5-2.2-10.4-3.9c-2.9-1.6-5.2-3.5-6.7-5.6
		C280.2,436.8,279.5,434.5,279.7,432.2z"/>
	<path class="st5" d="M257.1,533.4c0.3,0.1,0.7,0.2,1.1,0.2l110.3-0.7c0.4,0,0.8-0.1,1.1-0.2c0.3-0.1,0.6-0.3,0.9-0.6
		c0.2-0.2,0.4-0.5,0.5-0.8c0.1-0.3,0.1-0.6,0.1-1l-24.1-156c0-0.1-0.1-0.3-0.2-0.4c-0.1-0.1-0.3-0.2-0.4-0.3
		c-0.2-0.1-0.4-0.2-0.6-0.2c-0.2-0.1-0.5-0.1-0.7-0.1l-68.9,0c-0.3,0-0.5,0-0.7,0.1c-0.2,0.1-0.4,0.1-0.6,0.2
		c-0.2,0.1-0.3,0.2-0.4,0.3c-0.1,0.1-0.2,0.3-0.2,0.4L255.5,531c0,0.4,0,0.7,0.1,1c0.1,0.3,0.3,0.6,0.5,0.8
		C256.4,533,256.7,533.2,257.1,533.4z M264.2,506l12.5-120.4l0.1-1.1c0.1,0,0.2,0,0.2,0c0.1,0,0.2,0,0.2,0c0.1,0,0.2,0,0.2,0
		c0.1,0,0.2,0,0.2,0c0.1,0,0.2,0,0.2,0c0.1,0,0.2,0,0.2,0c0.1,0,0.2,0,0.2,0c0.1,0,0.2,0,0.2,0c1.7-0.1,3.4-0.3,4.9-0.7
		c1.5-0.4,2.9-0.9,4.1-1.5c1.2-0.6,2.2-1.4,2.9-2.2c0.7-0.8,1.2-1.7,1.4-2.6c0,0,0-0.1,0-0.1c0,0,0-0.1,0-0.1c0,0,0-0.1,0-0.1
		c0,0,0-0.1,0-0.1c0,0,0-0.1,0-0.1c0,0,0-0.1,0-0.1c0,0,0-0.1,0-0.1c0,0,0-0.1,0-0.1h1.9l32.9,0h1.9c0,0,0,0.1,0,0.1
		c0,0,0,0.1,0,0.1c0,0,0,0.1,0,0.1c0,0,0,0.1,0,0.1c0,0,0,0.1,0,0.1c0,0,0,0.1,0,0.1c0,0,0,0.1,0,0.1c0,0,0,0.1,0,0.1
		c0.2,0.9,0.7,1.8,1.4,2.6c0.8,0.8,1.8,1.5,2.9,2.2c1.2,0.6,2.6,1.1,4.1,1.5c1.5,0.4,3.2,0.6,4.9,0.7c0.1,0,0.2,0,0.2,0
		c0.1,0,0.2,0,0.2,0c0.1,0,0.2,0,0.2,0c0.1,0,0.2,0,0.2,0c0.1,0,0.2,0,0.2,0c0.1,0,0.2,0,0.2,0c0.1,0,0.2,0,0.2,0c0.1,0,0.2,0,0.2,0
		l0.2,1.1l16.6,119.9l0.3,2.3c-0.1,0-0.2,0-0.4,0s-0.2,0-0.4,0c-0.1,0-0.2,0-0.4,0c-0.1,0-0.2,0-0.4,0c-0.1,0-0.2,0-0.4,0
		c-0.1,0-0.2,0-0.3,0c-0.1,0-0.2,0-0.3,0c-0.1,0-0.2,0-0.3,0c-2.4,0.2-4.7,0.7-6.8,1.5c-2.1,0.8-3.9,1.9-5.4,3.3
		c-1.5,1.4-2.8,3-3.6,4.8c-0.9,1.8-1.3,3.8-1.3,6c0,0.1,0,0.2,0,0.3c0,0.1,0,0.2,0,0.3c0,0.1,0,0.2,0,0.3c0,0.1,0,0.2,0,0.3
		c0,0.1,0,0.2,0,0.3c0,0.1,0,0.2,0,0.3c0,0.1,0,0.2,0,0.3c0,0.1,0,0.2,0,0.3l-2.9,0l-51.2,0.3l-3,0c0-0.1,0-0.2,0-0.3
		c0-0.1,0-0.2,0-0.3c0-0.1,0-0.2,0-0.3c0-0.1,0-0.2,0-0.3c0-0.1,0-0.2,0-0.3c0-0.1,0-0.2,0-0.3c0-0.1,0-0.2,0-0.3c0-0.1,0-0.2,0-0.3
		c-0.1-2.1-0.6-4.1-1.5-6c-0.9-1.8-2.2-3.4-3.8-4.8c-1.6-1.4-3.5-2.5-5.6-3.3c-2.1-0.8-4.4-1.3-6.9-1.4c-0.1,0-0.2,0-0.3,0
		c-0.1,0-0.2,0-0.4,0c-0.1,0-0.2,0-0.4,0c-0.1,0-0.2,0-0.4,0c-0.1,0-0.2,0-0.4,0c-0.1,0-0.2,0-0.4,0c-0.1,0-0.2,0-0.4,0
		c-0.1,0-0.2,0-0.4,0L264.2,506z"/>
	<path d="M290,443.3c2.7,1.5,6,2.7,9.7,3.5c3.7,0.8,7.8,1.3,12.1,1.3c4.3,0,8.4-0.5,12-1.3c3.7-0.8,6.9-2.1,9.6-3.5
		c2.6-1.5,4.7-3.2,6.1-5.1c1.3-1.9,1.9-3.9,1.7-6c-0.2-2.1-1.3-4-2.9-5.8c-1.6-1.7-3.9-3.3-6.6-4.6c-2.7-1.3-5.8-2.3-9.3-3
		c-3.4-0.7-7.2-1.1-11.1-1.1c-3.9,0-7.6,0.4-11.1,1.1c-3.4,0.7-6.5,1.8-9.2,3c-2.7,1.3-4.9,2.9-6.5,4.6c-1.6,1.8-2.6,3.7-2.7,5.8
		c-0.2,2.1,0.5,4.2,1.9,6C285.2,440.2,287.3,441.9,290,443.3z M285.3,430.1l5.9,0c0.1-0.6,0.2-1.1,0.3-1.6c0.1-0.5,0.3-0.9,0.5-1.4
		c0.2-0.4,0.4-0.8,0.7-1.1c0.2-0.3,0.5-0.7,0.8-0.9l3.9,1c-0.2,0.2-0.4,0.5-0.7,0.8c-0.2,0.3-0.5,0.7-0.7,1.1
		c-0.2,0.4-0.4,0.9-0.6,1.4c-0.2,0.5-0.3,1.1-0.3,1.7c0,0.8,0.1,1.4,0.4,2c0.3,0.5,0.7,1,1.2,1.3c0.5,0.3,1.1,0.6,1.7,0.7
		c0.6,0.2,1.3,0.2,1.9,0.2c0.8,0,1.5-0.1,2.1-0.3c0.6-0.2,1.2-0.5,1.7-0.9c0.5-0.4,1-0.9,1.6-1.6c0.5-0.6,1-1.4,1.6-2.2
		c0.6-1,1.3-1.9,2-2.6c0.7-0.8,1.5-1.4,2.4-1.9c0.9-0.5,1.8-0.9,2.9-1.1c1.1-0.2,2.2-0.4,3.6-0.4c1.2,0,2.4,0.1,3.5,0.4
		c1.1,0.3,2.2,0.6,3.1,1.1c0.9,0.5,1.8,1.1,2.5,1.9c0.7,0.8,1.2,1.6,1.5,2.7l6.3,0l0.2,2.5l-6.1,0c0,0.6,0,1.2-0.1,1.7
		c-0.1,0.6-0.2,1.1-0.4,1.7c-0.2,0.5-0.5,1.1-0.7,1.5c-0.3,0.5-0.6,0.9-1,1.3l-4.2-1c0.3-0.4,0.7-0.8,1-1.2c0.3-0.4,0.6-0.9,0.8-1.4
		c0.2-0.5,0.4-1,0.5-1.6c0.1-0.5,0.1-1.1,0.1-1.6c0-0.7-0.2-1.4-0.6-1.9c-0.3-0.6-0.8-1.1-1.3-1.5c-0.5-0.4-1.2-0.7-1.9-0.9
		c-0.7-0.2-1.5-0.3-2.4-0.3c-0.8,0-1.6,0.1-2.3,0.3c-0.7,0.2-1.3,0.5-1.9,0.8c-0.6,0.4-1.1,0.8-1.6,1.4c-0.5,0.6-0.9,1.2-1.4,1.9
		c-0.6,1-1.2,1.9-1.9,2.8c-0.7,0.8-1.4,1.5-2.3,2.1c-0.9,0.6-1.8,1-2.9,1.4c-1.1,0.3-2.3,0.5-3.6,0.5c-1.3,0-2.5-0.1-3.6-0.4
		c-1.1-0.3-2.1-0.7-2.9-1.2c-0.9-0.5-1.6-1.2-2.1-1.9c-0.5-0.7-0.9-1.6-1.1-2.5l-6.1,0L285.3,430.1z"/>
	<path class="st11" d="M288.4,444.4c2.9,1.6,6.5,2.9,10.4,3.9c4,0.9,8.4,1.4,13,1.4c4.6,0,9-0.5,12.9-1.5c3.9-0.9,7.4-2.3,10.3-3.9
		c2.8-1.6,5-3.5,6.5-5.6c1.4-2.1,2.1-4.3,1.8-6.6c-0.3-2.3-1.4-4.4-3.2-6.3c-1.8-1.9-4.2-3.6-7.1-5c-2.9-1.4-6.3-2.5-9.9-3.3
		c-3.7-0.8-7.7-1.2-11.8-1.2c-4.2,0-8.2,0.4-11.8,1.2c-3.7,0.8-7,1.9-9.8,3.3c-2.9,1.4-5.2,3.1-7,5c-1.7,1.9-2.8,4.1-3,6.3
		c-0.2,2.3,0.5,4.5,2,6.6C283.2,440.9,285.5,442.8,288.4,444.4z M281.8,432.2c0.2-2.1,1.1-4.1,2.7-5.8c1.6-1.7,3.8-3.3,6.5-4.6
		c2.7-1.3,5.8-2.3,9.2-3c3.4-0.7,7.1-1.1,11.1-1.1c3.9,0,7.7,0.4,11.1,1.1c3.4,0.7,6.6,1.7,9.3,3c2.7,1.3,5,2.8,6.6,4.6
		c1.7,1.8,2.7,3.7,2.9,5.8c0.2,2.1-0.4,4.1-1.7,6c-1.3,1.9-3.4,3.6-6.1,5.1c-2.7,1.5-5.9,2.7-9.6,3.5c-3.7,0.9-7.7,1.3-12,1.3
		c-4.3,0-8.4-0.4-12.1-1.3c-3.7-0.8-7-2-9.7-3.5c-2.7-1.5-4.8-3.2-6.3-5.1C282.3,436.4,281.6,434.3,281.8,432.2z"/>
	<path class="st11" d="M296.1,427.8c0.2-0.4,0.5-0.8,0.7-1.1c0.2-0.3,0.5-0.6,0.7-0.8l-3.9-1c-0.3,0.3-0.5,0.6-0.8,0.9
		c-0.3,0.3-0.5,0.7-0.7,1.1c-0.2,0.4-0.4,0.9-0.5,1.4c-0.1,0.5-0.3,1-0.3,1.6l-5.9,0l-0.2,2.5l6.1,0c0.2,0.9,0.6,1.8,1.1,2.5
		c0.5,0.7,1.3,1.4,2.1,1.9c0.9,0.5,1.8,1,2.9,1.2c1.1,0.3,2.3,0.4,3.6,0.4c1.4,0,2.6-0.2,3.6-0.5c1.1-0.3,2-0.8,2.9-1.4
		c0.9-0.6,1.6-1.3,2.3-2.1c0.7-0.8,1.3-1.7,1.9-2.8c0.4-0.7,0.9-1.4,1.4-1.9c0.5-0.6,1-1,1.6-1.4c0.6-0.4,1.2-0.7,1.9-0.8
		c0.7-0.2,1.4-0.3,2.3-0.3c0.9,0,1.7,0.1,2.4,0.3c0.7,0.2,1.4,0.5,1.9,0.9c0.5,0.4,1,0.9,1.3,1.5c0.3,0.6,0.5,1.2,0.6,1.9
		c0,0.6,0,1.1-0.1,1.6c-0.1,0.5-0.3,1.1-0.5,1.6c-0.2,0.5-0.5,1-0.8,1.4c-0.3,0.4-0.6,0.8-1,1.2l4.2,1c0.4-0.4,0.7-0.8,1-1.3
		c0.3-0.5,0.5-1,0.7-1.5c0.2-0.5,0.4-1.1,0.4-1.7c0.1-0.6,0.1-1.2,0.1-1.7l6.1,0l-0.2-2.5l-6.3,0c-0.3-1-0.8-1.9-1.5-2.7
		c-0.7-0.8-1.5-1.4-2.5-1.9c-0.9-0.5-2-0.9-3.1-1.1c-1.1-0.3-2.3-0.4-3.5-0.4c-1.3,0-2.5,0.1-3.6,0.4c-1.1,0.2-2,0.6-2.9,1.1
		c-0.9,0.5-1.6,1.1-2.4,1.9c-0.7,0.8-1.4,1.6-2,2.6c-0.6,0.9-1.1,1.6-1.6,2.2c-0.5,0.6-1,1.1-1.6,1.6c-0.5,0.4-1.1,0.7-1.7,0.9
		c-0.6,0.2-1.3,0.3-2.1,0.3c-0.6,0-1.3-0.1-1.9-0.2c-0.6-0.2-1.2-0.4-1.7-0.7c-0.5-0.3-0.9-0.8-1.2-1.3c-0.3-0.5-0.4-1.2-0.4-2
		c0-0.6,0.1-1.2,0.3-1.7C295.6,428.7,295.9,428.2,296.1,427.8z"/>
	<path class="st11" d="M292,377c0,0,0,0.1,0,0.1c0,0,0,0.1,0,0.1c0,0,0,0.1,0,0.1c0,0,0,0.1,0,0.1c-0.2,0.9-0.6,1.8-1.4,2.6
		c-0.7,0.8-1.7,1.5-2.9,2.2c-1.2,0.6-2.6,1.2-4.1,1.5c-1.5,0.4-3.2,0.6-4.9,0.7c-0.1,0-0.2,0-0.2,0c-0.1,0-0.2,0-0.2,0
		c-0.1,0-0.2,0-0.2,0c-0.1,0-0.2,0-0.2,0c-0.1,0-0.2,0-0.2,0c-0.1,0-0.2,0-0.2,0c-0.1,0-0.2,0-0.2,0c-0.1,0-0.2,0-0.2,0l-0.1,1.1
		L264.2,506l-0.2,2.3c0.1,0,0.2,0,0.4,0c0.1,0,0.2,0,0.4,0c0.1,0,0.2,0,0.4,0c0.1,0,0.2,0,0.4,0c0.1,0,0.2,0,0.4,0
		c0.1,0,0.2,0,0.4,0c0.1,0,0.2,0,0.4,0c0.1,0,0.2,0,0.3,0c2.5,0.1,4.8,0.6,6.9,1.4c2.1,0.8,4,1.9,5.6,3.3c1.6,1.4,2.9,3,3.8,4.8
		c0.9,1.8,1.5,3.8,1.5,6c0,0.1,0,0.2,0,0.3c0,0.1,0,0.2,0,0.3c0,0.1,0,0.2,0,0.3c0,0.1,0,0.2,0,0.3c0,0.1,0,0.2,0,0.3
		c0,0.1,0,0.2,0,0.3c0,0.1,0,0.2,0,0.3c0,0.1,0,0.2,0,0.3l3,0l51.2-0.3l2.9,0c0-0.1,0-0.2,0-0.3c0-0.1,0-0.2,0-0.3
		c0-0.1,0-0.2,0-0.3c0-0.1,0-0.2,0-0.3c0-0.1,0-0.2,0-0.3c0-0.1,0-0.2,0-0.3c0-0.1,0-0.2,0-0.3c0-0.1,0-0.2,0-0.3
		c0-2.1,0.5-4.1,1.3-6c0.8-1.8,2.1-3.4,3.6-4.8c1.5-1.4,3.4-2.5,5.4-3.3c2-0.8,4.3-1.3,6.8-1.5c0.1,0,0.2,0,0.3,0c0.1,0,0.2,0,0.3,0
		c0.1,0,0.2,0,0.3,0c0.1,0,0.2,0,0.4,0c0.1,0,0.2,0,0.4,0c0.1,0,0.2,0,0.4,0c0.1,0,0.2,0,0.4,0s0.2,0,0.4,0l-0.3-2.3l-16.6-119.9
		l-0.2-1.1c-0.1,0-0.2,0-0.2,0c-0.1,0-0.2,0-0.2,0c-0.1,0-0.2,0-0.2,0c-0.1,0-0.2,0-0.2,0c-0.1,0-0.2,0-0.2,0c-0.1,0-0.2,0-0.2,0
		c-0.1,0-0.2,0-0.2,0c-0.1,0-0.2,0-0.2,0c-1.7-0.1-3.4-0.3-4.9-0.7c-1.5-0.4-2.9-0.9-4.1-1.5c-1.2-0.6-2.2-1.4-2.9-2.2
		c-0.7-0.8-1.2-1.7-1.4-2.6c0,0,0-0.1,0-0.1c0,0,0-0.1,0-0.1c0,0,0-0.1,0-0.1c0,0,0-0.1,0-0.1c0,0,0-0.1,0-0.1c0,0,0-0.1,0-0.1
		c0,0,0-0.1,0-0.1c0,0,0-0.1,0-0.1h-1.9l-32.9,0H292c0,0,0,0.1,0,0.1c0,0,0,0.1,0,0.1c0,0,0,0.1,0,0.1C292,376.9,292,377,292,377z
		 M292.3,380.5c0.8-0.9,1.3-1.9,1.5-3l33.1,0c0.2,1.1,0.8,2.1,1.6,3c0.9,0.9,2,1.8,3.4,2.5c1.4,0.7,3,1.3,4.8,1.8
		c1.8,0.4,3.7,0.7,5.7,0.8l15.8,120c-2.8,0.2-5.4,0.7-7.8,1.6c-2.4,0.9-4.5,2.2-6.2,3.8c-1.8,1.6-3.2,3.4-4.2,5.5
		c-1,2.1-1.5,4.4-1.5,6.9l-50.9,0.3c-0.1-2.5-0.7-4.8-1.8-6.9c-1.1-2.1-2.6-3.9-4.4-5.5c-1.8-1.5-4-2.8-6.4-3.7
		c-2.4-0.9-5.1-1.4-7.9-1.6l11.7-120.4c2-0.1,3.9-0.3,5.7-0.8c1.8-0.4,3.3-1,4.7-1.8C290.4,382.3,291.5,381.5,292.3,380.5z"/>
</g>
<g>
	<path class="st6" d="M291.4,527.5c1.9,1.4,3.6,3.2,4.7,5.2c1.2,2,2,4.3,2.2,6.8l50.8-3.6c-0.2-2.5,0.2-4.8,1.1-7
		c0.8-2.1,2.1-4.1,3.8-5.8c1.7-1.7,3.7-3.1,6-4.2c2.3-1.1,4.9-1.8,7.7-2.2L344,398.1c-2,0.1-3.9-0.1-5.7-0.4
		c-1.8-0.3-3.4-0.8-4.9-1.5c-1.4-0.6-2.6-1.4-3.5-2.3c-0.9-0.9-1.5-1.8-1.8-2.9l-33,2.2c-0.1,1.1-0.6,2.1-1.3,3.1
		c-0.8,1-1.8,1.9-3.1,2.7c-1.3,0.8-2.9,1.5-4.6,2.1c-1.7,0.6-3.6,1-5.6,1.2l-3.7,120.9c2.8-0.1,5.5,0.3,8,1.1
		C287.2,524.9,289.5,526.1,291.4,527.5z M284.6,448.7c0-2.3,0.9-4.5,2.5-6.5c1.6-2,3.8-3.9,6.6-5.5c2.7-1.6,6-2.9,9.6-3.9
		c3.6-1,7.5-1.7,11.7-2c4.2-0.3,8.2-0.1,11.9,0.4c3.7,0.5,7.2,1.4,10.1,2.6c3,1.2,5.5,2.7,7.4,4.5c1.9,1.8,3.2,3.8,3.6,6.1
		c0.4,2.3-0.1,4.5-1.4,6.7c-1.3,2.2-3.4,4.2-6.1,6c-2.7,1.8-6.1,3.4-10,4.6c-3.9,1.2-8.2,2-12.8,2.3c-4.6,0.3-9,0.1-13.1-0.6
		c-4-0.7-7.6-1.7-10.7-3.2c-3-1.4-5.4-3.1-7-5.1C285.4,453.2,284.6,451,284.6,448.7z"/>
	<path class="st5" d="M268.7,551.1c0.4,0.1,0.7,0.1,1.2,0.1l110-7.9c0.4,0,0.8-0.1,1.1-0.3c0.3-0.2,0.6-0.4,0.8-0.6
		c0.2-0.2,0.4-0.5,0.5-0.8c0.1-0.3,0.1-0.6,0-1l-34.3-154.1c0-0.1-0.1-0.3-0.2-0.4c-0.1-0.1-0.3-0.2-0.5-0.3
		c-0.2-0.1-0.4-0.1-0.6-0.2c-0.2,0-0.5,0-0.7,0l-68.8,4.5c-0.3,0-0.5,0.1-0.7,0.1c-0.2,0.1-0.4,0.2-0.6,0.3
		c-0.2,0.1-0.3,0.2-0.4,0.3c-0.1,0.1-0.2,0.3-0.2,0.4L267,548.9c0,0.4,0,0.7,0.2,1c0.1,0.3,0.3,0.6,0.6,0.8
		C268,550.8,268.3,551,268.7,551.1z M274,523.3l4.6-121l0-1.1c0.1,0,0.2,0,0.2,0c0.1,0,0.2,0,0.2,0c0.1,0,0.2,0,0.2,0
		c0.1,0,0.2,0,0.2,0c0.1,0,0.2,0,0.2,0c0.1,0,0.2,0,0.2,0c0.1,0,0.2,0,0.2,0c0.1,0,0.2,0,0.2,0c1.7-0.2,3.3-0.5,4.8-1
		c1.5-0.5,2.8-1.1,4-1.8c1.1-0.7,2.1-1.5,2.7-2.3c0.7-0.8,1.1-1.7,1.2-2.7c0,0,0-0.1,0-0.1c0,0,0-0.1,0-0.1c0,0,0-0.1,0-0.1
		c0,0,0-0.1,0-0.1c0,0,0-0.1,0-0.1c0,0,0-0.1,0-0.1c0,0,0-0.1,0-0.1c0,0,0-0.1,0-0.1l1.9-0.1L328,390l1.9-0.1c0,0,0,0.1,0,0.1
		c0,0,0,0.1,0,0.1c0,0,0,0.1,0,0.1c0,0,0,0.1,0,0.1c0,0,0,0.1,0,0.1c0,0,0,0.1,0,0.1c0,0,0,0.1,0,0.1c0,0,0,0.1,0,0.1
		c0.3,0.9,0.8,1.7,1.6,2.5c0.8,0.8,1.8,1.4,3.1,2c1.2,0.5,2.7,1,4.2,1.3c1.5,0.3,3.2,0.4,4.9,0.4c0.1,0,0.2,0,0.2,0
		c0.1,0,0.2,0,0.2,0c0.1,0,0.2,0,0.2,0c0.1,0,0.2,0,0.2,0c0.1,0,0.2,0,0.2,0c0.1,0,0.2,0,0.2,0c0.1,0,0.2,0,0.2,0c0.1,0,0.2,0,0.2,0
		l0.2,1.1l24.5,118.6l0.5,2.2c-0.1,0-0.2,0-0.4,0c-0.1,0-0.2,0-0.4,0c-0.1,0-0.2,0-0.4,0c-0.1,0-0.2,0-0.4,0c-0.1,0-0.2,0-0.4,0
		c-0.1,0-0.2,0-0.3,0c-0.1,0-0.2,0-0.3,0c-0.1,0-0.2,0-0.3,0c-2.4,0.3-4.7,1-6.7,1.9c-2,1-3.8,2.2-5.2,3.7c-1.4,1.5-2.6,3.2-3.3,5
		c-0.7,1.9-1.1,3.9-0.9,6c0,0.1,0,0.2,0,0.3c0,0.1,0,0.2,0,0.3c0,0.1,0,0.2,0,0.3c0,0.1,0,0.2,0,0.3c0,0.1,0,0.2,0,0.3
		c0,0.1,0,0.2,0.1,0.3c0,0.1,0,0.2,0.1,0.3c0,0.1,0,0.2,0.1,0.3l-2.9,0.2l-51.1,3.6l-2.9,0.2c0-0.1,0-0.2,0-0.3c0-0.1,0-0.2,0-0.3
		c0-0.1,0-0.2,0-0.3c0-0.1,0-0.2,0-0.3c0-0.1,0-0.2,0-0.3c0-0.1,0-0.2,0-0.3c0-0.1,0-0.2,0-0.3c0-0.1,0-0.2,0-0.3
		c-0.2-2.1-0.9-4.1-1.9-5.9c-1-1.7-2.4-3.3-4.1-4.5c-1.7-1.2-3.6-2.2-5.8-2.9c-2.1-0.7-4.5-1-7-1c-0.1,0-0.2,0-0.4,0
		c-0.1,0-0.2,0-0.4,0c-0.1,0-0.2,0-0.4,0c-0.1,0-0.2,0-0.4,0c-0.1,0-0.2,0-0.4,0c-0.1,0-0.2,0-0.4,0c-0.1,0-0.2,0-0.4,0
		c-0.1,0-0.2,0-0.3,0L274,523.3z"/>
	<path d="M295.6,459.1c2.8,1.3,6.2,2.3,9.9,2.9c3.8,0.6,7.9,0.8,12.2,0.5c4.3-0.3,8.3-1,11.9-2.1c3.6-1.1,6.7-2.5,9.3-4.2
		c2.5-1.6,4.5-3.5,5.7-5.5c1.2-2,1.7-4,1.3-6.1c-0.4-2.1-1.5-3.9-3.3-5.6c-1.8-1.6-4.1-3-6.9-4.1c-2.8-1.1-6-1.9-9.5-2.4
		c-3.5-0.5-7.2-0.6-11.1-0.3c-3.9,0.3-7.6,0.9-11,1.8c-3.4,0.9-6.4,2.2-9,3.6c-2.6,1.5-4.7,3.2-6.2,5c-1.5,1.9-2.3,3.9-2.3,6
		c0,2.1,0.8,4.1,2.3,5.9C290.6,456.3,292.8,457.9,295.6,459.1z M290.1,446.2l5.9-0.4c0-0.6,0.1-1.1,0.2-1.6c0.1-0.5,0.3-1,0.4-1.4
		c0.2-0.4,0.4-0.8,0.6-1.2c0.2-0.4,0.5-0.7,0.7-1l4,0.7c-0.2,0.2-0.4,0.5-0.6,0.8c-0.2,0.3-0.4,0.7-0.6,1.1
		c-0.2,0.4-0.4,0.9-0.5,1.4c-0.1,0.5-0.2,1.1-0.2,1.7c0,0.8,0.2,1.4,0.5,1.9c0.3,0.5,0.8,0.9,1.3,1.2c0.5,0.3,1.1,0.5,1.8,0.6
		c0.6,0.1,1.3,0.1,1.9,0.1c0.8-0.1,1.5-0.2,2.1-0.4c0.6-0.2,1.2-0.6,1.7-1c0.5-0.4,1-1,1.5-1.7c0.5-0.7,0.9-1.4,1.4-2.3
		c0.6-1.1,1.2-2,1.8-2.8c0.7-0.8,1.4-1.5,2.2-2c0.8-0.6,1.8-1,2.8-1.3c1-0.3,2.2-0.5,3.5-0.6c1.2-0.1,2.4,0,3.5,0.2
		c1.1,0.2,2.2,0.5,3.2,0.9c1,0.4,1.9,1,2.6,1.7c0.7,0.7,1.3,1.6,1.7,2.6l6.3-0.4l0.4,2.5l-6.1,0.4c0.1,0.6,0.1,1.2,0,1.7
		c-0.1,0.6-0.2,1.2-0.3,1.7c-0.2,0.6-0.4,1.1-0.6,1.6c-0.3,0.5-0.6,0.9-0.9,1.3l-4.3-0.7c0.3-0.4,0.6-0.8,0.9-1.3
		c0.3-0.5,0.5-0.9,0.7-1.5c0.2-0.5,0.3-1,0.4-1.6c0.1-0.5,0.1-1.1,0-1.7c-0.1-0.7-0.3-1.3-0.7-1.9c-0.4-0.5-0.8-1-1.4-1.4
		c-0.6-0.4-1.2-0.6-2-0.8c-0.7-0.2-1.5-0.2-2.4-0.2c-0.8,0.1-1.6,0.2-2.2,0.4c-0.7,0.2-1.3,0.6-1.8,1c-0.5,0.4-1,0.9-1.5,1.5
		c-0.5,0.6-0.9,1.3-1.3,2c-0.5,1.1-1.1,2-1.7,2.9c-0.6,0.9-1.3,1.6-2.2,2.3c-0.8,0.6-1.7,1.2-2.8,1.5c-1.1,0.4-2.2,0.6-3.6,0.7
		c-1.3,0.1-2.5,0-3.6-0.2c-1.1-0.2-2.1-0.6-3-1c-0.9-0.5-1.6-1.1-2.2-1.8c-0.6-0.7-1-1.5-1.3-2.4l-6.1,0.4L290.1,446.2z"/>
	<path class="st11" d="M294.1,460.3c3,1.4,6.6,2.5,10.7,3.2c4,0.7,8.5,0.9,13.1,0.6c4.6-0.3,8.9-1.1,12.8-2.3
		c3.9-1.2,7.2-2.7,10-4.6c2.7-1.8,4.8-3.8,6.1-6c1.3-2.1,1.8-4.4,1.4-6.7c-0.4-2.2-1.7-4.3-3.6-6.1c-1.9-1.8-4.4-3.3-7.4-4.5
		c-3-1.2-6.4-2.1-10.1-2.6c-3.7-0.5-7.7-0.7-11.9-0.4c-4.2,0.3-8.1,1-11.7,2c-3.6,1-6.9,2.4-9.6,3.9c-2.8,1.6-5,3.4-6.6,5.5
		c-1.6,2-2.5,4.2-2.5,6.5c0,2.3,0.8,4.5,2.5,6.4C288.7,457.1,291.1,458.9,294.1,460.3z M286.7,448.6c0-2.1,0.9-4.1,2.3-6
		c1.5-1.9,3.6-3.6,6.2-5c2.6-1.5,5.6-2.7,9-3.6c3.4-0.9,7.1-1.6,11-1.8c3.9-0.3,7.7-0.1,11.1,0.3c3.5,0.5,6.7,1.3,9.5,2.4
		c2.8,1.1,5.2,2.5,6.9,4.1c1.8,1.6,2.9,3.5,3.3,5.6c0.4,2.1-0.1,4.2-1.3,6.1c-1.2,2-3.2,3.8-5.7,5.5c-2.6,1.7-5.7,3.1-9.3,4.2
		c-3.6,1.1-7.6,1.8-11.9,2.1c-4.3,0.3-8.4,0.1-12.2-0.5c-3.7-0.6-7.1-1.6-9.9-2.9c-2.8-1.3-5-2.9-6.6-4.7
		C287.5,452.7,286.7,450.7,286.7,448.6z"/>
	<path class="st11" d="M300.7,443.2c0.2-0.4,0.4-0.8,0.6-1.1c0.2-0.3,0.4-0.6,0.6-0.8l-4-0.7c-0.2,0.3-0.5,0.6-0.7,1
		c-0.2,0.4-0.4,0.8-0.6,1.2c-0.2,0.4-0.3,0.9-0.4,1.4c-0.1,0.5-0.2,1-0.2,1.6l-5.9,0.4l0,2.5l6.1-0.4c0.2,0.9,0.7,1.7,1.3,2.4
		c0.6,0.7,1.3,1.3,2.2,1.8c0.9,0.5,1.9,0.8,3,1c1.1,0.2,2.3,0.3,3.6,0.2c1.4-0.1,2.5-0.3,3.6-0.7c1.1-0.4,2-0.9,2.8-1.5
		c0.8-0.6,1.5-1.4,2.2-2.3c0.6-0.9,1.2-1.8,1.7-2.9c0.4-0.8,0.8-1.4,1.3-2c0.5-0.6,0.9-1.1,1.5-1.5c0.5-0.4,1.1-0.7,1.8-1
		c0.7-0.2,1.4-0.4,2.2-0.4c0.9-0.1,1.7,0,2.4,0.2c0.7,0.2,1.4,0.4,2,0.8c0.6,0.4,1.1,0.8,1.4,1.4c0.4,0.5,0.6,1.2,0.7,1.9
		c0.1,0.6,0.1,1.1,0,1.7c-0.1,0.5-0.2,1.1-0.4,1.6c-0.2,0.5-0.4,1-0.7,1.5c-0.3,0.5-0.6,0.9-0.9,1.3l4.3,0.7
		c0.3-0.4,0.6-0.8,0.9-1.3c0.3-0.5,0.5-1,0.6-1.6c0.2-0.6,0.3-1.1,0.3-1.7c0.1-0.6,0.1-1.2,0-1.7l6.1-0.4l-0.4-2.5l-6.3,0.4
		c-0.4-1-1-1.8-1.7-2.6c-0.7-0.7-1.6-1.3-2.6-1.7c-1-0.4-2-0.8-3.2-0.9c-1.1-0.2-2.3-0.2-3.5-0.2c-1.3,0.1-2.5,0.3-3.5,0.6
		c-1,0.3-2,0.8-2.8,1.3c-0.8,0.6-1.6,1.2-2.2,2c-0.7,0.8-1.3,1.7-1.8,2.8c-0.5,0.9-1,1.7-1.4,2.3c-0.5,0.7-1,1.2-1.5,1.7
		c-0.5,0.4-1.1,0.8-1.7,1c-0.6,0.2-1.3,0.4-2.1,0.4c-0.6,0-1.3,0-1.9-0.1c-0.6-0.1-1.2-0.3-1.8-0.6c-0.5-0.3-1-0.7-1.3-1.2
		c-0.3-0.5-0.5-1.2-0.5-1.9c0-0.6,0-1.2,0.2-1.7C300.3,444.1,300.5,443.7,300.7,443.2z"/>
	<path class="st11" d="M293.3,392.8c0,0,0,0.1,0,0.1c0,0,0,0.1,0,0.1c0,0,0,0.1,0,0.1c0,0,0,0.1,0,0.1c-0.1,0.9-0.5,1.8-1.2,2.7
		c-0.7,0.8-1.6,1.6-2.7,2.3c-1.1,0.7-2.5,1.3-4,1.8c-1.5,0.5-3.1,0.8-4.8,1c-0.1,0-0.2,0-0.2,0c-0.1,0-0.2,0-0.2,0
		c-0.1,0-0.2,0-0.2,0c-0.1,0-0.2,0-0.2,0c-0.1,0-0.2,0-0.2,0c-0.1,0-0.2,0-0.2,0c-0.1,0-0.2,0-0.2,0c-0.1,0-0.2,0-0.2,0l0,1.1
		l-4.6,121l-0.1,2.3c0.1,0,0.2,0,0.3,0c0.1,0,0.2,0,0.4,0c0.1,0,0.2,0,0.4,0c0.1,0,0.2,0,0.4,0c0.1,0,0.2,0,0.4,0c0.1,0,0.2,0,0.4,0
		c0.1,0,0.2,0,0.4,0c0.1,0,0.2,0,0.4,0c2.5,0,4.8,0.3,7,1c2.1,0.7,4.1,1.6,5.8,2.9c1.7,1.3,3.1,2.8,4.1,4.5c1,1.8,1.7,3.7,1.9,5.9
		c0,0.1,0,0.2,0,0.3c0,0.1,0,0.2,0,0.3c0,0.1,0,0.2,0,0.3c0,0.1,0,0.2,0,0.3c0,0.1,0,0.2,0,0.3c0,0.1,0,0.2,0,0.3c0,0.1,0,0.2,0,0.3
		c0,0.1,0,0.2,0,0.3l2.9-0.2l51.1-3.6l2.9-0.2c0-0.1,0-0.2-0.1-0.3c0-0.1,0-0.2-0.1-0.3c0-0.1,0-0.2-0.1-0.3c0-0.1,0-0.2,0-0.3
		c0-0.1,0-0.2,0-0.3c0-0.1,0-0.2,0-0.3c0-0.1,0-0.2,0-0.3c0-0.1,0-0.2,0-0.3c-0.1-2.1,0.2-4.2,0.9-6c0.7-1.9,1.9-3.6,3.3-5
		c1.4-1.5,3.2-2.7,5.2-3.7c2-0.9,4.2-1.6,6.7-1.9c0.1,0,0.2,0,0.3,0c0.1,0,0.2,0,0.3,0c0.1,0,0.2,0,0.3,0c0.1,0,0.2,0,0.4,0
		c0.1,0,0.2,0,0.4,0c0.1,0,0.2,0,0.4,0c0.1,0,0.2,0,0.4,0c0.1,0,0.2,0,0.4,0l-0.5-2.2L346,397.9l-0.2-1.1c-0.1,0-0.2,0-0.2,0
		c-0.1,0-0.2,0-0.2,0c-0.1,0-0.2,0-0.2,0c-0.1,0-0.2,0-0.2,0c-0.1,0-0.2,0-0.2,0c-0.1,0-0.2,0-0.2,0c-0.1,0-0.2,0-0.2,0
		c-0.1,0-0.2,0-0.2,0c-1.7,0-3.4-0.1-4.9-0.4c-1.5-0.3-3-0.7-4.2-1.3c-1.2-0.5-2.3-1.2-3.1-2c-0.8-0.7-1.4-1.6-1.6-2.5
		c0,0,0-0.1,0-0.1c0,0,0-0.1,0-0.1c0,0,0-0.1,0-0.1c0,0,0-0.1,0-0.1c0,0,0-0.1,0-0.1c0,0,0-0.1,0-0.1c0,0,0-0.1,0-0.1
		c0,0,0-0.1,0-0.1L328,390l-32.9,2.2l-1.9,0.1c0,0,0,0.1,0,0.1c0,0,0,0.1,0,0.1c0,0,0,0.1,0,0.1
		C293.3,392.7,293.3,392.8,293.3,392.8z M293.8,396.3c0.8-1,1.2-2,1.3-3.1l33-2.2c0.3,1,0.9,2,1.8,2.9c0.9,0.9,2.1,1.6,3.5,2.3
		c1.4,0.6,3.1,1.1,4.9,1.5c1.8,0.3,3.7,0.5,5.7,0.4l23.6,118.7c-2.8,0.3-5.4,1.1-7.7,2.2c-2.3,1.1-4.3,2.5-6,4.2
		c-1.7,1.7-3,3.6-3.8,5.8c-0.9,2.2-1.2,4.5-1.1,7l-50.8,3.6c-0.2-2.5-1-4.7-2.2-6.8c-1.2-2-2.8-3.7-4.7-5.2
		c-1.9-1.4-4.2-2.5-6.6-3.3c-2.5-0.7-5.2-1.1-8-1.1l3.7-120.9c2-0.2,3.9-0.6,5.6-1.2c1.7-0.6,3.3-1.3,4.6-2.1
		C292,398.2,293.1,397.3,293.8,396.3z"/>
</g>
<g>
	<g>
		<path class="st5" d="M371,398.5c4.5,0,8.2-3.7,8.2-8.2v-32.8c0-4.5-3.7-8.2-8.2-8.2H238.5c-4.5,0-8.2,3.7-8.2,8.2v32.8
			c0,4.5,3.7,8.2,8.2,8.2H371z"/>
		<path class="st11" d="M254.3,382.1h106.4c2.3,0,4.3-1.9,4.3-4.2c-0.1-2.3-2-4.2-4.3-4.2H254.3c-2.3,0-4.3,1.9-4.3,4.2
			C250,380.3,251.9,382.1,254.3,382.1z"/>
	</g>
	<g>
		<path class="st6" d="M292.2,513.8c2,1.4,3.7,3.1,4.9,5c1.3,2,2.1,4.2,2.5,6.7l50.6-5.4c-0.3-2.5,0-4.8,0.8-7
			c0.8-2.2,2-4.2,3.6-5.9c1.6-1.7,3.6-3.2,5.8-4.4c2.3-1.2,4.8-2,7.6-2.4l-27.8-117.8c-2,0.1-3.9,0.1-5.7-0.2
			c-1.8-0.3-3.5-0.7-4.9-1.3c-1.4-0.6-2.7-1.3-3.6-2.2c-0.9-0.8-1.6-1.8-1.9-2.8l-32.9,3.3c-0.1,1.1-0.5,2.1-1.2,3.1
			c-0.7,1-1.8,2-3,2.8c-1.3,0.9-2.8,1.6-4.5,2.2c-1.7,0.6-3.6,1.1-5.6,1.4l0.6,120.9c2.8-0.2,5.5,0.1,8,0.8
			C288,511.4,290.3,512.5,292.2,513.8z M282.6,435.4c0-2.3,0.8-4.5,2.3-6.6c1.5-2.1,3.7-4,6.4-5.7c2.7-1.7,5.9-3.1,9.5-4.3
			c3.5-1.1,7.5-2,11.6-2.4c4.1-0.4,8.2-0.4,11.9,0c3.7,0.4,7.2,1.2,10.2,2.2c3,1.1,5.6,2.5,7.6,4.2c2,1.7,3.3,3.7,3.8,6
			c0.5,2.3,0.1,4.5-1.1,6.7c-1.2,2.2-3.2,4.3-5.9,6.2c-2.7,1.9-6,3.6-9.8,4.9c-3.8,1.3-8.1,2.3-12.7,2.8c-4.6,0.5-9,0.4-13.1-0.1
			c-4-0.5-7.7-1.5-10.8-2.8c-3-1.3-5.5-3-7.2-4.9C283.6,439.8,282.7,437.7,282.6,435.4z"/>
		<path class="st5" d="M270.4,538.3c0.4,0.1,0.7,0.1,1.2,0.1l109.6-11.8c0.4,0,0.8-0.2,1.1-0.3c0.3-0.2,0.6-0.4,0.8-0.6
			c0.2-0.3,0.4-0.5,0.4-0.9c0.1-0.3,0.1-0.6,0-1L343.7,371c0-0.1-0.1-0.3-0.2-0.4c-0.1-0.1-0.3-0.2-0.5-0.3
			c-0.2-0.1-0.4-0.1-0.6-0.1c-0.2,0-0.5,0-0.7,0l-68.6,6.9c-0.3,0-0.5,0.1-0.7,0.2c-0.2,0.1-0.4,0.2-0.6,0.3
			c-0.2,0.1-0.3,0.2-0.4,0.4c-0.1,0.1-0.2,0.3-0.2,0.4l-2.6,157.7c0,0.4,0.1,0.7,0.2,1c0.1,0.3,0.4,0.5,0.6,0.7
			C269.7,538,270,538.2,270.4,538.3z M274.7,510.3l0.3-121l0-1.1c0.1,0,0.2,0,0.2,0c0.1,0,0.2,0,0.2,0c0.1,0,0.2,0,0.2,0
			c0.1,0,0.2,0,0.2,0c0.1,0,0.2,0,0.2,0c0.1,0,0.2,0,0.2,0c0.1,0,0.2,0,0.2,0c0.1,0,0.2,0,0.2,0c1.7-0.2,3.3-0.6,4.8-1.2
			c1.5-0.5,2.8-1.2,3.9-1.9c1.1-0.7,2-1.6,2.6-2.4c0.6-0.9,1-1.8,1.1-2.7c0,0,0-0.1,0-0.1c0,0,0-0.1,0-0.1c0,0,0-0.1,0-0.1
			c0,0,0-0.1,0-0.1c0,0,0-0.1,0-0.1c0,0,0-0.1,0-0.1c0,0,0-0.1,0-0.1c0,0,0-0.1,0-0.1l1.9-0.2l32.8-3.3l1.9-0.2c0,0,0,0.1,0,0.1
			c0,0,0,0.1,0,0.1c0,0,0,0.1,0,0.1c0,0,0,0.1,0,0.1c0,0,0,0.1,0,0.1c0,0,0,0.1,0,0.1c0,0,0,0.1,0,0.1c0,0,0,0.1,0,0.1
			c0.3,0.9,0.9,1.7,1.7,2.4c0.8,0.7,1.9,1.3,3.1,1.8c1.3,0.5,2.7,0.9,4.2,1.1c1.6,0.2,3.2,0.3,4.9,0.2c0.1,0,0.2,0,0.2,0
			c0.1,0,0.2,0,0.2,0c0.1,0,0.2,0,0.2,0c0.1,0,0.2,0,0.2,0c0.1,0,0.2,0,0.2,0c0.1,0,0.2,0,0.2,0c0.1,0,0.2,0,0.2,0
			c0.1,0,0.2,0,0.2,0l0.3,1.1l28.7,117.7l0.5,2.2c-0.1,0-0.2,0-0.4,0c-0.1,0-0.2,0-0.4,0c-0.1,0-0.2,0-0.4,0c-0.1,0-0.2,0-0.3,0
			c-0.1,0-0.2,0-0.3,0c-0.1,0-0.2,0-0.3,0c-0.1,0-0.2,0-0.3,0c-0.1,0-0.2,0-0.3,0.1c-2.4,0.4-4.6,1.1-6.6,2.2c-2,1-3.7,2.3-5.1,3.8
			c-1.4,1.5-2.5,3.3-3.1,5.1c-0.7,1.9-0.9,3.9-0.7,6.1c0,0.1,0,0.2,0,0.3c0,0.1,0,0.2,0,0.3c0,0.1,0,0.2,0,0.3c0,0.1,0,0.2,0.1,0.3
			c0,0.1,0,0.2,0.1,0.3c0,0.1,0,0.2,0.1,0.3c0,0.1,0,0.2,0.1,0.3c0,0.1,0.1,0.2,0.1,0.3l-2.9,0.3l-50.9,5.5l-2.9,0.3
			c0-0.1,0-0.2,0-0.3c0-0.1,0-0.2,0-0.3c0-0.1,0-0.2,0-0.3c0-0.1,0-0.2,0-0.3c0-0.1,0-0.2,0-0.3c0-0.1,0-0.2,0-0.3
			c0-0.1,0-0.2,0-0.3c0-0.1,0-0.2,0-0.3c-0.3-2.1-1-4.1-2.1-5.8c-1.1-1.7-2.5-3.2-4.3-4.4c-1.7-1.2-3.7-2.1-5.9-2.7
			c-2.2-0.6-4.5-0.8-7-0.7c-0.1,0-0.2,0-0.3,0c-0.1,0-0.2,0-0.4,0c-0.1,0-0.2,0-0.4,0c-0.1,0-0.2,0-0.4,0c-0.1,0-0.2,0-0.4,0
			c-0.1,0-0.2,0-0.4,0c-0.1,0-0.2,0-0.3,0.1c-0.1,0-0.2,0-0.3,0.1L274.7,510.3z"/>
		<path class="st5" d="M294,445.4c2.9,1.2,6.3,2.1,10,2.5c3.8,0.5,7.9,0.5,12.2,0.1c4.3-0.4,8.3-1.3,11.8-2.6
			c3.5-1.2,6.7-2.7,9.2-4.5c2.5-1.7,4.4-3.7,5.5-5.7c1.1-2,1.5-4.1,1.1-6.2c-0.4-2-1.7-3.9-3.5-5.5c-1.8-1.6-4.2-2.9-7.1-3.9
			c-2.8-1-6-1.7-9.5-2.1c-3.5-0.4-7.2-0.4-11.1,0c-3.9,0.4-7.6,1.2-10.9,2.2c-3.3,1.1-6.3,2.4-8.8,4c-2.5,1.6-4.6,3.3-6,5.2
			c-1.4,1.9-2.2,4-2.1,6.1c0.1,2.1,1,4.1,2.5,5.8C288.9,442.7,291.2,444.2,294,445.4z M288,432.7l5.9-0.6c0-0.6,0.1-1.1,0.1-1.6
			c0.1-0.5,0.2-1,0.4-1.4c0.2-0.4,0.4-0.8,0.6-1.2c0.2-0.4,0.4-0.7,0.7-1l4,0.6c-0.2,0.2-0.4,0.5-0.6,0.8c-0.2,0.3-0.4,0.7-0.6,1.1
			c-0.2,0.4-0.4,0.9-0.5,1.4c-0.1,0.5-0.2,1.1-0.1,1.7c0.1,0.8,0.3,1.4,0.6,1.9c0.3,0.5,0.8,0.9,1.3,1.2c0.5,0.3,1.1,0.5,1.8,0.6
			c0.6,0.1,1.3,0.1,1.9,0c0.8-0.1,1.5-0.2,2.1-0.5c0.6-0.3,1.1-0.6,1.6-1.1c0.5-0.5,1-1,1.4-1.7c0.4-0.7,0.9-1.5,1.4-2.4
			c0.5-1.1,1.1-2,1.7-2.8c0.6-0.8,1.3-1.5,2.2-2.1c0.8-0.6,1.7-1,2.7-1.4c1-0.4,2.2-0.6,3.5-0.7c1.2-0.1,2.4-0.1,3.5,0
			c1.1,0.1,2.2,0.4,3.2,0.8c1,0.4,1.9,1,2.6,1.6c0.8,0.7,1.4,1.5,1.8,2.5l6.3-0.7l0.5,2.5l-6.1,0.6c0.1,0.6,0.1,1.2,0.1,1.7
			c0,0.6-0.1,1.2-0.3,1.7c-0.1,0.6-0.3,1.1-0.6,1.6c-0.2,0.5-0.5,1-0.9,1.4l-4.3-0.6c0.3-0.4,0.6-0.8,0.8-1.3c0.2-0.5,0.5-1,0.6-1.5
			c0.2-0.5,0.3-1,0.3-1.6c0.1-0.5,0-1.1-0.1-1.7c-0.1-0.7-0.4-1.3-0.8-1.9c-0.4-0.5-0.9-1-1.5-1.3c-0.6-0.3-1.3-0.6-2-0.7
			c-0.7-0.1-1.6-0.2-2.4-0.1c-0.8,0.1-1.6,0.3-2.2,0.5c-0.7,0.3-1.2,0.6-1.8,1c-0.5,0.4-1,0.9-1.4,1.5c-0.4,0.6-0.8,1.3-1.2,2.1
			c-0.5,1.1-1,2.1-1.6,2.9c-0.6,0.9-1.3,1.7-2.1,2.3c-0.8,0.7-1.7,1.2-2.7,1.6c-1,0.4-2.2,0.7-3.6,0.8c-1.3,0.1-2.5,0.1-3.6-0.1
			c-1.1-0.2-2.2-0.5-3.1-0.9c-0.9-0.4-1.7-1-2.3-1.7c-0.6-0.7-1.1-1.5-1.4-2.4l-6.1,0.6L288,432.7z"/>
		<path class="st11" d="M292.5,446.6c3.1,1.3,6.7,2.3,10.8,2.8c4.1,0.5,8.5,0.6,13.1,0.1c4.6-0.5,8.9-1.4,12.7-2.8
			c3.8-1.3,7.1-3,9.8-4.9c2.7-1.9,4.7-4,5.9-6.2c1.2-2.2,1.6-4.5,1.1-6.7c-0.5-2.2-1.8-4.2-3.8-6c-2-1.7-4.5-3.1-7.6-4.2
			c-3-1.1-6.5-1.9-10.2-2.2c-3.7-0.4-7.7-0.4-11.9,0c-4.2,0.4-8.1,1.3-11.6,2.4c-3.6,1.1-6.8,2.6-9.5,4.3c-2.7,1.7-4.9,3.6-6.4,5.7
			c-1.5,2.1-2.4,4.3-2.3,6.6c0.1,2.3,1,4.5,2.7,6.3C287,443.6,289.5,445.3,292.5,446.6z M284.7,435.2c-0.1-2.1,0.7-4.1,2.1-6.1
			c1.4-1.9,3.4-3.7,6-5.2c2.5-1.6,5.5-2.9,8.8-4c3.3-1.1,7-1.8,10.9-2.2c3.9-0.4,7.7-0.4,11.1,0c3.5,0.4,6.7,1.1,9.5,2.1
			c2.8,1,5.2,2.3,7.1,3.9c1.8,1.6,3.1,3.4,3.5,5.5c0.4,2.1,0,4.2-1.1,6.2c-1.1,2-3,4-5.5,5.7c-2.5,1.7-5.6,3.3-9.2,4.5
			c-3.6,1.2-7.6,2.1-11.8,2.6c-4.3,0.4-8.4,0.4-12.2-0.1c-3.8-0.5-7.2-1.3-10-2.5c-2.8-1.2-5.1-2.7-6.7-4.4
			C285.7,439.2,284.8,437.3,284.7,435.2z"/>
		<path class="st11" d="M298.5,429.3c0.2-0.4,0.4-0.8,0.6-1.1c0.2-0.3,0.4-0.6,0.6-0.8l-4-0.6c-0.2,0.3-0.5,0.7-0.7,1
			c-0.2,0.4-0.4,0.8-0.6,1.2c-0.2,0.4-0.3,0.9-0.4,1.4c-0.1,0.5-0.1,1-0.1,1.6l-5.9,0.6l0.1,2.5l6.1-0.6c0.3,0.9,0.7,1.7,1.4,2.4
			c0.6,0.7,1.4,1.3,2.3,1.7c0.9,0.4,1.9,0.8,3.1,0.9c1.1,0.2,2.4,0.2,3.6,0.1c1.3-0.1,2.5-0.4,3.6-0.8c1-0.4,1.9-1,2.7-1.6
			c0.8-0.7,1.5-1.5,2.1-2.3c0.6-0.9,1.1-1.9,1.6-2.9c0.4-0.8,0.8-1.5,1.2-2.1c0.4-0.6,0.9-1.1,1.4-1.5c0.5-0.4,1.1-0.8,1.8-1
			c0.7-0.3,1.4-0.4,2.2-0.5c0.9-0.1,1.7-0.1,2.4,0.1c0.7,0.1,1.4,0.4,2,0.7c0.6,0.4,1.1,0.8,1.5,1.3c0.4,0.5,0.6,1.2,0.8,1.9
			c0.1,0.6,0.1,1.1,0.1,1.7c-0.1,0.5-0.2,1.1-0.3,1.6c-0.2,0.5-0.4,1-0.6,1.5c-0.2,0.5-0.5,0.9-0.8,1.3l4.3,0.6
			c0.3-0.4,0.6-0.9,0.9-1.4c0.2-0.5,0.4-1,0.6-1.6c0.1-0.6,0.2-1.1,0.3-1.7c0-0.6,0-1.2-0.1-1.7l6.1-0.6l-0.5-2.5l-6.3,0.7
			c-0.4-1-1-1.8-1.8-2.5c-0.8-0.7-1.6-1.2-2.6-1.6c-1-0.4-2.1-0.7-3.2-0.8c-1.1-0.1-2.3-0.2-3.5,0c-1.3,0.1-2.5,0.4-3.5,0.7
			c-1,0.4-1.9,0.8-2.7,1.4c-0.8,0.6-1.5,1.3-2.2,2.1c-0.6,0.8-1.2,1.8-1.7,2.8c-0.5,0.9-0.9,1.7-1.4,2.4c-0.5,0.7-0.9,1.2-1.4,1.7
			c-0.5,0.5-1,0.8-1.6,1.1c-0.6,0.3-1.3,0.4-2.1,0.5c-0.6,0.1-1.3,0.1-1.9,0c-0.6-0.1-1.2-0.3-1.8-0.6c-0.5-0.3-1-0.7-1.3-1.2
			c-0.3-0.5-0.6-1.1-0.6-1.9c0-0.6,0-1.2,0.1-1.7C298.2,430.2,298.3,429.7,298.5,429.3z"/>
		<path class="st11" d="M289.3,379.2c0,0,0,0.1,0,0.1c0,0,0,0.1,0,0.1c0,0,0,0.1,0,0.1c0,0,0,0.1,0,0.1c-0.1,0.9-0.5,1.8-1.1,2.7
			c-0.6,0.9-1.5,1.7-2.6,2.4c-1.1,0.7-2.4,1.4-3.9,1.9c-1.5,0.5-3.1,0.9-4.8,1.2c-0.1,0-0.2,0-0.2,0c-0.1,0-0.2,0-0.2,0
			c-0.1,0-0.2,0-0.2,0c-0.1,0-0.2,0-0.2,0c-0.1,0-0.2,0-0.2,0c-0.1,0-0.2,0-0.2,0c-0.1,0-0.2,0-0.2,0c-0.1,0-0.2,0-0.2,0l0,1.1
			l-0.3,121l0,2.3c0.1,0,0.2,0,0.3-0.1c0.1,0,0.2,0,0.3-0.1c0.1,0,0.2,0,0.4,0c0.1,0,0.2,0,0.4,0c0.1,0,0.2,0,0.4,0
			c0.1,0,0.2,0,0.4,0c0.1,0,0.2,0,0.4,0c0.1,0,0.2,0,0.3,0c2.5-0.1,4.8,0.1,7,0.7c2.2,0.6,4.1,1.5,5.9,2.7c1.7,1.2,3.2,2.7,4.3,4.4
			c1.1,1.7,1.8,3.7,2.1,5.8c0,0.1,0,0.2,0,0.3c0,0.1,0,0.2,0,0.3c0,0.1,0,0.2,0,0.3c0,0.1,0,0.2,0,0.3c0,0.1,0,0.2,0,0.3
			c0,0.1,0,0.2,0,0.3c0,0.1,0,0.2,0,0.3c0,0.1,0,0.2,0,0.3l2.9-0.3l50.9-5.5l2.9-0.3c0-0.1-0.1-0.2-0.1-0.3c0-0.1,0-0.2-0.1-0.3
			c0-0.1,0-0.2-0.1-0.3c0-0.1,0-0.2-0.1-0.3c0-0.1,0-0.2-0.1-0.3c0-0.1,0-0.2,0-0.3c0-0.1,0-0.2,0-0.3c0-0.1,0-0.2,0-0.3
			c-0.2-2.1,0-4.2,0.7-6.1c0.7-1.9,1.7-3.6,3.1-5.1c1.4-1.5,3.1-2.8,5.1-3.8c2-1,4.2-1.8,6.6-2.2c0.1,0,0.2,0,0.3-0.1
			c0.1,0,0.2,0,0.3,0c0.1,0,0.2,0,0.3,0c0.1,0,0.2,0,0.3,0c0.1,0,0.2,0,0.3,0c0.1,0,0.2,0,0.4,0c0.1,0,0.2,0,0.4,0
			c0.1,0,0.2,0,0.4,0l-0.5-2.2l-28.7-117.7l-0.3-1.1c-0.1,0-0.2,0-0.2,0c-0.1,0-0.2,0-0.2,0c-0.1,0-0.2,0-0.2,0c-0.1,0-0.2,0-0.2,0
			c-0.1,0-0.2,0-0.2,0c-0.1,0-0.2,0-0.2,0c-0.1,0-0.2,0-0.2,0c-0.1,0-0.2,0-0.2,0c-1.7,0.1-3.4,0-4.9-0.2c-1.5-0.2-3-0.6-4.2-1.1
			c-1.2-0.5-2.3-1.1-3.1-1.8c-0.8-0.7-1.4-1.5-1.7-2.4c0,0,0-0.1,0-0.1c0,0,0-0.1,0-0.1c0,0,0-0.1,0-0.1c0,0,0-0.1,0-0.1
			c0,0,0-0.1,0-0.1c0,0,0-0.1,0-0.1c0,0,0-0.1,0-0.1c0,0,0-0.1,0-0.1l-1.9,0.2l-32.8,3.3l-1.9,0.2c0,0,0,0.1,0,0.1c0,0,0,0.1,0,0.1
			c0,0,0,0.1,0,0.1C289.3,379.1,289.3,379.1,289.3,379.2z M290,382.6c0.7-1,1.1-2.1,1.2-3.1l32.9-3.3c0.3,1,1,2,1.9,2.8
			c0.9,0.8,2.2,1.6,3.6,2.2c1.4,0.6,3.1,1,4.9,1.3c1.8,0.3,3.7,0.3,5.7,0.2l27.8,117.8c-2.8,0.4-5.3,1.3-7.6,2.4
			c-2.3,1.2-4.2,2.6-5.8,4.4c-1.6,1.7-2.8,3.7-3.6,5.9c-0.8,2.2-1.1,4.6-0.8,7l-50.6,5.4c-0.3-2.5-1.2-4.7-2.5-6.7
			c-1.3-2-2.9-3.6-4.9-5c-2-1.4-4.3-2.4-6.8-3c-2.5-0.7-5.2-0.9-8-0.8l-0.6-120.9c2-0.3,3.9-0.7,5.6-1.4c1.7-0.6,3.2-1.4,4.5-2.2
			C288.2,384.6,289.3,383.6,290,382.6z"/>
	</g>
</g>
</svg>
