<?xml version="1.0" encoding="utf-8"?>
<!-- Generator: Adobe Illustrator 26.3.1, SVG Export Plug-In . SVG Version: 6.00 Build 0)  -->
<svg version="1.1" id="Layer_1" xmlns="http://www.w3.org/2000/svg" xmlns:xlink="http://www.w3.org/1999/xlink" x="0px" y="0px"
	 viewBox="0 0 595.3 841.9" style="enable-background:new 0 0 595.3 841.9;" xml:space="preserve">
<style type="text/css">
	.st0{fill-rule:evenodd;clip-rule:evenodd;fill:#E5E6E7;}
	.st1{fill-rule:evenodd;clip-rule:evenodd;fill:#1D70B8;}
	.st2{fill-rule:evenodd;clip-rule:evenodd;fill:#FFFFFF;}
	.st3{display:none;}
	.st4{display:inline;}
	.st5{fill:#1D70B8;}
	.st6{fill:#E0B643;}
</style>
<g>
	<path class="st0" d="M311.9,227.3c110.1,0,199.2,89.2,199.2,199.2c0,110.1-89.2,199.6-199.2,199.6c-110.4,0-199.6-89.5-199.6-199.6
		C112.3,316.4,201.5,227.3,311.9,227.3L311.9,227.3z"/>
	<path class="st1" d="M311.9,426.5v199.6c-110.4,0-199.6-89.5-199.6-199.6c0-110.1,89.2-199.2,199.6-199.2
		c110.1,0,199.2,89.2,199.2,199.2H311.9z"/>
	<path class="st2" d="M311.9,271c85.9,0,155.6,69.7,155.6,155.6c0,85.9-69.7,155.6-155.6,155.6c-86.3,0-155.9-69.7-155.9-155.6
		C156,340.6,225.7,271,311.9,271L311.9,271z"/>
</g>
<g class="st3">
	<g class="st4">
		<path class="st5" d="M368.5,405.8c4.6-78.4-69.2-75.8-87.2-56.5c-33.4,1.8-25.7,57.2-25.7,57.2c1.2-5.4,9.4-2.1,13.1-0.7
			c-0.7-9.9,3.7-26.4,3.7-26.4c26.4,19.1,72.3,3,72.3,3c5.6,3.1,11.9,18.6,11.5,25.8C364.4,405.6,368.5,405.8,368.5,405.8z"/>
		<g>
			<path class="st5" d="M346.1,499.8l-16.1,12.9l1.2,2.4h65.6C382.4,509.5,364.5,503.5,346.1,499.8z"/>
			<path class="st5" d="M293.6,512.8l-16-12.8c-18.4,3.7-36.2,9.6-50.8,15.2h65.7L293.6,512.8z"/>
		</g>
		<path class="st6" d="M259,409.7c-1.3,0.1-2.4,0.3-3.2,0.8c-2.8,1.8,2.5,15.3,2.5,18.9c0,2.9,1.2,10,5,7.8
			c1.6,6.5,3.7,13.3,6.6,19.8c8.2,18.6,24,34.7,42.4,34.7c20.5,0,36.1-19.3,44.4-40.2c1.9-4.8,3.4-9.6,4.6-14.4
			c3.9,2.2,5.1-4.8,5.1-7.8c0-3.5,5.3-17.1,2.5-18.9c-0.7-0.5-1.8-0.7-3-0.8c0,0,0,0,0-0.1c-1.8,0.3-4.7,0.8-8.7,2.1l-5.1,1.6
			l0.2-5.3c0.3-5.8-4.6-17.8-8.5-21.5c-5.2,1.6-20.6,5.9-37.5,5.9c-12.6,0-23.3-2.4-31.8-7.1c-1.2,5.5-2.8,14.2-2.4,20.2l0.4,5.7
			c0,0-5-1.8-9-2.2C261.1,408.6,259,409.4,259,409.7z"/>
	</g>
</g>
<g>
	<path class="st5" d="M389.6,383.1c6.6,0,7.5-3,2.1-6.7l-67.2-46c-5.4-3.7-14.3-3.7-19.8-0.1l-68.3,46.1c-5.4,3.7-4.5,6.7,2,6.7
		H389.6z"/>
	<path class="st6" d="M323.3,466.9c2.6,0,4.8-2.2,4.8-4.8v-49.7c0-2.6-2.2-4.8-4.8-4.8h-15.5c-2.6,0-4.8,2.2-4.8,4.8v49.7
		c0,2.6,2.2,4.8,4.8,4.8H323.3z"/>
	<path class="st5" d="M376.4,466.9c2.6,0,4.8-2.2,4.8-4.8v-49.7c0-2.6-2.2-4.8-4.8-4.8h-15.5c-2.6,0-4.8,2.2-4.8,4.8v49.7
		c0,2.6,2.2,4.8,4.8,4.8H376.4z"/>
	<path class="st5" d="M270.3,466.9c2.6,0,4.8-2.2,4.8-4.8v-49.7c0-2.6-2.2-4.8-4.8-4.8h-15.5c-2.6,0-4.8,2.2-4.8,4.8v49.7
		c0,2.6,2.2,4.8,4.8,4.8H270.3z"/>
	<g>
		<path class="st5" d="M328.1,472.8C328.1,472.8,328.1,472.9,328.1,472.8C328.1,472.9,328.1,472.9,328.1,472.8
			C328.1,472.8,328.1,472.8,328.1,472.8z"/>
		<path class="st5" d="M303.1,472.9C303.1,472.9,303.1,473,303.1,472.9C303.1,472.9,303.1,472.8,303.1,472.9
			C303.1,472.8,303.1,472.8,303.1,472.9z"/>
		<path class="st5" d="M356.1,472.9C356.1,472.9,356.1,473,356.1,472.9C356.1,472.9,356.1,472.8,356.1,472.9
			C356.1,472.8,356.1,472.8,356.1,472.9z"/>
		<path class="st5" d="M381.1,472.8C381.1,472.8,381.1,472.9,381.1,472.8C381.1,472.9,381.1,472.9,381.1,472.8
			C381.1,472.8,381.1,472.8,381.1,472.8z"/>
		<path class="st5" d="M250,472.9C250,472.9,250,473,250,472.9C250,472.9,250,472.8,250,472.9C250,472.8,250,472.8,250,472.9z"/>
		<path class="st5" d="M275.1,472.8C275,472.8,275,472.9,275.1,472.8C275.1,472.9,275.1,472.9,275.1,472.8
			C275.1,472.8,275.1,472.8,275.1,472.8z"/>
		<path class="st5" d="M232.1,481.7c0,2.6,2.2,4.8,4.8,4.8h153.7c2.6,0,4.8-2.2,4.8-4.8v-2.8c0-2.6-2.2-4.8-4.8-4.8h-4.8
			c-2.6,0-4.7-0.2-4.7-0.4s-0.4-1.9-1-3.2c-0.6-1.3-5.8-2.3-8.5-2.3h-5.9c-2.6,0-5.8,0.5-7.1,1s-2.4,3.8-2.4,4c0,0.2-2,0.8-4.6,0.8
			h-18.8c-2.6,0-4.7-0.2-4.7-0.4s-0.4-1.9-1-3.2c-0.6-1.3-5.8-2.3-8.5-2.3h-5.9c-2.6,0-5.8,0.5-7.1,1c-1.3,0.6-2.4,3.8-2.4,4
			c0,0.2-2,0.8-4.6,0.8h-18.8c-2.6,0-4.7-0.2-4.7-0.4s-0.4-1.9-1-3.2s-5.8-2.3-8.5-2.3h-5.9c-2.6,0-5.8,0.5-7.1,1
			c-1.3,0.6-2.4,3.8-2.4,4c0,0.2-2,0.8-4.6,0.8h-8.6c-2.6,0-4.8,2.2-4.8,4.8V481.7z"/>
	</g>
	<path class="st5" d="M358.5,404.7c1.3,0.6,4.5,1.1,7.2,1.1h5.9c2.6,0,5.9-0.5,7.2-1.1c1.3-0.6,2.4-4.4,2.4-5.2
		c0-0.8,2.2-1.5,4.8-1.5h4.6c2.6,0,4.8-2.2,4.8-4.8v-2.8c0-2.6-2.2-4.8-4.8-4.8H236.8c-2.6,0-4.8,2.2-4.8,4.8v2.8
		c0,2.6,2.2,4.8,4.8,4.8h8.4c2.6,0,4.8,0.7,4.8,1.5c0,0.8,0.5,2.5,1.1,3.8c0.6,1.3,5.9,2.4,8.5,2.4h5.9c2.6,0,5.9-0.5,7.2-1.1
		c1.3-0.6,2.4-4.4,2.4-5.2c0-0.8,2.2-1.5,4.8-1.5h18.4c2.6,0,4.8,0.7,4.8,1.5c0,0.8,0.5,2.5,1.1,3.8c0.6,1.3,5.9,2.4,8.5,2.4h5.9
		c2.6,0,5.9-0.5,7.2-1.1c1.3-0.6,2.4-4.4,2.4-5.2c0-0.8,2.2-1.5,4.8-1.5h18.4c2.6,0,4.8,0.7,4.8,1.5
		C356.1,400.3,357.2,404.1,358.5,404.7z"/>
	<path class="st5" d="M411.8,493.4c0-2.9-2.4-5.2-5.2-5.2H220.8c-2.9,0-5.2,2.4-5.2,5.2v1.9c0,2.9,2.4,5.2,5.2,5.2h185.8
		c2.9,0,5.2-2.4,5.2-5.2V493.4z"/>
</g>
</svg>
