<?xml version="1.0" encoding="utf-8"?>
<svg viewBox="0 0 166 56" fill="none" xmlns="http://www.w3.org/2000/svg">
  <defs>
    <linearGradient id="paint0_linear_1370_49216" x1="160.624" y1="6.33487" x2="5.44916" y2="55.7875" gradientUnits="userSpaceOnUse">
      <stop stop-color="#F8F8FF"/>
      <stop offset="1" stop-color="white"/>
    </linearGradient>
  </defs>
  <rect x="1.24854" y="1.29688" width="163.54" height="54" rx="12.5" fill="url(#paint0_linear_1370_49216)"/>
  <path d="M49.1281 21.8683H49.9852V23.2969H49.1281V24.2969C49.1281 24.6112 49.0138 24.8826 48.7852 25.1112C48.5566 25.3397 48.2995 25.4397 47.9852 25.4397H45.9852C45.6281 25.4397 45.2995 25.3826 44.9852 25.2397C44.6709 25.1112 44.3852 24.9254 44.1566 24.6969C43.9281 24.4683 43.7424 24.1826 43.6138 23.8683C43.4709 23.554 43.4138 23.2254 43.4138 22.8683V20.2969C43.4138 20.2254 43.4424 20.154 43.4995 20.0969C43.5566 20.0397 43.6138 20.0112 43.6995 20.0112H44.5566C44.6281 20.0112 44.6995 20.0397 44.7566 20.0969C44.8138 20.154 44.8424 20.2254 44.8424 20.2969V22.8683C44.8424 23.1826 44.9424 23.454 45.1709 23.6826C45.3995 23.9112 45.6709 24.0112 45.9852 24.0112H47.6995V18.8683C47.6995 18.7969 47.7281 18.7254 47.7852 18.6683C47.8424 18.6112 47.8995 18.5826 47.9852 18.5826H48.8424C48.9138 18.5826 48.9852 18.6112 49.0424 18.6683C49.0995 18.7254 49.1281 18.7969 49.1281 18.8683V21.8683ZM45.4852 16.9397C45.4852 16.7683 45.5566 16.6112 45.7138 16.4826C45.8566 16.3683 46.0424 16.2969 46.2709 16.2969C46.4852 16.2969 46.6709 16.3683 46.8281 16.4826C46.9709 16.6112 47.0566 16.7683 47.0566 16.9397C47.0566 17.1254 46.9709 17.2826 46.8281 17.3969C46.6709 17.5254 46.4852 17.5826 46.2709 17.5826C46.0424 17.5826 45.8566 17.5254 45.7138 17.3969C45.5566 17.2826 45.4852 17.1254 45.4852 16.9397ZM49.9883 23.2969C49.8597 23.2969 49.7597 23.2683 49.674 23.1826C49.5883 23.0969 49.5597 22.9969 49.5597 22.8683V22.2969C49.5597 22.1826 49.5883 22.0826 49.674 21.9969C49.7597 21.9112 49.8597 21.8683 49.9883 21.8683H50.8454V20.7254C50.8454 20.4254 50.9026 20.154 51.0454 19.9254C51.1883 19.6969 51.374 19.5112 51.6026 19.354C51.8311 19.1969 52.0883 19.0826 52.3883 18.9969C52.674 18.9112 52.9883 18.8683 53.3026 18.8683C53.674 18.8683 54.0597 18.9254 54.4311 19.0397C54.8026 19.154 55.1311 19.3397 55.4169 19.5826V21.9826C55.4169 22.3112 55.3454 22.5969 55.2311 22.8254C55.1026 23.054 54.9311 23.254 54.7311 23.4112C54.5311 23.5683 54.2883 23.6826 54.0311 23.754C53.7597 23.8397 53.4883 23.8683 53.2026 23.8683C52.8311 23.8683 52.4883 23.8254 52.2026 23.7254C51.9169 23.6254 51.6169 23.4826 51.3169 23.2969H49.9883ZM52.274 22.1969C52.4026 22.2826 52.5454 22.354 52.7026 22.3826C52.8597 22.4254 53.0169 22.4397 53.1883 22.4397C53.4026 22.4397 53.5883 22.4112 53.7454 22.3254C53.9026 22.254 53.9883 22.1397 53.9883 21.9826V20.454C53.9026 20.4112 53.7883 20.3683 53.6454 20.3397C53.5026 20.3112 53.3597 20.2969 53.2169 20.2969C52.974 20.2969 52.7597 20.354 52.5597 20.4397C52.3597 20.5397 52.274 20.7112 52.274 20.9397V22.1969ZM64.5675 23.2969H60.2818C59.7675 23.2969 59.3961 23.2112 59.1818 23.0112C58.9532 22.8112 58.8532 22.5683 58.8532 22.254C58.8532 22.0254 58.9104 21.7683 59.0247 21.4826L59.8104 19.4969C59.9104 19.2397 60.0818 19.0112 60.3247 18.8397C60.5532 18.6683 60.8247 18.5826 61.139 18.5826H63.4247C63.4961 18.5826 63.5675 18.6112 63.6247 18.6683C63.6818 18.7254 63.7104 18.7969 63.7104 18.8683V21.8683H64.5675V23.2969ZM62.2818 21.8683V20.0112H61.139L60.4104 21.8683H62.2818ZM64.1398 22.2969C64.1398 22.1826 64.1684 22.0826 64.2541 21.9969C64.3398 21.9112 64.4398 21.8683 64.5684 21.8683H65.9969V18.8683C65.9969 18.7969 66.0255 18.7254 66.0826 18.6683C66.1398 18.6112 66.1969 18.5826 66.2826 18.5826H67.1398C67.2112 18.5826 67.2826 18.6112 67.3398 18.6683C67.3969 18.7254 67.4255 18.7969 67.4255 18.8683V21.8683H68.8541V23.2969H64.5684C64.4398 23.2969 64.3398 23.2683 64.2541 23.1826C64.1684 23.0969 64.1398 22.9969 64.1398 22.8683V22.2969ZM64.5684 24.7969C64.5684 24.6254 64.6398 24.4683 64.7969 24.3397C64.9398 24.2254 65.1255 24.154 65.3541 24.154C65.5684 24.154 65.7541 24.2254 65.9112 24.3397C66.0541 24.4683 66.1398 24.6254 66.1398 24.7969C66.1398 24.9826 66.0541 25.1397 65.9112 25.254C65.7541 25.3826 65.5684 25.4397 65.3541 25.4397C65.1255 25.4397 64.9398 25.3826 64.7969 25.254C64.6398 25.1397 64.5684 24.9826 64.5684 24.7969ZM66.4255 24.7969C66.4255 24.6254 66.4969 24.4683 66.6541 24.3397C66.7969 24.2254 66.9826 24.154 67.2112 24.154C67.4255 24.154 67.6112 24.2254 67.7684 24.3397C67.9112 24.4683 67.9969 24.6254 67.9969 24.7969C67.9969 24.9826 67.9112 25.1397 67.7684 25.254C67.6112 25.3826 67.4255 25.4397 67.2112 25.4397C66.9826 25.4397 66.7969 25.3826 66.6541 25.254C66.4969 25.1397 66.4255 24.9826 66.4255 24.7969ZM68.4269 22.2969C68.4269 22.1826 68.4555 22.0826 68.5412 21.9969C68.6269 21.9112 68.7269 21.8683 68.8555 21.8683H69.7126V15.7254C69.7126 15.654 69.7412 15.5826 69.7983 15.5254C69.8555 15.4683 69.9126 15.4397 69.9983 15.4397H70.8555C70.9269 15.4397 70.9983 15.4683 71.0555 15.5254C71.1126 15.5826 71.1412 15.654 71.1412 15.7254V21.8683H71.9983V23.2969H68.8555C68.7269 23.2969 68.6269 23.2683 68.5412 23.1826C68.4555 23.0969 68.4269 22.9969 68.4269 22.8683V22.2969ZM71.5714 22.2969C71.5714 22.1826 71.6 22.0826 71.6857 21.9969C71.7714 21.9112 71.8714 21.8683 72 21.8683H73.2714C73.0714 21.6683 72.9286 21.4397 72.8429 21.2112C72.7571 20.9826 72.7143 20.7397 72.7143 20.4969C72.7143 20.1826 72.7714 19.8969 72.9 19.6397C73.0143 19.3826 73.1857 19.1683 73.4 18.9969C73.6143 18.8254 73.8714 18.6969 74.1571 18.6112C74.4429 18.5254 74.7429 18.4826 75.0714 18.4826C75.3857 18.4826 75.7 18.5254 76.0429 18.6112C76.3714 18.6969 76.7 18.8254 77.0286 18.9969L76.5 20.1683C76.3143 20.0969 76.1143 20.0254 75.8857 19.954C75.6571 19.8969 75.4429 19.854 75.2143 19.854C75.0857 19.854 74.9571 19.8826 74.8429 19.9112C74.7143 19.9397 74.6 19.9969 74.5 20.0683C74.3857 20.1397 74.3 20.2254 74.2429 20.3254C74.1714 20.4397 74.1429 20.5683 74.1429 20.7112C74.1429 20.854 74.1714 20.9826 74.2286 21.1254C74.2857 21.2683 74.3571 21.3826 74.4714 21.4969C74.5857 21.6112 74.7143 21.6969 74.8857 21.7683C75.0429 21.8397 75.2286 21.8683 75.4429 21.8683H77.2857L77 23.2969H72C71.8714 23.2969 71.7714 23.2683 71.6857 23.1826C71.6 23.0969 71.5714 22.9969 71.5714 22.8683V22.2969ZM86.2863 21.8683H87.1434V23.2969H86.2863V24.2969C86.2863 24.6112 86.172 24.8826 85.9434 25.1112C85.7148 25.3397 85.4577 25.4397 85.1434 25.4397H83.1434C82.7863 25.4397 82.4577 25.3826 82.1434 25.2397C81.8291 25.1112 81.5434 24.9254 81.3148 24.6969C81.0863 24.4683 80.9006 24.1826 80.772 23.8683C80.6291 23.554 80.572 23.2254 80.572 22.8683V21.0112C80.572 20.9397 80.6006 20.8683 80.6577 20.8112C80.7148 20.754 80.772 20.7254 80.8577 20.7254H81.7148C81.7863 20.7254 81.8577 20.754 81.9148 20.8112C81.972 20.8683 82.0006 20.9397 82.0006 21.0112V22.8683C82.0006 23.1826 82.1006 23.454 82.3291 23.6826C82.5577 23.9112 82.8291 24.0112 83.1434 24.0112H84.8577V15.7254C84.8577 15.654 84.8863 15.5826 84.9434 15.5254C85.0006 15.4683 85.0577 15.4397 85.1434 15.4397H86.0006C86.072 15.4397 86.1434 15.4683 86.2006 15.5254C86.2577 15.5826 86.2863 15.654 86.2863 15.7254V21.8683ZM86.7179 22.2969C86.7179 22.1826 86.7465 22.0826 86.8322 21.9969C86.9179 21.9112 87.0179 21.8683 87.1465 21.8683H88.0036V18.8683C88.0036 18.7969 88.0322 18.7254 88.0893 18.6683C88.1465 18.6112 88.2036 18.5826 88.2893 18.5826H89.1465C89.2179 18.5826 89.2893 18.6112 89.3465 18.6683C89.4036 18.7254 89.4322 18.7969 89.4322 18.8683V20.2969L90.9322 19.0112C91.0751 18.8826 91.2465 18.7826 91.4179 18.6969C91.5893 18.6254 91.7751 18.5826 92.0036 18.5826H94.0036C94.3179 18.5826 94.5751 18.6969 94.8036 18.9254C95.0322 19.154 95.1465 19.4112 95.1465 19.7254V21.8683H96.0036V23.2969H87.1465C87.0179 23.2969 86.9179 23.2683 86.8322 23.1826C86.7465 23.0969 86.7179 22.9969 86.7179 22.8683V22.2969ZM89.4322 21.8683H93.7179V20.0112H91.9465L89.4322 21.8683ZM95.5753 22.2969C95.5753 22.1826 95.6039 22.0826 95.6896 21.9969C95.7753 21.9112 95.8753 21.8683 96.0039 21.8683H99.461C99.3753 21.6683 99.2753 21.4254 99.1896 21.154C99.0896 20.8826 98.9753 20.6254 98.861 20.3826C98.7325 20.154 98.5896 19.954 98.4182 19.7826C98.2468 19.6112 98.0325 19.5254 97.7896 19.5254C97.6182 19.5254 97.461 19.5683 97.3182 19.6254C97.161 19.6826 97.0039 19.7683 96.861 19.8683L96.4325 18.8683C96.6896 18.6683 96.961 18.4969 97.2753 18.354C97.5753 18.2254 97.8753 18.154 98.1896 18.154C98.6182 18.154 98.961 18.2826 99.2325 18.5397C99.4896 18.7969 99.7182 19.1254 99.9182 19.4969C100.104 19.8683 100.275 20.2683 100.447 20.6969C100.618 21.1254 100.818 21.5254 101.047 21.8683H101.718V23.2969H96.0039C95.8753 23.2969 95.7753 23.2683 95.6896 23.1826C95.6039 23.0969 95.5753 22.9969 95.5753 22.8683V22.2969ZM104.293 15.4397C104.364 15.4397 104.436 15.4683 104.493 15.5254C104.55 15.5826 104.579 15.654 104.579 15.7254V23.0112C104.579 23.0969 104.55 23.154 104.493 23.2112C104.436 23.2683 104.364 23.2969 104.293 23.2969H103.436C103.35 23.2969 103.293 23.2683 103.236 23.2112C103.179 23.154 103.15 23.0969 103.15 23.0112V15.7254C103.15 15.654 103.179 15.5826 103.236 15.5254C103.293 15.4683 103.35 15.4397 103.436 15.4397H104.293ZM104.464 13.9254C104.407 13.8969 104.35 13.8683 104.279 13.8397C104.207 13.8112 104.136 13.7969 104.079 13.7969C103.993 13.7969 103.936 13.8254 103.879 13.854C103.822 13.8969 103.807 13.9683 103.807 14.054C103.807 14.1397 103.836 14.2112 103.907 14.2683C103.964 14.3397 104.064 14.3683 104.207 14.3683H104.75V15.0112H102.979V14.3683H103.322C103.179 14.254 103.122 14.1112 103.122 13.9254C103.122 13.7112 103.207 13.5397 103.379 13.4112C103.55 13.2969 103.75 13.2254 103.979 13.2254C104.107 13.2254 104.236 13.254 104.379 13.3112C104.522 13.3683 104.636 13.4254 104.736 13.4969L104.464 13.9254Z" style="fill: #176bb4;"/>
  <path d="M51.2167 34.7164C49.0059 34.7164 47.2039 36.3972 47.2039 38.7121C47.2039 41.013 49.0059 42.7079 51.2167 42.7079C53.4285 42.7079 55.2305 41.013 55.2305 38.7121C55.2296 36.3972 53.4276 34.7164 51.2167 34.7164ZM51.2167 41.1352C50.0051 41.1352 48.9608 40.1365 48.9608 38.7131C48.9608 37.2747 50.006 36.291 51.2167 36.291C52.4284 36.291 53.4727 37.2747 53.4727 38.7131C53.4727 40.1355 52.4284 41.1352 51.2167 41.1352ZM42.4616 34.7164C40.2508 34.7164 38.4488 36.3972 38.4488 38.7121C38.4488 41.013 40.2508 42.7079 42.4616 42.7079C44.6734 42.7079 46.4754 41.013 46.4754 38.7121C46.4754 36.3972 44.6734 34.7164 42.4616 34.7164ZM42.4616 41.1352C41.25 41.1352 40.2056 40.1365 40.2056 38.7131C40.2056 37.2747 41.2509 36.291 42.4616 36.291C43.6733 36.291 44.7176 37.2747 44.7176 38.7131C44.7186 40.1355 43.6733 41.1352 42.4616 41.1352ZM32.0484 35.9434V37.6383H36.1073C35.986 38.5919 35.6683 39.2881 35.1833 39.7719C34.5929 40.3619 33.6689 41.013 32.0484 41.013C29.5499 41.013 27.5966 38.9996 27.5966 36.5024C27.5966 34.0052 29.5499 31.9918 32.0484 31.9918C33.3963 31.9918 34.3805 32.5217 35.1071 33.2028L36.3037 32.0068C35.2885 31.0382 33.9415 30.2969 32.0484 30.2969C28.6259 30.2969 25.7485 33.0816 25.7485 36.5024C25.7485 39.9232 28.6259 42.7079 32.0484 42.7079C33.8955 42.7079 35.2895 42.1019 36.3789 40.967C37.4994 39.8471 37.8481 38.2724 37.8481 37.0013C37.8481 36.6086 37.8181 36.245 37.757 35.9424L32.0484 35.9434ZM74.6376 37.2596C74.3049 36.3671 73.2897 34.7164 71.2151 34.7164C69.1556 34.7164 67.4439 36.3361 67.4439 38.7121C67.4439 40.952 69.1406 42.7079 71.4116 42.7079C73.2436 42.7079 74.3039 41.588 74.7439 40.9369L73.3809 40.0284C72.9268 40.6945 72.3055 41.1333 71.4116 41.1333C70.5186 41.1333 69.8822 40.7246 69.4733 39.9222L74.8191 37.7125L74.6376 37.2596ZM69.1857 38.5919C69.1405 37.0473 70.3823 36.2609 71.2762 36.2609C71.9727 36.2609 72.5631 36.6095 72.7605 37.1084L69.1857 38.5919ZM64.8401 42.4665H66.596V30.7215H64.8401V42.4665ZM61.9618 35.6099H61.9016C61.5078 35.1401 60.7502 34.7164 59.797 34.7164C57.7976 34.7164 55.9656 36.4723 55.9656 38.7281C55.9656 40.9679 57.7976 42.7089 59.797 42.7089C60.7511 42.7089 61.5078 42.2851 61.9016 41.8013H61.9618V42.3763C61.9618 43.9049 61.144 44.7222 59.8271 44.7222C58.7517 44.7222 58.0853 43.9509 57.8127 43.2998L56.2833 43.9359C56.7223 44.9947 57.8879 46.2969 59.8271 46.2969C61.8866 46.2969 63.6284 45.0858 63.6284 42.1339V34.9597H61.9628L61.9618 35.6099ZM59.9483 41.1352C58.7367 41.1352 57.7224 40.1205 57.7224 38.7281C57.7224 37.3198 58.7367 36.291 59.9483 36.291C61.144 36.291 62.0831 37.3198 62.0831 38.7281C62.0831 40.1205 61.144 41.1352 59.9483 41.1352ZM82.8663 30.7215H78.6636V42.4665H80.4167V38.0169H82.8654C84.8093 38.0169 86.7213 36.6104 86.7213 34.3697C86.7213 32.1289 84.8103 30.7215 82.8663 30.7215ZM82.9115 36.3821H80.4167V32.3563H82.9115C84.2228 32.3563 84.9672 33.4414 84.9672 34.3697C84.9672 35.2791 84.2228 36.3821 82.9115 36.3821ZM93.7515 34.6957C92.4815 34.6957 91.1665 35.2547 90.6222 36.4939L92.1789 37.1431C92.5116 36.4939 93.132 36.2816 93.7816 36.2816C94.6887 36.2816 95.6108 36.8256 95.6258 37.7924V37.9136C95.3081 37.7322 94.6275 37.4607 93.7966 37.4607C92.1187 37.4607 90.4098 38.3824 90.4098 40.1045C90.4098 41.6763 91.7859 42.6882 93.3275 42.6882C94.5063 42.6882 95.1568 42.1592 95.5647 41.5392H95.6249V42.4458H97.3188V37.9427C97.3197 35.8588 95.7612 34.6957 93.7515 34.6957ZM93.539 41.1323C92.9656 41.1323 92.1638 40.8449 92.1638 40.1346C92.1638 39.2279 93.1621 38.8803 94.0241 38.8803C94.7939 38.8803 95.1577 39.0466 95.6258 39.273C95.4895 40.3619 94.5524 41.1323 93.539 41.1323ZM103.487 34.9522L101.476 40.0444H101.416L99.3294 34.9522H97.44L100.569 42.069L98.7851 46.0282H100.614L105.437 34.9522H103.487ZM87.6894 42.4665H89.4425V30.7215H87.6894V42.4665Z" style="fill: #176bb4;"/>
  <path d="M134.874 23.915L130.61 28.1512L118.087 15.4059C118.414 15.2071 118.788 15.1005 119.171 15.0977C119.553 15.0949 119.929 15.1958 120.258 15.3898L134.874 23.915Z" style="fill:#4353c2;"/>
  <path d="M134.98 32.6135L120.258 41.203C119.859 41.4377 119.393 41.5351 118.933 41.4804C118.473 41.4257 118.044 41.2219 117.711 40.9001L130.609 28.1562L134.98 32.6135Z" style="fill: #176bb4;"/>
  <path d="M139.233 30.1302L135.013 32.5929L134.979 32.6119L130.61 28.1503L134.874 23.9141L134.908 23.9345L139.233 26.4573C139.554 26.6445 139.821 26.9126 140.006 27.2348C140.191 27.5571 140.288 27.9221 140.288 28.2937C140.288 28.6653 140.191 29.0304 140.006 29.3526C139.821 29.6748 139.554 29.9429 139.233 30.1302Z" style="fill: #176bb4;"/>
  <path d="M117.711 40.8954L117.683 40.8691C117.483 40.6725 117.325 40.4378 117.218 40.1789C117.11 39.92 117.056 39.6422 117.058 39.3619V17.2281C117.056 16.8676 117.147 16.5128 117.322 16.1974C117.496 15.8821 117.749 15.6167 118.055 15.4267L118.087 15.4062L130.61 28.1516L117.711 40.8954Z" style="fill: #176bb4;"/>
  <rect x="1.24854" y="1.29688" width="163.54" height="54" rx="12.5" stroke="#4353c2"/>
</svg>