<svg width="606" height="652" viewBox="0 0 606 652" fill="none" xmlns="http://www.w3.org/2000/svg">
<path d="M113.505 457.068L80.6611 410.519L112.827 355.256L148.597 421.574L113.505 457.068Z" stroke="#E5EBF4"/>
<path d="M221.739 496.689L291.269 527.43L236.391 564.478L189.475 533.589L221.739 496.689Z" stroke="#E5EBF4"/>
<mask id="path-3-inside-1_1370_49177" fill="white">
<path d="M153.573 428.836L119.252 466.452C119.252 466.452 157.001 520.919 181.498 529.414L215.811 490.36C214.382 491.806 155.052 436.02 153.573 428.836Z"/>
</mask>
<path d="M119.252 466.452L118.513 465.778L117.976 466.367L118.43 467.022L119.252 466.452ZM181.498 529.414L181.17 530.359L181.805 530.579L182.249 530.074L181.498 529.414ZM215.811 490.36L216.562 491.02L215.1 489.657L215.811 490.36ZM152.834 428.162L118.513 465.778L119.991 467.126L154.312 429.51L152.834 428.162ZM119.252 466.452C118.43 467.022 118.43 467.022 118.43 467.023C118.431 467.023 118.431 467.024 118.432 467.025C118.433 467.026 118.435 467.029 118.437 467.032C118.442 467.039 118.449 467.049 118.458 467.063C118.477 467.09 118.505 467.129 118.541 467.181C118.614 467.286 118.722 467.44 118.864 467.642C119.148 468.045 119.567 468.637 120.109 469.392C121.193 470.903 122.767 473.069 124.732 475.695C128.663 480.945 134.16 488.036 140.427 495.396C146.692 502.753 153.739 510.394 160.768 516.735C167.775 523.057 174.85 528.167 181.17 530.359L181.825 528.469C175.898 526.413 169.067 521.529 162.107 515.25C155.168 508.99 148.185 501.421 141.95 494.099C135.718 486.78 130.247 479.724 126.334 474.496C124.377 471.883 122.811 469.727 121.734 468.226C121.196 467.476 120.78 466.889 120.499 466.49C120.359 466.291 120.252 466.138 120.181 466.036C120.145 465.985 120.118 465.946 120.1 465.921C120.091 465.908 120.085 465.898 120.08 465.892C120.078 465.889 120.076 465.886 120.075 465.885C120.075 465.884 120.074 465.883 120.074 465.883C120.074 465.883 120.074 465.883 119.252 466.452ZM182.249 530.074L216.562 491.02L215.059 489.7L180.747 528.754L182.249 530.074ZM215.1 489.657C215.391 489.363 215.732 489.385 215.8 489.391C215.89 489.4 215.93 489.423 215.891 489.406C215.822 489.378 215.676 489.302 215.434 489.146C214.964 488.843 214.283 488.339 213.409 487.644C211.669 486.26 209.244 484.185 206.355 481.62C200.582 476.492 192.996 469.44 185.405 462.115C177.813 454.789 170.228 447.201 164.452 441.002C161.563 437.9 159.138 435.158 157.394 432.977C156.522 431.885 155.831 430.948 155.341 430.186C154.83 429.391 154.604 428.887 154.552 428.634L152.594 429.037C152.726 429.683 153.137 430.456 153.659 431.267C154.201 432.111 154.938 433.107 155.832 434.226C157.622 436.465 160.086 439.249 162.989 442.365C168.798 448.601 176.412 456.216 184.016 463.554C191.621 470.893 199.228 477.965 205.027 483.115C207.925 485.688 210.381 487.791 212.164 489.209C213.052 489.915 213.795 490.468 214.351 490.827C214.622 491.002 214.891 491.158 215.131 491.256C215.246 491.304 215.413 491.363 215.603 491.382C215.772 491.398 216.186 491.403 216.522 491.063L215.1 489.657Z" fill="#E5EBF4" mask="url(#path-3-inside-1_1370_49177)"/>
<path d="M199.091 609.292L132.431 578.559L185.895 542.938L231.348 570.981L199.091 609.292Z" stroke="#E5EBF4"/>
<path d="M39.3034 475.614L75.8458 425.801L105.694 465.131L69.2592 530.485L39.3034 475.614Z" stroke="#E5EBF4"/>
<path d="M460.674 419.777L495.665 351.629L528.471 407.928L494.739 453.452L460.674 419.777Z" stroke="#E5EBF4"/>
<path d="M421.089 532.248L373.108 563.691L319.218 527.275L388.406 495.729L421.089 532.248Z" stroke="#E5EBF4"/>
<mask id="path-9-inside-2_1370_49177" fill="white">
<path d="M455.786 427.092L490.538 464.311C490.538 464.311 453.436 519.215 430.46 527.977L395.699 489.322C394.262 489.33 452.939 432.87 455.786 427.092Z"/>
</mask>
<path d="M490.538 464.311L491.367 464.87L491.813 464.21L491.269 463.628L490.538 464.311ZM430.46 527.977L429.716 528.646L430.175 529.156L430.816 528.912L430.46 527.977ZM395.699 489.322L396.442 488.653L396.142 488.319L395.693 488.322L395.699 489.322ZM455.055 427.775L489.807 464.993L491.269 463.628L456.517 426.41L455.055 427.775ZM490.538 464.311C489.71 463.751 489.71 463.751 489.71 463.751C489.709 463.751 489.709 463.752 489.708 463.753C489.707 463.754 489.706 463.757 489.704 463.76C489.699 463.766 489.693 463.776 489.684 463.789C489.666 463.815 489.64 463.854 489.605 463.906C489.534 464.009 489.429 464.162 489.291 464.364C489.016 464.766 488.607 465.358 488.079 466.115C487.023 467.628 485.488 469.802 483.573 472.439C479.743 477.712 474.4 484.833 468.342 492.224C462.282 499.618 455.519 507.268 448.851 513.608C442.161 519.97 435.653 524.927 430.103 527.043L430.816 528.912C436.755 526.647 443.501 521.455 450.229 515.057C456.98 508.638 463.801 500.919 469.889 493.492C475.978 486.062 481.346 478.909 485.191 473.614C487.114 470.966 488.657 468.782 489.719 467.259C490.251 466.498 490.662 465.901 490.941 465.495C491.08 465.292 491.186 465.136 491.258 465.031C491.294 464.978 491.321 464.939 491.339 464.912C491.348 464.898 491.355 464.888 491.36 464.881C491.362 464.878 491.364 464.875 491.365 464.873C491.366 464.872 491.366 464.872 491.366 464.871C491.367 464.871 491.367 464.87 490.538 464.311ZM431.203 527.309L396.442 488.653L394.955 489.99L429.716 528.646L431.203 527.309ZM395.693 488.322C395.872 488.321 396.293 488.384 396.54 488.808C396.735 489.143 396.662 489.456 396.648 489.513C396.611 489.668 396.544 489.754 396.577 489.703C396.608 489.655 396.695 489.538 396.868 489.335C397.201 488.942 397.743 488.35 398.477 487.575C399.941 486.03 402.119 483.81 404.79 481.119C410.132 475.738 417.416 468.506 424.843 461.084C432.265 453.666 439.828 446.061 445.714 439.948C448.657 436.892 451.187 434.202 453.073 432.092C454.016 431.037 454.805 430.119 455.406 429.369C455.99 428.64 456.451 428.005 456.683 427.534L454.889 426.65C454.765 426.902 454.434 427.385 453.846 428.118C453.276 428.829 452.513 429.717 451.582 430.759C449.72 432.842 447.21 435.511 444.274 438.561C438.402 444.658 430.851 452.251 423.429 459.669C416.01 467.084 408.716 474.326 403.371 479.71C400.699 482.401 398.507 484.636 397.025 486.199C396.287 486.978 395.713 487.604 395.343 488.041C395.164 488.251 395.004 488.452 394.897 488.618C394.861 488.674 394.752 488.84 394.702 489.049C394.682 489.134 394.609 489.466 394.812 489.815C395.067 490.253 395.503 490.323 395.705 490.322L395.693 488.322Z" fill="#E5EBF4" mask="url(#path-9-inside-2_1370_49177)"/>
<path d="M423.351 541.569L478.625 576.558L412.34 606.632L379.658 570.113L423.351 541.569Z" stroke="#E5EBF4"/>
<path d="M502.645 462.846L533.464 423.135L570.587 472.535L541.258 527.764L502.645 462.846Z" stroke="#E5EBF4"/>
<path d="M496.115 195.917L528.951 241.052L496.793 297.732L461.017 229.999L496.115 195.917Z" stroke="#E5EBF4"/>
<path d="M387.884 154.882L318.349 124.14L373.228 87.0922L420.149 117.982L387.884 154.882Z" stroke="#E5EBF4"/>
<mask id="path-15-inside-3_1370_49177" fill="white">
<path d="M456.045 222.734L490.366 185.118C490.366 185.118 452.634 130.645 429.558 122.148L395.245 161.202C395.237 159.764 453.132 216.99 456.045 222.734Z"/>
</mask>
<path d="M490.366 185.118L491.105 185.792L491.642 185.203L491.188 184.548L490.366 185.118ZM429.558 122.148L429.903 121.209L429.259 120.972L428.807 121.488L429.558 122.148ZM395.245 161.202L394.245 161.207L394.26 163.838L395.996 161.862L395.245 161.202ZM456.784 223.408L491.105 185.792L489.628 184.444L455.307 222.06L456.784 223.408ZM490.366 185.118C491.188 184.548 491.188 184.548 491.188 184.548C491.188 184.547 491.187 184.547 491.186 184.546C491.185 184.544 491.183 184.541 491.181 184.538C491.176 184.531 491.169 184.521 491.16 184.508C491.141 184.481 491.114 184.441 491.078 184.389C491.005 184.285 490.897 184.13 490.755 183.929C490.472 183.526 490.053 182.934 489.513 182.179C488.433 180.669 486.866 178.502 484.912 175.877C481.007 170.627 475.557 163.536 469.382 156.177C463.209 148.82 456.3 141.18 449.475 134.839C442.674 128.52 435.868 123.406 429.903 121.209L429.212 123.086C434.786 125.139 441.35 130.02 448.114 136.304C454.854 142.567 461.705 150.138 467.85 157.462C473.992 164.783 479.418 171.842 483.308 177.071C485.253 179.685 486.813 181.841 487.887 183.342C488.423 184.093 488.838 184.68 489.119 185.079C489.259 185.279 489.366 185.431 489.437 185.534C489.473 185.585 489.5 185.623 489.518 185.649C489.527 185.662 489.533 185.672 489.538 185.678C489.54 185.681 489.542 185.684 489.543 185.685C489.543 185.686 489.544 185.686 489.544 185.687C489.544 185.687 489.544 185.687 490.366 185.118ZM428.807 121.488L394.494 160.542L395.996 161.862L430.309 122.808L428.807 121.488ZM396.245 161.196C396.246 161.389 396.175 161.796 395.765 162.039C395.444 162.229 395.143 162.168 395.083 162.156C394.928 162.124 394.841 162.06 394.892 162.091C394.94 162.12 395.059 162.204 395.267 162.372C395.668 162.694 396.273 163.222 397.064 163.938C398.641 165.367 400.905 167.499 403.639 170.123C409.105 175.37 416.427 182.563 423.842 189.982C431.257 197.401 438.761 205.041 444.59 211.183C447.505 214.254 449.996 216.945 451.846 219.043C452.771 220.093 453.53 220.988 454.1 221.703C454.685 222.44 455.023 222.928 455.153 223.187L456.937 222.282C456.704 221.822 456.247 221.191 455.665 220.458C455.066 219.705 454.282 218.783 453.346 217.721C451.472 215.596 448.962 212.885 446.04 209.806C440.195 203.647 432.678 195.993 425.257 188.568C417.835 181.142 410.502 173.939 405.024 168.68C402.286 166.052 400.006 163.904 398.407 162.456C397.61 161.735 396.97 161.174 396.521 160.814C396.305 160.64 396.099 160.483 395.929 160.38C395.87 160.344 395.701 160.241 395.49 160.198C395.402 160.179 395.08 160.12 394.745 160.318C394.322 160.569 394.244 160.992 394.245 161.207L396.245 161.196Z" fill="#E5EBF4" mask="url(#path-15-inside-3_1370_49177)"/>
<path d="M378.274 80.6001L410.533 43.7067L477.159 73.0151L422.293 108.639L378.274 80.6001Z" stroke="#E5EBF4"/>
<path d="M503.924 186.437L540.359 121.082L570.315 175.954L533.772 225.766L503.924 186.437Z" stroke="#E5EBF4"/>
<path d="M148.941 231.801L113.948 299.942L81.1387 243.637L113.452 198.126L148.941 231.801Z" stroke="#E5EBF4"/>
<path d="M188.533 119.32L235.088 89.3176L290.365 124.309L221.212 155.836L188.533 119.32Z" stroke="#E5EBF4"/>
<mask id="path-21-inside-4_1370_49177" fill="white">
<path d="M153.841 225.913L119.088 188.695C119.088 188.695 156.19 133.791 180.604 125.02L215.365 163.676C213.919 162.247 156.697 218.704 153.841 225.913Z"/>
</mask>
<path d="M119.088 188.695L118.26 188.135L117.814 188.795L118.357 189.378L119.088 188.695ZM180.604 125.02L181.348 124.351L180.899 123.852L180.266 124.079L180.604 125.02ZM215.365 163.676L214.662 164.387L216.109 163.007L215.365 163.676ZM154.572 225.231L119.819 188.013L118.357 189.378L153.11 226.596L154.572 225.231ZM119.088 188.695C119.917 189.255 119.917 189.255 119.917 189.255C119.917 189.254 119.918 189.254 119.918 189.253C119.919 189.251 119.921 189.249 119.923 189.246C119.927 189.239 119.934 189.23 119.943 189.217C119.96 189.191 119.987 189.152 120.022 189.1C120.092 188.997 120.197 188.844 120.335 188.643C120.611 188.241 121.02 187.649 121.549 186.892C122.608 185.378 124.149 183.205 126.074 180.569C129.926 175.296 135.313 168.177 141.46 160.786C147.609 153.393 154.504 145.744 161.371 139.404C168.259 133.046 175.034 128.084 180.942 125.961L180.266 124.079C173.967 126.342 166.95 131.532 160.014 137.935C153.058 144.356 146.101 152.078 139.922 159.507C133.741 166.939 128.327 174.094 124.459 179.389C122.525 182.038 120.976 184.222 119.911 185.746C119.378 186.507 118.966 187.104 118.686 187.51C118.547 187.713 118.44 187.869 118.369 187.974C118.333 188.027 118.306 188.067 118.288 188.094C118.278 188.107 118.272 188.118 118.267 188.124C118.265 188.128 118.263 188.131 118.262 188.132C118.261 188.133 118.26 188.134 118.26 188.134C118.26 188.135 118.26 188.135 119.088 188.695ZM179.861 125.689L214.621 164.344L216.109 163.007L181.348 124.351L179.861 125.689ZM216.068 162.964C215.73 162.63 215.319 162.637 215.146 162.657C214.954 162.678 214.787 162.741 214.673 162.79C214.435 162.892 214.172 163.053 213.908 163.231C213.366 163.596 212.645 164.159 211.784 164.875C210.054 166.314 207.674 168.444 204.864 171.05C199.239 176.266 191.852 183.424 184.425 190.848C176.998 198.272 169.521 205.971 163.72 212.269C160.82 215.417 158.331 218.223 156.474 220.474C155.545 221.599 154.767 222.595 154.172 223.43C153.59 224.247 153.137 224.974 152.911 225.545L154.77 226.282C154.901 225.952 155.23 225.393 155.801 224.591C156.358 223.808 157.104 222.853 158.016 221.747C159.841 219.536 162.302 216.76 165.191 213.624C170.967 207.353 178.423 199.675 185.839 192.262C193.255 184.85 200.623 177.71 206.224 172.517C209.026 169.918 211.375 167.816 213.063 166.413C213.911 165.708 214.57 165.197 215.026 164.889C215.261 164.73 215.402 164.654 215.466 164.626C215.503 164.61 215.461 164.634 215.368 164.644C215.294 164.653 214.955 164.676 214.662 164.387L216.068 162.964Z" fill="#E5EBF4" mask="url(#path-21-inside-4_1370_49177)"/>
<path d="M229.966 81.456L186.279 110.001L131.005 75.0113L197.284 44.9369L229.966 81.456Z" stroke="#E5EBF4"/>
<path d="M68.3526 123.803L105.539 188.734L76.1454 228.405L39.0312 179.016L68.3526 123.803Z" stroke="#E5EBF4"/>
<path d="M339.646 604.737L307.396 648.73L274.627 603.687L308.216 546.966L339.646 604.737Z" stroke="#E5EBF4"/>
<path d="M302.846 108.889L268.539 46.849L303.644 2.80641L336.436 47.8808L302.846 108.889Z" stroke="#E5EBF4"/>
<path d="M45.2727 356.913L2.70083 324.662L47.7524 291.887L104.465 325.471L45.2727 356.913Z" stroke="#E5EBF4"/>
<path d="M500.792 323.201L557.141 288.95L602.54 321.184L556.069 353.969L500.792 323.201Z" stroke="#E5EBF4"/>
</svg>
