<?xml version="1.0" encoding="utf-8"?>
<!-- Generator: Adobe Illustrator 26.3.1, SVG Export Plug-In . SVG Version: 6.00 Build 0)  -->
<svg version="1.1" id="Layer_1" xmlns="http://www.w3.org/2000/svg" xmlns:xlink="http://www.w3.org/1999/xlink" x="0px" y="0px"
	 viewBox="0 0 473.68 94.74" style="enable-background:new 0 0 473.68 94.74;" xml:space="preserve">
<style type="text/css">
	.st0{fill:#FFFFFF;}
</style>
<path id="Alinma_Bank_00000086679146692080174690000001311766326887549834_" class="st0" d="M6.25,50.89l7.85-22.48h5.38l7.86,22.48
	h-4.93l-1.49-4.57H12.5l-1.48,4.57H6.25z M16.72,33.42l-2.93,9.04h5.9L16.72,33.42z M30.1,50.89V28.41h4.32v22.48H30.1z M38.7,28.25
	h4.41v4.06H38.7V28.25z M38.73,50.89V34.25h4.34v16.65H38.73z M47.17,50.89V34.25h4.11v2.48c0.17-0.3,0.36-0.59,0.56-0.84
	c1.08-1.38,2.63-2.07,4.65-2.07c1.74,0,3.1,0.52,4.08,1.56c0.98,1.04,1.48,2.48,1.48,4.32v11.2h-4.34V40.49
	c0-1.02-0.22-1.78-0.66-2.28c-0.44-0.5-1.11-0.75-2.01-0.75c-1.13,0-2.01,0.35-2.62,1.04c-0.61,0.69-0.92,1.69-0.92,3.01v9.39H47.17
	z M66.02,50.89V34.25h4.11v2.69c0.2-0.47,0.44-0.89,0.73-1.27c0.96-1.24,2.35-1.86,4.17-1.86c1.46,0,2.65,0.5,3.58,1.49
	c0.36,0.38,0.64,0.79,0.85,1.25L80,35.67c0.89-1.24,2.19-1.86,3.91-1.86c1.78,0,3.18,0.54,4.18,1.61s1.51,2.56,1.51,4.46v11.02
	h-4.34v-9.77c0-1.24-0.2-2.16-0.6-2.76c-0.4-0.6-1.02-0.9-1.87-0.9c-0.91,0-1.61,0.28-2.08,0.85C80.24,38.89,80,39.7,80,40.75v10.14
	h-4.34V40.4c0-1-0.21-1.73-0.63-2.21c-0.42-0.48-1.07-0.72-1.95-0.72c-0.87,0-1.54,0.28-2,0.85c-0.47,0.57-0.7,1.38-0.7,2.43v10.14
	H66.02z M97.5,51.32c-1.53,0-2.75-0.44-3.68-1.32c-0.93-0.88-1.39-2.04-1.39-3.48c0-1.51,0.42-2.72,1.26-3.64
	c0.84-0.91,2.06-1.49,3.65-1.72l2.86-0.4c0.74-0.11,1.36-0.28,1.86-0.51c0.21-0.11,0.37-0.29,0.49-0.55s0.16-0.54,0.12-0.82
	c-0.06-0.47-0.29-0.83-0.71-1.09c-0.49-0.32-1.19-0.47-2.12-0.47c-0.83,0-1.48,0.2-1.94,0.61c-0.46,0.4-0.71,0.98-0.73,1.73H93
	c0.09-1.94,0.75-3.4,1.97-4.38c1.22-0.97,3.01-1.46,5.36-1.46c2.05,0,3.66,0.44,4.84,1.31c1.18,0.87,1.77,2.07,1.77,3.58v9.3
	c0,0.74,0.06,1.26,0.18,1.56s0.37,0.54,0.74,0.7v0.62h-4.69c-0.2-0.67-0.32-1.32-0.38-1.97l-0.02-0.04
	C101.42,50.5,99.66,51.32,97.5,51.32z M102.71,44.74v-1.9c-0.51,0.28-1.17,0.51-2,0.69l-1.6,0.3c-0.75,0.14-1.33,0.4-1.72,0.78
	c-0.39,0.38-0.59,0.86-0.59,1.45c0,0.67,0.18,1.19,0.53,1.56s0.84,0.56,1.47,0.56c1.4,0,2.51-0.49,3.33-1.48
	c0.16-0.2,0.29-0.49,0.4-0.86C102.65,45.48,102.71,45.11,102.71,44.74z M118.66,50.89V28.41h10.75c2.14,0,3.82,0.5,5.03,1.5
	s1.81,2.4,1.81,4.19c0,1.86-0.68,3.28-2.03,4.25c-0.22,0.16-0.47,0.31-0.75,0.44c0.52,0.2,0.98,0.45,1.39,0.74
	c1.42,0.98,2.14,2.43,2.14,4.32c0,2.3-0.7,4.04-2.11,5.24c-1.41,1.2-3.46,1.79-6.15,1.79H118.66z M123.09,32.28v4.94h5.31
	c1.16,0,2.02-0.22,2.6-0.66c0.57-0.44,0.86-1.1,0.86-1.98c0-0.77-0.3-1.35-0.9-1.73c-0.6-0.38-1.52-0.57-2.74-0.57H123.09z
	 M123.09,41v5.99h5.64c1.2,0,2.11-0.26,2.72-0.79c0.61-0.53,0.91-1.33,0.91-2.41c0-0.94-0.31-1.64-0.93-2.1S129.88,41,128.64,41
	H123.09z M144.6,51.32c-1.53,0-2.75-0.44-3.68-1.32c-0.93-0.88-1.39-2.04-1.39-3.48c0-1.51,0.42-2.72,1.26-3.64
	c0.84-0.91,2.06-1.49,3.65-1.72l2.86-0.4c0.74-0.11,1.36-0.28,1.86-0.51c0.21-0.11,0.37-0.29,0.49-0.55s0.16-0.54,0.12-0.82
	c-0.06-0.47-0.29-0.83-0.71-1.09c-0.49-0.32-1.19-0.47-2.12-0.47c-0.83,0-1.48,0.2-1.94,0.61c-0.46,0.4-0.71,0.98-0.73,1.73h-4.17
	c0.09-1.94,0.75-3.4,1.97-4.38c1.22-0.97,3.01-1.46,5.36-1.46c2.05,0,3.66,0.44,4.84,1.31c1.18,0.87,1.77,2.07,1.77,3.58v9.3
	c0,0.74,0.06,1.26,0.18,1.56s0.37,0.54,0.74,0.7v0.62h-4.69c-0.2-0.67-0.32-1.32-0.38-1.97l-0.02-0.04
	C148.52,50.5,146.76,51.32,144.6,51.32z M149.8,44.74v-1.9c-0.51,0.28-1.17,0.51-2,0.69l-1.6,0.3c-0.75,0.14-1.33,0.4-1.72,0.78
	c-0.39,0.38-0.59,0.86-0.59,1.45c0,0.67,0.18,1.19,0.53,1.56s0.84,0.56,1.47,0.56c1.4,0,2.51-0.49,3.33-1.48
	c0.16-0.2,0.29-0.49,0.4-0.86C149.75,45.48,149.8,45.11,149.8,44.74z M157.86,50.89V34.25h4.11v2.48c0.17-0.3,0.36-0.59,0.56-0.84
	c1.08-1.38,2.63-2.07,4.65-2.07c1.74,0,3.1,0.52,4.08,1.56c0.98,1.04,1.48,2.48,1.48,4.32v11.2h-4.34V40.49
	c0-1.02-0.22-1.78-0.66-2.28c-0.44-0.5-1.11-0.75-2.01-0.75c-1.13,0-2.01,0.35-2.62,1.04c-0.61,0.69-0.92,1.69-0.92,3.01v9.39
	H157.86z M176.87,50.89V28.41h4.32v12.15l5.42-6.31h5.35l-5.94,6.31l6.08,10.34h-5.14L183,43.74l-1.81,1.92v5.24H176.87z"/>
<path id="for_Islamic_Microfinance" class="st0" d="M57.11,68.15v-5.1h3.27v0.88h-2.22v1.3h1.68v0.86h-1.68v2.07H57.11z
	 M61.72,67.67c-0.35-0.36-0.52-0.83-0.52-1.42c0-0.59,0.17-1.07,0.52-1.44c0.34-0.35,0.77-0.53,1.3-0.53c0.53,0,0.96,0.18,1.3,0.53
	c0.35,0.36,0.52,0.84,0.52,1.44c0,0.59-0.17,1.06-0.52,1.42c-0.34,0.35-0.77,0.52-1.3,0.52C62.49,68.19,62.06,68.02,61.72,67.67z
	 M63.63,67.09c0.15-0.19,0.22-0.47,0.22-0.84c0-0.37-0.07-0.65-0.22-0.85c-0.14-0.2-0.35-0.29-0.61-0.29c-0.26,0-0.46,0.1-0.6,0.29
	c-0.15,0.2-0.22,0.48-0.22,0.85c0,0.37,0.07,0.65,0.22,0.84c0.14,0.18,0.34,0.28,0.6,0.28C63.28,67.37,63.48,67.28,63.63,67.09z
	 M67.52,65.19c-0.35,0-0.64,0.1-0.88,0.3v2.65h-0.99v-3.81h0.58c0.19,0,0.32,0.1,0.37,0.3c0.28-0.22,0.57-0.33,0.89-0.33
	c0.07,0,0.18,0.02,0.34,0.06v0.83L67.52,65.19z M71.08,68.15v-5.1h1.06v5.1H71.08z M72.94,67.8v-0.76h0.43
	c0.22,0.21,0.5,0.31,0.84,0.31c0.38,0,0.57-0.12,0.57-0.36c0-0.1-0.04-0.17-0.13-0.22c-0.09-0.05-0.25-0.1-0.48-0.13
	c-0.42-0.07-0.72-0.18-0.91-0.35c-0.22-0.18-0.32-0.46-0.32-0.82c0-0.38,0.13-0.67,0.38-0.87c0.25-0.2,0.59-0.3,1.02-0.3
	c0.46,0,0.86,0.1,1.19,0.3v0.76h-0.42c-0.22-0.17-0.47-0.25-0.75-0.25c-0.34,0-0.51,0.1-0.51,0.3c0,0.09,0.05,0.16,0.14,0.2
	c0.09,0.05,0.25,0.08,0.48,0.12c0.44,0.07,0.76,0.19,0.95,0.36c0.21,0.18,0.31,0.46,0.31,0.83c0,0.39-0.12,0.69-0.36,0.9
	c-0.25,0.23-0.63,0.34-1.13,0.34C73.78,68.18,73.34,68.05,72.94,67.8z M76.55,68.15v-4.99h0.54c0.2,0,0.32,0.04,0.38,0.11
	c0.05,0.07,0.08,0.24,0.08,0.5v4.39H76.55z M81.06,68.15c-0.14,0-0.25-0.02-0.32-0.05c-0.08-0.04-0.14-0.11-0.18-0.2
	c-0.27,0.2-0.59,0.3-0.97,0.3c-0.37,0-0.67-0.1-0.89-0.3c-0.24-0.21-0.35-0.52-0.35-0.91c0-0.4,0.14-0.7,0.42-0.91
	c0.26-0.2,0.63-0.3,1.08-0.3c0.24,0,0.45,0.02,0.62,0.06v-0.27c0-0.3-0.18-0.44-0.55-0.44c-0.35,0-0.65,0.09-0.92,0.28H78.6v-0.75
	c0.48-0.24,0.95-0.36,1.41-0.36c0.48,0,0.84,0.09,1.08,0.28c0.25,0.2,0.38,0.51,0.38,0.94v2.64H81.06z M80.48,67.1v-0.56
	c-0.18-0.03-0.35-0.05-0.5-0.05c-0.43,0-0.65,0.15-0.65,0.46c0,0.31,0.17,0.46,0.5,0.46C80.06,67.42,80.28,67.31,80.48,67.1z
	 M82.86,64.33c0.21,0,0.33,0.1,0.38,0.3c0.38-0.23,0.75-0.35,1.13-0.35c0.39,0,0.67,0.14,0.86,0.42c0.39-0.28,0.81-0.42,1.25-0.42
	c0.68,0,1.03,0.36,1.03,1.08v2.78h-0.99v-2.6c0-0.26-0.11-0.39-0.34-0.39c-0.25,0-0.51,0.09-0.79,0.26v2.72H84.4v-2.6
	c0-0.26-0.11-0.39-0.33-0.39c-0.25,0-0.51,0.09-0.8,0.26v2.72h-0.99v-3.81H82.86z M88.49,63.68c-0.12-0.11-0.17-0.24-0.17-0.38
	c0-0.15,0.06-0.28,0.17-0.39c0.11-0.11,0.24-0.16,0.38-0.16s0.28,0.05,0.39,0.16c0.11,0.11,0.17,0.24,0.17,0.39
	c0,0.15-0.06,0.28-0.17,0.38c-0.11,0.1-0.24,0.16-0.39,0.16S88.6,63.78,88.49,63.68z M88.38,68.15v-3.81h0.54
	c0.2,0,0.32,0.04,0.37,0.12c0.05,0.08,0.08,0.26,0.08,0.56v3.13H88.38z M90.73,67.67c-0.33-0.35-0.49-0.82-0.49-1.42
	c0-0.6,0.18-1.08,0.53-1.44c0.34-0.35,0.79-0.52,1.35-0.52c0.43,0,0.83,0.12,1.21,0.35v0.77h-0.5c-0.21-0.19-0.44-0.29-0.71-0.29
	c-0.26,0-0.47,0.1-0.63,0.29c-0.17,0.2-0.25,0.48-0.25,0.84c0,0.36,0.08,0.64,0.23,0.83c0.15,0.19,0.36,0.28,0.63,0.28
	c0.32,0,0.58-0.11,0.79-0.33h0.47v0.73c-0.39,0.29-0.82,0.44-1.27,0.44C91.51,68.19,91.06,68.02,90.73,67.67z M96.61,63.04h1.3
	l1.17,3.32l1.16-3.32h1.27v5.1h-1.05v-3.22l-1.13,3.22h-0.69l-1.11-3.23v3.23h-0.93V63.04z M102.49,63.68
	c-0.12-0.11-0.17-0.24-0.17-0.38c0-0.15,0.06-0.28,0.17-0.39c0.11-0.11,0.24-0.16,0.38-0.16s0.28,0.05,0.39,0.16
	c0.11,0.11,0.17,0.24,0.17,0.39c0,0.15-0.06,0.28-0.17,0.38c-0.11,0.1-0.24,0.16-0.39,0.16S102.6,63.78,102.49,63.68z M102.39,68.15
	v-3.81h0.54c0.2,0,0.32,0.04,0.37,0.12c0.05,0.08,0.08,0.26,0.08,0.56v3.13H102.39z M104.74,67.67c-0.33-0.35-0.49-0.82-0.49-1.42
	c0-0.6,0.18-1.08,0.53-1.44c0.34-0.35,0.79-0.52,1.35-0.52c0.43,0,0.83,0.12,1.21,0.35v0.77h-0.5c-0.21-0.19-0.44-0.29-0.71-0.29
	c-0.26,0-0.47,0.1-0.63,0.29c-0.17,0.2-0.25,0.48-0.25,0.84c0,0.36,0.08,0.64,0.23,0.83c0.15,0.19,0.36,0.28,0.63,0.28
	c0.32,0,0.58-0.11,0.79-0.33h0.47v0.73c-0.39,0.29-0.82,0.44-1.27,0.44C105.51,68.19,105.06,68.02,104.74,67.67z M110.05,65.19
	c-0.35,0-0.64,0.1-0.88,0.3v2.65h-0.99v-3.81h0.58c0.19,0,0.32,0.1,0.37,0.3c0.28-0.22,0.57-0.33,0.89-0.33
	c0.07,0,0.18,0.02,0.34,0.06v0.83L110.05,65.19z M111.69,67.67c-0.35-0.36-0.52-0.83-0.52-1.42c0-0.59,0.17-1.07,0.52-1.44
	c0.34-0.35,0.77-0.53,1.3-0.53c0.53,0,0.96,0.18,1.3,0.53c0.35,0.36,0.52,0.84,0.52,1.44c0,0.59-0.17,1.06-0.52,1.42
	c-0.34,0.35-0.77,0.52-1.3,0.52C112.46,68.19,112.03,68.02,111.69,67.67z M113.6,67.09c0.15-0.19,0.22-0.47,0.22-0.84
	c0-0.37-0.07-0.65-0.22-0.85c-0.14-0.2-0.35-0.29-0.61-0.29c-0.26,0-0.46,0.1-0.6,0.29c-0.15,0.2-0.22,0.48-0.22,0.85
	c0,0.37,0.07,0.65,0.22,0.84c0.14,0.18,0.34,0.28,0.6,0.28C113.25,67.37,113.45,67.28,113.6,67.09z M115.62,64.33h0.42v-0.14
	c0-0.73,0.37-1.09,1.1-1.09c0.18,0,0.41,0.03,0.67,0.1v0.7h-0.45c-0.12,0-0.2,0.02-0.24,0.06c-0.06,0.05-0.08,0.13-0.08,0.25v0.12
	h0.71v0.79h-0.71v3.03h-0.99v-3.03h-0.42V64.33z M118.79,63.68c-0.12-0.11-0.17-0.24-0.17-0.38c0-0.15,0.06-0.28,0.17-0.39
	c0.11-0.11,0.24-0.16,0.38-0.16s0.28,0.05,0.39,0.16c0.11,0.11,0.17,0.24,0.17,0.39c0,0.15-0.06,0.28-0.17,0.38
	c-0.11,0.1-0.24,0.16-0.39,0.16S118.9,63.78,118.79,63.68z M118.68,68.15v-3.81h0.54c0.2,0,0.32,0.04,0.37,0.12
	c0.05,0.08,0.08,0.26,0.08,0.56v3.13H118.68z M121.12,64.33c0.21,0,0.33,0.11,0.38,0.32c0.35-0.25,0.75-0.37,1.21-0.37
	c0.7,0,1.05,0.37,1.05,1.12v2.74h-0.99v-2.58c0-0.15-0.03-0.26-0.1-0.32c-0.06-0.05-0.15-0.08-0.28-0.08
	c-0.25,0-0.54,0.09-0.87,0.28v2.71h-0.99v-3.81H121.12z M127.27,68.15c-0.14,0-0.25-0.02-0.32-0.05c-0.08-0.04-0.14-0.11-0.18-0.2
	c-0.27,0.2-0.59,0.3-0.97,0.3c-0.37,0-0.67-0.1-0.89-0.3c-0.24-0.21-0.35-0.52-0.35-0.91c0-0.4,0.14-0.7,0.42-0.91
	c0.26-0.2,0.63-0.3,1.08-0.3c0.24,0,0.45,0.02,0.62,0.06v-0.27c0-0.3-0.18-0.44-0.55-0.44c-0.35,0-0.65,0.09-0.92,0.28h-0.41v-0.75
	c0.48-0.24,0.95-0.36,1.41-0.36c0.48,0,0.84,0.09,1.08,0.28c0.25,0.2,0.38,0.51,0.38,0.94v2.64H127.27z M126.7,67.1v-0.56
	c-0.18-0.03-0.35-0.05-0.5-0.05c-0.43,0-0.65,0.15-0.65,0.46c0,0.31,0.17,0.46,0.5,0.46C126.28,67.42,126.49,67.31,126.7,67.1z
	 M129.08,64.33c0.21,0,0.33,0.11,0.38,0.32c0.35-0.25,0.75-0.37,1.21-0.37c0.7,0,1.05,0.37,1.05,1.12v2.74h-0.99v-2.58
	c0-0.15-0.03-0.26-0.1-0.32c-0.06-0.05-0.15-0.08-0.28-0.08c-0.25,0-0.54,0.09-0.87,0.28v2.71h-0.99v-3.81H129.08z M133.01,67.67
	c-0.33-0.35-0.49-0.82-0.49-1.42c0-0.6,0.18-1.08,0.53-1.44c0.34-0.35,0.79-0.52,1.35-0.52c0.43,0,0.83,0.12,1.21,0.35v0.77h-0.5
	c-0.21-0.19-0.44-0.29-0.71-0.29c-0.26,0-0.47,0.1-0.63,0.29c-0.17,0.2-0.25,0.48-0.25,0.84c0,0.36,0.08,0.64,0.23,0.83
	c0.15,0.19,0.36,0.28,0.63,0.28c0.32,0,0.58-0.11,0.79-0.33h0.47v0.73c-0.39,0.29-0.82,0.44-1.27,0.44
	C133.79,68.19,133.34,68.02,133.01,67.67z M137.47,66.52c0.06,0.57,0.36,0.85,0.89,0.85c0.35,0,0.65-0.11,0.92-0.32h0.43v0.71
	c-0.45,0.29-0.93,0.44-1.45,0.44c-0.58,0-1.03-0.18-1.35-0.53c-0.31-0.34-0.47-0.81-0.47-1.42c0-0.6,0.17-1.07,0.5-1.44
	c0.32-0.35,0.73-0.53,1.24-0.53c0.54,0,0.94,0.17,1.19,0.5c0.28,0.36,0.42,0.94,0.42,1.74H137.47z M137.49,65.77h1.35
	c-0.04-0.48-0.25-0.71-0.64-0.71S137.58,65.29,137.49,65.77z"/>
<g id="بنك_الإنماء_00000036964246945279626430000001240182268940278692_">
	<path class="st0" d="M284.65,39.21h-2.69c-0.77,0-1.54,0.18-2.3,0.54c-1.34,0.48-2.42,1.49-3.23,3.02
		c-0.26,0.73-0.38,1.49-0.38,2.26v1.19h-1.22v4.62h10.76v-4.62h-4.83v-1.19c0-0.44,0.22-0.76,0.67-0.94
		c0.17-0.17,0.35-0.25,0.54-0.25h2.69V39.21z"/>
	<polygon class="st0" points="295.24,28.51 290.54,28.51 290.54,50.84 299.66,50.84 299.66,46.22 295.24,46.22 	"/>
	<rect x="298.38" y="46.22" class="st0" width="8.52" height="4.62"/>
	<rect x="299.55" y="46.22" class="st0" width="8.52" height="4.62"/>
	<rect x="306.78" y="46.22" class="st0" width="8.52" height="4.62"/>
	<path class="st0" d="M328.93,46.22h-5.63V41.6c0-0.29,0.04-0.51,0.13-0.66c0.36-0.36,0.77-0.53,1.22-0.53h4.29V46.22z
		 M333.76,35.65h-9.12c-0.85,0-1.66,0.18-2.43,0.54c-0.68,0.23-1.31,0.63-1.89,1.19c-0.53,0.59-0.98,1.25-1.34,1.98
		c-0.26,0.69-0.39,1.44-0.39,2.23v4.62h-4.58v4.62h24.2v-4.62h-4.45V35.65z"/>
	<path class="st0" d="M346.18,35.78h-4.83v10.44h-4.42v4.62h9.25V35.78z M345.83,28.51h-4.16v4.21h4.16V28.51z"/>
	<path class="st0" d="M403.99,33.51h-1.22c-0.32,0-0.67,0.05-1.06,0.16c-0.75,0.36-1.25,0.84-1.51,1.45
		c-0.17,0.38-0.26,0.72-0.26,1.04v0.53h-0.54v2.26h4.99v-2.26h-2.3v-0.53c0-0.12,0.14-0.27,0.42-0.44c0.13-0.04,0.21-0.06,0.26-0.06
		h1.22V33.51z M414.29,28.51h-4.71v17.71H395.6c-0.19,0-0.37-0.09-0.54-0.28c-0.19-0.12-0.37-0.25-0.54-0.38
		c-0.09-0.17-0.13-0.39-0.13-0.66v-9.12h-4.7v9.12c0,0.76,0.18,1.54,0.54,2.36c0.53,1.45,1.56,2.46,3.07,3.05
		c0.77,0.36,1.54,0.53,2.3,0.53h23.24v-4.62h-4.54V28.51z"/>
	<rect x="417.56" y="46.22" class="st0" width="8.52" height="4.62"/>
	<rect x="418.72" y="46.22" class="st0" width="8.52" height="4.62"/>
	<rect x="425.96" y="46.22" class="st0" width="8.52" height="4.62"/>
	<path class="st0" d="M442.6,35.78h-4.83v10.44h-4.58v4.62h13.73v-4.62h-4.32V35.78z M442.25,28.51h-4.16v4.21h4.16V28.51z"/>
	<rect x="445.64" y="46.22" class="st0" width="8.52" height="4.62"/>
	<path class="st0" d="M461.17,53.58h-4.16v4.21h4.16V53.58z M462.13,35.78h-4.83v10.44h-4.42v4.62h9.25V35.78z"/>
	<polygon class="st0" points="367.02,27.88 362.02,27.88 362.02,46.18 357.03,46.18 357.03,50.96 367.02,50.96 	"/>
	<polygon class="st0" points="367.02,27.88 362.02,27.88 362.02,46.18 357.03,46.18 357.03,50.96 367.02,50.96 	"/>
	<path class="st0" d="M354.7,55.34c0-0.19,0.09-0.32,0.26-0.39c0.06-0.02,0.16-0.03,0.3-0.03h1.08v-2.18h-1.08
		c-0.75,0-1.39,0.27-1.94,0.81c-0.55,0.54-0.82,1.14-0.82,1.79v0.55h-0.43v2.18h4.7V55.9h-2.07V55.34z"/>
	<path class="st0" d="M354.7,55.34c0-0.19,0.09-0.32,0.26-0.39c0.06-0.02,0.16-0.03,0.3-0.03h1.08v-2.18h-1.08
		c-0.75,0-1.39,0.27-1.94,0.81c-0.55,0.54-0.82,1.14-0.82,1.79v0.55h-0.43v2.18h4.7V55.9h-2.07V55.34z"/>
	<path class="st0" d="M357.59,46.18V30.61h-4.97v15.56c-0.71,0.01-1.42,0.01-2.13,0.02v4.77l7.73-0.01v-4.78H357.59z"/>
	<path class="st0" d="M357.59,46.18V30.61h-4.97v15.56c-0.71,0.01-1.42,0.01-2.13,0.02v4.77l7.73-0.01v-4.78H357.59z"/>
	<rect x="371.46" y="27.89" class="st0" width="4.84" height="23.07"/>
	<rect x="371.46" y="27.89" class="st0" width="4.84" height="23.07"/>
	<path class="st0" d="M284.65,43.83h-2.69c-0.19,0-0.37,0.08-0.54,0.25c-0.45,0.19-0.67,0.5-0.67,0.94v1.2h4.83v4.62h-10.75v-4.62
		h1.22v-1.2c0-0.78,0.13-1.53,0.38-2.26c0.81-1.53,1.89-2.54,3.23-3.02c0.77-0.36,1.54-0.53,2.3-0.53h2.69V43.83z M295.24,46.22
		h4.42v4.62h-9.12V28.51h4.71V46.22z M306.87,50.84h-8.51v-4.62h8.51V50.84z M308.04,50.84h-8.51v-4.62h8.51V50.84z M315.29,50.84
		h-8.51v-4.62h8.51V50.84z M333.78,46.22h4.45v4.62h-24.2v-4.62h4.58V41.6c0-0.8,0.13-1.54,0.38-2.23c0.36-0.73,0.81-1.39,1.34-1.98
		c0.58-0.57,1.21-0.96,1.89-1.2c0.77-0.36,1.58-0.53,2.43-0.53h9.12V46.22z M328.94,40.4h-4.29c-0.45,0-0.85,0.18-1.22,0.53
		c-0.09,0.15-0.13,0.37-0.13,0.66v4.62h5.63V40.4z M346.18,50.84h-9.25v-4.62h4.42V35.78h4.83V50.84z M345.83,32.73h-4.16v-4.21
		h4.16V32.73z M414.29,46.22h4.55v4.62h-23.24c-0.77,0-1.54-0.18-2.3-0.53c-1.52-0.59-2.54-1.6-3.07-3.05
		c-0.36-0.82-0.54-1.6-0.54-2.36v-9.12h4.71v9.12c0,0.27,0.04,0.49,0.13,0.66c0.17,0.13,0.35,0.25,0.54,0.38
		c0.17,0.19,0.35,0.28,0.54,0.28h13.99V28.51h4.71V46.22z M403.98,35.65h-1.22c-0.04,0-0.13,0.02-0.26,0.06
		c-0.28,0.17-0.42,0.31-0.42,0.44v0.53h2.3v2.26h-4.99v-2.26h0.54v-0.53c0-0.31,0.09-0.66,0.26-1.04c0.26-0.61,0.76-1.09,1.5-1.45
		c0.38-0.1,0.74-0.16,1.06-0.16h1.22V35.65z M426.08,50.84h-8.51v-4.62h8.51V50.84z M427.25,50.84h-8.51v-4.62h8.51V50.84z
		 M434.5,50.84h-8.51v-4.62h8.51V50.84z M442.64,46.22h4.32v4.62h-13.73v-4.62h4.58V35.78h4.83V46.22z M442.29,32.73h-4.16v-4.21
		h4.16V32.73z M454.18,50.84h-8.51v-4.62h8.51V50.84z M462.17,50.84h-9.25v-4.62h4.42V35.78h4.83V50.84z M461.21,57.79h-4.16v-4.21
		h4.16V57.79z"/>
</g>
<path id="للتمويل_الصغير_والأصغر_00000122692719531230020490000003498999463180633780_" class="st0" d="
	M332.11,66.41c0.27,0.24,0.52,0.47,0.81,0.71h1.26v0.86h-0.24l0.14,0.13c-0.64,0.92-1.66,1.28-2.73,1.28c-1.36,0-2.85-0.58-3.69-1.3
	l0.04-1.17c0.69,0.8,2.34,1.56,3.75,1.56c0.52,0,1.02-0.1,1.42-0.32c-0.16-0.13-0.4-0.32-0.59-0.48l-0.35-0.28L332.11,66.41z
	 M330.85,70.42c0,0.14-0.05,0.26-0.15,0.37c-0.1,0.1-0.24,0.15-0.37,0.15c-0.14,0-0.27-0.05-0.37-0.15
	c-0.11-0.11-0.15-0.24-0.15-0.36c0-0.13,0.05-0.27,0.16-0.37c0.1-0.11,0.24-0.16,0.37-0.16c0.13,0,0.26,0.05,0.36,0.15
	C330.8,70.16,330.85,70.29,330.85,70.42z M332.04,70.43c0,0.13-0.06,0.26-0.16,0.37c-0.11,0.1-0.23,0.15-0.36,0.15
	c-0.14,0-0.26-0.05-0.37-0.16c-0.1-0.1-0.15-0.24-0.15-0.36c0-0.13,0.05-0.26,0.15-0.36c0.11-0.11,0.25-0.16,0.37-0.16
	c0.14,0,0.26,0.05,0.36,0.15C331.99,70.17,332.04,70.29,332.04,70.43z M334.48,67.11c0.43,0,0.49-0.61,0.71-1.24
	c0.27-0.74,0.66-1.63,1.65-1.63c1,0.01,1.65,1.06,1.65,2.26c0,0.31-0.03,0.59-0.11,0.86l-0.74,0.68l-2.44-0.48
	c-0.13,0.22-0.41,0.41-0.66,0.41h-0.49v-0.86H334.48z M337.59,67.01c0.04-0.17,0.06-0.31,0.06-0.46c0-0.8-0.41-1.48-0.88-1.48
	c-0.34,0-0.77,0.5-1.07,1.6L337.59,67.01z M342.78,62.89v4.22h0.44v0.86h-3.1c-0.08,0-0.17,0-0.27-0.01
	c-0.17-0.01-0.4-0.04-0.66-0.11l0.1-0.95c0.22,0.1,0.47,0.18,0.73,0.2v-3.41l0.86-0.08v3.49h1.01v-4.15L342.78,62.89z M344.79,67.97
	h-1.71v-0.86h1.71V67.97z M345.19,67.97h-1.71v-0.86h1.71V67.97z M345.84,67.11v-2.39l0.89-0.08v2.46h0.77v-2.52l0.89-0.08v2.6h0.79
	v-2.65l0.89-0.09v2.96l-0.66,0.64h-4.35v-0.86H345.84z M354.37,62.89v4.45l-0.66,0.64h-2.01c-0.08,0-0.18,0-0.27-0.01
	c-0.17-0.01-0.4-0.04-0.65-0.11l0.08-0.95c0.22,0.09,0.48,0.18,0.75,0.19v-3.42l0.88-0.02v3.44h0.98v-4.15L354.37,62.89z
	 M352.82,70.5h-1.82l0.09-0.65h0.31c-0.31-0.7,0.71-1.17,1.29-1.24l0.01,0.65c-0.11,0.02-0.22,0.05-0.32,0.08
	c-0.18,0.06-0.38,0.15-0.48,0.29c0.08,0.1,0.21,0.19,0.47,0.22h0.46V70.5z M355.35,62.94l0.89-0.07v5.11h-0.89V62.94z M361.59,64.37
	v2.74h0.43v0.86h-0.43v0.02c0,0.55-0.19,1.58-1.77,1.68l-0.71-0.85c0.12,0,1.62,0,1.62-0.84v-3.52L361.59,64.37z M363.58,67.97
	h-1.71v-0.86h1.71V67.97z M363.99,67.97h-1.71v-0.86h1.71V67.97z M365.56,67.97h-1.71v-0.86h1.71V67.97z M365.42,67.11h1.43
	c0.19,0,0.48,0.02,0.68,0.05c0.09-0.49-0.2-0.78-0.6-1h0c-0.43-0.2-0.87-0.27-0.87-0.27l-0.17-0.71c0.01-0.01,1-0.77,2.29-0.77
	c0.62,0,1.38,0.19,2.22,0.75l-0.24,0.72c-0.44-0.06-1.53,0.68-1.34,1.27c0.2-0.03,0.47-0.03,0.69-0.03h1.35v0.86h-1.38
	c-0.33-0.01-0.66,0.16-0.67,0.16l-0.46-0.15c-0.07-0.12-0.12-0.2-0.16-0.3c-0.03,0.08-0.08,0.17-0.12,0.26l-0.46,0.19
	c-0.07-0.02-0.56-0.16-1.59-0.16h-0.61V67.11z M367.29,65.39c0.41,0.22,0.74,0.52,0.92,0.94c0.16-0.37,0.45-0.73,0.76-0.96
	c-0.29-0.08-0.56-0.11-0.81-0.11C367.82,65.26,367.54,65.31,367.29,65.39z M368.69,63.46c0,0.27-0.22,0.51-0.51,0.51
	c-0.29,0-0.5-0.24-0.5-0.51c0-0.27,0.21-0.51,0.5-0.51C368.47,62.95,368.69,63.19,368.69,63.46z M372.43,67.97h-1.71v-0.86h1.71
	V67.97z M372.28,67.97v-0.86h0.46v-2.65l0.88-0.09v0.94c0.55-0.63,1.24-0.93,1.88-0.93c1.45,0,2.35,1.33,2.35,2.69
	c0,0.07,0,0.16-0.01,0.27l-0.65,0.63H372.28z M373.62,67.11h3.33c-0.06-1.27-0.75-1.8-1.49-1.8
	C374.61,65.31,373.7,65.99,373.62,67.11z M382.16,62.89v4.45l-0.66,0.64h-2.01c-0.08,0-0.18,0-0.27-0.01
	c-0.17-0.01-0.4-0.04-0.65-0.11l0.08-0.95c0.22,0.09,0.48,0.18,0.75,0.19v-3.42l0.88-0.02v3.44h0.98v-4.15L382.16,62.89z
	 M380.66,63.22h-1.82l0.09-0.65h0.31c-0.29-0.7,0.7-1.17,1.29-1.24l0.01,0.65c-0.11,0.02-0.22,0.05-0.32,0.08
	c-0.18,0.06-0.38,0.15-0.48,0.29c0.08,0.1,0.21,0.19,0.47,0.22h0.46V63.22z M383.14,62.94l0.89-0.07v5.11h-0.89V62.94z
	 M391.69,62.87v4.24h0.44v0.86h-0.44v0.81l-0.65,0.64h-2.54c-0.67,0-1.01-0.36-1.16-0.72c-0.09-0.21-0.15-0.45-0.16-0.72v-1.48
	l0.87-0.09v1.58c0,0.28,0.12,0.43,0.25,0.5c0.07,0.04,0.15,0.07,0.25,0.07h2.27v-5.61L391.69,62.87z M391.99,67.97v-0.86h1.68v-2.65
	l0.89-0.09v2.96l-0.66,0.64H391.99z M393.48,69.16c0,0.14-0.05,0.26-0.15,0.37c-0.1,0.1-0.24,0.15-0.37,0.15
	c-0.14,0-0.27-0.05-0.37-0.15c-0.11-0.11-0.15-0.24-0.15-0.36c0-0.13,0.05-0.27,0.16-0.37c0.1-0.11,0.24-0.16,0.37-0.16
	c0.13,0,0.26,0.05,0.36,0.15C393.43,68.89,393.48,69.02,393.48,69.16z M394.68,69.16c0,0.13-0.06,0.26-0.16,0.37
	c-0.11,0.1-0.23,0.15-0.36,0.15c-0.14,0-0.26-0.05-0.37-0.16c-0.1-0.1-0.15-0.24-0.15-0.36c0-0.13,0.05-0.26,0.15-0.36
	c0.11-0.11,0.25-0.16,0.37-0.16c0.14,0,0.26,0.05,0.36,0.15C394.62,68.9,394.68,69.02,394.68,69.16z M398.22,67.99
	c0,0.55-0.18,1.58-1.78,1.68l-0.71-0.85c0.12,0,1.62,0,1.62-0.84v-0.17l-0.26,0.11c-0.05,0.02-0.09,0.04-0.13,0.06
	c-0.88-0.1-1.58-0.78-1.58-1.65c0-1.11,0.95-1.98,2.1-1.98c0.18,0,0.48,0.05,0.72,0.13l0.01,2.63h0.44v0.86h-0.44V67.99z
	 M397.35,65.17c-0.66-0.01-1.05,0.56-1.05,1.1c0,0.46,0.29,0.88,0.94,0.88c0.05,0,0.04,0.01,0.11,0V65.17z M403.81,67.11v0.86h-2.07
	l-2.08-0.41c-0.13,0.23-0.4,0.41-0.67,0.41h-0.48v-0.86h0.44c0.43,0,0.49-0.61,0.71-1.24c0.26-0.74,0.66-1.64,1.65-1.63
	c1,0.01,1.65,1.06,1.65,2.26c0,0.21-0.02,0.39-0.06,0.6H403.81z M402.06,67.01c0.04-0.17,0.06-0.31,0.06-0.46
	c0-0.8-0.41-1.48-0.88-1.48c-0.34,0-0.77,0.5-1.07,1.6L402.06,67.01z M403.67,67.97v-0.86h0.96v-2.65l0.89-0.09v2.74h0.97v0.86
	H403.67z M404.99,63.3c0,0.28-0.22,0.52-0.53,0.52c-0.29,0-0.52-0.24-0.52-0.52c0-0.28,0.23-0.53,0.52-0.53
	C404.77,62.77,404.99,63.01,404.99,63.3z M406.24,63.31c0,0.28-0.22,0.53-0.52,0.53s-0.52-0.25-0.52-0.53
	c0-0.28,0.22-0.52,0.52-0.52S406.24,63.03,406.24,63.31z M408.5,67.97v-0.86h0.95v-4.17l0.89-0.07v4.47l-0.66,0.64H408.5z
	 M408.64,67.97v-0.86h-0.43v-4.24l-0.88,0.07v4.17h-0.97v0.86H408.64z"/>
<path class="st0" d="M243.29,32.92L243.29,32.92c-0.01-0.01-0.01-0.02-0.02-0.02l-0.62-0.62l-0.36-0.36l-0.26-0.26
	c-0.22-0.22-0.58-0.22-0.8,0l-0.26,0.26l-0.36,0.36L240,32.9c-0.01,0-0.01,0.01-0.02,0.02l-0.01,0.01c-0.2,0.22-0.19,0.55,0.01,0.76
	c0,0.01,0.01,0.01,0.02,0.02l1.23,1.23c0,0.01,0.01,0.01,0.01,0.01l0.38,0.38l0.38-0.38c0.01,0,0.01-0.01,0.02-0.01l1.23-1.23
	c0,0,0.01-0.01,0.01-0.02C243.48,33.47,243.48,33.13,243.29,32.92"/>
<path class="st0" d="M238.79,37.48L238.79,37.48c-0.01-0.01-0.02-0.02-0.02-0.02l-0.62-0.62l-0.36-0.36l-0.26-0.26
	c-0.22-0.22-0.58-0.22-0.8,0l-0.26,0.26l-0.36,0.36l-0.62,0.62c0,0-0.01,0.01-0.01,0.02l-0.01,0.01c-0.2,0.22-0.19,0.55,0.01,0.76
	c0,0,0.01,0.01,0.01,0.02l1.23,1.23c0.01,0.01,0.01,0.01,0.02,0.01l0.38,0.38l0.38-0.38c0.01,0,0.01-0.01,0.02-0.01l1.23-1.23
	c0-0.01,0.01-0.01,0.01-0.02C238.98,38.03,238.98,37.7,238.79,37.48"/>
<path class="st0" d="M234.28,41.96L234.28,41.96c-0.01-0.01-0.02-0.02-0.02-0.02l-0.62-0.62l-0.36-0.36l-0.26-0.26
	c-0.22-0.22-0.58-0.22-0.8,0l-0.26,0.26l-0.36,0.36L231,41.94c-0.01,0-0.01,0.01-0.02,0.02l0,0.01c-0.2,0.22-0.19,0.55,0,0.76
	c0.01,0,0.01,0.01,0.02,0.02l1.23,1.23c0.01,0.01,0.01,0.01,0.02,0.01l0.38,0.38l0.38-0.38c0.01,0,0.01-0.01,0.01-0.01l1.24-1.23
	c0-0.01,0.01-0.01,0.01-0.02C234.48,42.51,234.48,42.18,234.28,41.96"/>
<path class="st0" d="M229.88,46.31L229.88,46.31c-0.01-0.01-0.02-0.02-0.02-0.02l-0.62-0.62l-0.36-0.36l-0.26-0.26
	c-0.22-0.22-0.58-0.22-0.8,0l-0.26,0.26l-0.36,0.36l-0.62,0.62c0,0-0.01,0.01-0.01,0.02l0,0.01c-0.2,0.22-0.19,0.55,0,0.76
	c0.01,0,0.01,0.01,0.01,0.02l1.23,1.23c0.01,0,0.01,0.01,0.02,0.01l0.38,0.38l0.38-0.38c0.01,0,0.01-0.01,0.02-0.01l1.23-1.23
	c0-0.01,0.01-0.01,0.01-0.02C230.08,46.85,230.08,46.52,229.88,46.31"/>
<path class="st0" d="M225.48,50.81L225.48,50.81c-0.01-0.01-0.01-0.02-0.02-0.02l-0.62-0.62l-0.36-0.36l-0.26-0.26
	c-0.22-0.22-0.58-0.22-0.8,0l-0.26,0.26l-0.36,0.36l-0.62,0.62c-0.01,0-0.01,0.01-0.01,0.02l-0.01,0.01
	c-0.19,0.22-0.19,0.55,0.01,0.76c0,0,0.01,0.01,0.01,0.02l1.23,1.23c0.01,0.01,0.01,0.01,0.02,0.01l0.38,0.38l0.38-0.38
	c0.01,0,0.01-0.01,0.02-0.01l1.23-1.23l0.01-0.02C225.67,51.36,225.68,51.03,225.48,50.81"/>
<path class="st0" d="M221.11,55.18L221.11,55.18c-0.01-0.01-0.02-0.02-0.02-0.02l-0.62-0.62l-0.36-0.36l-0.26-0.26
	c-0.22-0.22-0.58-0.22-0.8,0l-0.26,0.26l-0.36,0.36l-0.62,0.62c-0.01,0-0.01,0.01-0.01,0.02l-0.01,0.01
	c-0.2,0.22-0.19,0.55,0.01,0.76c0,0,0.01,0.01,0.01,0.02l1.23,1.23c0,0.01,0.01,0.01,0.02,0.01l0.38,0.38l0.38-0.38
	c0.01,0,0.01-0.01,0.02-0.01l1.23-1.23c0-0.01,0.01-0.01,0.01-0.02C221.31,55.73,221.31,55.4,221.11,55.18"/>
<path class="st0" d="M262.82,41.16l-11.11-11.11h-9.57l13.2,13.2l0.07,0.07c2.6,2.88,2.58,7.29-0.07,10.14l-11.91,11.91V34.13h-0.02
	c-0.02,0.1-0.06,0.19-0.13,0.27c0,0.01-0.01,0.01-0.01,0.02l-1.23,1.23l-0.02,0.01l-0.38,0.38l-0.38-0.38
	c-0.01-0.01-0.01-0.01-0.02-0.01L240,34.41c-0.01,0-0.01-0.01-0.02-0.02c-0.07-0.08-0.11-0.17-0.13-0.27h-0.02v34.84l0,0l-0.9,0.9
	V38.69h-0.02c-0.02,0.1-0.06,0.19-0.13,0.27c0,0.01-0.01,0.01-0.01,0.02l-1.23,1.23c-0.01,0-0.01,0.01-0.02,0.01l-0.38,0.38
	l-0.38-0.38c-0.01,0-0.01-0.01-0.02-0.01l-1.23-1.23c0,0-0.01-0.01-0.01-0.02c-0.07-0.08-0.11-0.17-0.13-0.27h-0.02v34.78l-0.9,0.9
	l0,0v-31.2h-0.02c-0.02,0.1-0.06,0.19-0.13,0.27c0,0.01-0.01,0.01-0.01,0.02l-1.23,1.23c0,0-0.01,0.01-0.02,0.01l-0.38,0.38
	l-0.38-0.38l-0.02-0.01L231,43.46c-0.01,0-0.01-0.01-0.02-0.02c-0.07-0.08-0.11-0.17-0.13-0.27h-0.02v29.66l-0.8-0.81V47.52H230
	c-0.02,0.1-0.06,0.19-0.13,0.27c0,0-0.01,0.01-0.01,0.01l-1.24,1.24c0,0-0.01,0.01-0.01,0.01l-0.39,0.38l-0.38-0.38
	c-0.01,0-0.01-0.01-0.01-0.01l-1.24-1.24c-0.01,0-0.01-0.01-0.01-0.01c-0.07-0.08-0.11-0.17-0.13-0.27h-0.03v20.91l-0.8-0.8v-15.6
	h-0.02c-0.02,0.1-0.06,0.19-0.13,0.26c0,0.01-0.01,0.01-0.01,0.02l-1.23,1.24c0,0-0.01,0.01-0.01,0.01l-0.39,0.38l-0.38-0.38
	c-0.01-0.01-0.01-0.01-0.02-0.01l-1.23-1.24c-0.01-0.01-0.01-0.01-0.02-0.02c-0.07-0.07-0.11-0.17-0.13-0.26h-0.02v12l-0.77-0.77
	v-6.87h-0.02c-0.02,0.1-0.06,0.19-0.13,0.27c0,0-0.01,0.01-0.01,0.01l-1.23,1.24c-0.01,0-0.01,0.01-0.02,0.01l-0.38,0.38l-0.39-0.38
	c0,0-0.01-0.01-0.01-0.01l-1.23-1.24l-0.01-0.01c-0.07-0.08-0.11-0.17-0.13-0.27h-0.02v3.27l-6.2-6.2
	c-2.65-2.86-2.67-7.26-0.07-10.14l0.07-0.07l13.2-13.2h-9.57l-11.11,11.11c-3.97,3.97-3.97,10.42,0,14.39l13.68,13.68l3.6,3.6
	l0.77,0.77l4.4,4.4l1.8,1.8l1.8,1.8l3.38,3.38l29.42-29.42C266.8,51.58,266.8,45.13,262.82,41.16"/>
<polygon class="st0" points="228.26,26.45 233.4,21.31 238.54,26.45 248.11,26.45 233.4,11.74 218.69,26.45 "/>
</svg>
