<svg width="736" height="432" viewBox="0 0 736 432" fill="none" xmlns="http://www.w3.org/2000/svg">
<g clip-path="url(#clip0_1370_110005)">
<path d="M577.797 0.996094L578.197 1.99609L561.297 26.9961L550.797 53.7961L546.997 73.1961L541.197 91.5961L533.597 108.596L525.597 120.596L500.797 141.096L496.097 146.796L491.097 150.196L480.297 154.796L477.697 156.396L476.197 157.596L474.897 159.296L473.797 161.796L473.897 163.196L474.597 164.596L475.097 166.896L470.297 185.496L470.197 187.896L471.097 189.096L471.997 189.996L473.397 190.696L474.097 192.396L474.397 194.596L471.997 201.196L470.997 202.996L469.997 204.196L469.497 206.496V208.096L468.897 209.896L468.997 211.596L469.197 213.096V214.296L468.597 215.596L468.097 217.196L467.597 219.796L468.097 221.996L469.197 223.396L471.097 223.996L472.897 224.196L475.497 224.896L476.097 225.596L476.497 226.796L476.197 229.396L475.497 230.396L474.497 231.196L473.397 233.196L472.397 234.396L471.697 235.496L471.497 236.596V237.796L471.897 238.896L472.797 239.996L476.597 241.296L479.697 241.396L484.497 240.896L485.997 240.496L487.397 239.996L491.497 239.796L495.597 240.896L498.997 241.396L500.397 242.096L501.497 243.696L501.997 244.996L502.697 246.196L503.197 247.796L503.897 248.896L504.397 249.996L504.897 250.896L504.997 252.096L505.197 252.496L496.297 254.996L489.697 255.596L483.897 257.996L482.197 258.996L477.597 262.996L476.697 263.496L474.197 263.996L470.597 265.896L466.597 268.696L465.697 268.796L464.497 268.296L462.997 268.696L460.397 269.896L459.197 270.196L458.697 270.296H458.097L457.697 268.996L457.297 268.296L456.797 268.396L455.897 268.696L451.997 269.096L443.097 272.096L429.497 275.596L422.197 279.696L419.597 280.796L416.797 281.296L415.497 281.896L413.097 283.596L407.897 285.996L405.497 287.696L404.997 289.696L404.397 289.596L403.497 289.096L402.297 288.796L400.797 288.996L399.497 289.696L398.597 290.596L395.497 294.996L394.397 297.196L393.797 299.796L394.297 300.096V300.796L394.097 301.596L393.997 301.996L393.297 302.496L390.797 303.496L390.297 303.896L389.897 305.396L388.997 305.896L387.897 306.096L386.897 306.596L386.597 307.096L386.497 307.596V308.996L386.297 309.296L385.897 309.596L385.497 309.996L384.897 311.796L383.797 312.496L381.497 313.496L377.797 318.096L376.597 318.796L376.197 318.896L375.497 319.496L375.097 319.696L374.697 319.796L374.197 319.696H373.597V319.196L373.397 318.396L372.897 317.096L371.197 313.996L370.797 312.996L370.697 311.896L370.197 310.696L369.297 309.296L367.897 307.696L362.197 304.996L356.997 303.696L352.197 303.796L348.097 303.396L343.597 301.196L340.497 298.096L339.597 296.396L338.097 294.396L337.497 292.396L336.297 289.896L335.097 288.496L333.497 287.596L331.997 287.096L327.397 286.996L321.097 286.096L316.297 284.396L311.597 281.196L307.197 276.896L300.297 272.096L299.797 270.496L301.197 268.696L311.197 260.096L312.097 258.196V256.296L309.497 252.796L307.997 251.196V249.596L308.197 247.796L309.997 242.296V240.796L310.597 238.496L311.997 235.396L314.697 232.096L322.697 219.496L321.997 217.396L316.397 215.496L229.397 222.196L259.797 185.096L272.497 172.496L269.897 133.696L277.997 134.096L279.997 133.796L281.797 133.096L289.397 128.596L296.397 124.496L296.497 124.396L298.297 121.996L302.397 110.596L305.297 102.496L306.297 100.496L312.297 92.9961L321.497 81.3961L331.297 69.0961L336.897 62.0961L341.697 56.0961L343.097 55.0961L350.997 50.9961L361.597 45.5961L373.397 39.4961L383.997 34.0961L392.897 29.4961L395.597 28.0961L401.297 25.9961L409.297 24.8961L419.197 23.4961L429.097 22.0961L438.997 20.6961L448.897 19.2961L458.797 17.8961L468.697 16.4961L478.597 15.0961L488.497 13.6961L498.397 12.2961L508.297 10.8961L518.197 9.49609L528.097 8.09609L537.997 6.69609L547.897 5.29609L557.797 3.89609L567.697 2.49609L577.797 0.996094ZM731.497 414.896L733.097 414.696L734.297 413.996L734.997 414.096L735.797 414.496L734.997 415.296L733.197 415.796L731.897 416.196L730.697 416.396L729.997 416.896L729.897 418.596L727.297 419.696L725.197 420.196L722.697 421.196L719.897 420.996L717.597 421.896L717.097 422.396L715.897 423.996L715.297 424.396L713.697 425.096L711.897 426.496L710.997 426.996L709.197 426.796L706.297 426.996L705.297 426.796L704.297 427.096L702.897 428.296L701.497 427.796L700.497 427.496L698.597 427.896L695.997 428.296L688.597 429.696L685.797 429.996L682.197 429.596L678.797 428.596L675.997 427.796L674.797 426.596L673.797 425.396L672.797 424.196L671.897 422.796L670.297 422.196L667.697 420.496L661.297 416.496L659.797 415.096L659.597 414.696L660.097 414.296L661.797 414.796L663.097 414.696L664.397 413.896L664.697 413.696L664.797 413.096L665.297 411.996L665.497 411.296L665.097 407.596L665.997 407.196L667.097 406.996L669.697 406.596L670.297 405.596L670.997 404.596L671.597 403.896L672.797 403.796L676.197 404.496L678.197 404.696L679.697 404.596L681.197 404.396L683.597 406.596L687.797 409.796L690.597 410.496L692.897 411.096L694.197 409.596L694.797 408.096L696.497 407.696L697.697 407.896L698.797 408.396L700.897 408.096L702.997 408.196L705.297 406.896L706.097 406.596L707.597 405.596L708.297 404.796L709.897 404.696L710.697 405.496L711.597 406.196L712.897 406.996L713.897 406.796L714.597 406.396L714.897 406.596L715.497 407.296L715.997 407.896H717.097L718.497 408.196L719.097 409.196L720.097 409.596L722.197 410.596L724.697 411.096L727.197 412.496L728.497 412.896L731.497 414.896Z" fill="white" stroke="#f0f3fd" stroke-width="0.5" stroke-linecap="round" stroke-linejoin="round"/>
<path d="M578.097 1.99609L579.797 6.09609L582.397 12.3961L584.997 18.6961L587.597 24.9961L590.198 31.2961L592.797 37.5961L595.397 43.8961L597.997 50.1961L600.597 56.4961L603.198 62.7961L605.797 69.0961L608.397 75.3961L610.997 81.6961L613.597 87.9961L616.198 94.1961L618.797 100.396L621.397 106.596L623.397 111.196H622.897L623.797 111.796L626.097 111.896L627.198 112.296L627.897 113.196L630.297 118.596L634.198 127.296L638.097 135.996L641.997 144.696L645.897 153.396L644.597 154.096L641.698 154.896L639.397 154.296L638.698 154.896L637.997 154.996H637.297L636.698 155.396L635.497 156.596L634.797 157.096L633.297 157.596L631.198 158.796L628.597 159.296L627.397 159.896L625.097 161.296L624.198 161.696L615.597 163.996L611.597 165.896L604.698 170.796L598.397 175.896L596.797 177.696L595.997 178.996L594.897 181.196L592.897 183.596L592.497 184.296L592.198 185.096V185.796L592.397 186.596L592.597 187.196L592.698 187.396L592.198 188.596L590.797 190.196L590.198 192.796L588.698 194.596L588.397 195.796L588.897 196.996L589.797 198.396L590.397 199.896L589.698 202.496L590.698 203.496L592.698 204.496L592.797 205.396L592.297 209.996L592.597 212.796L593.198 215.496L593.597 215.896L593.897 216.196L593.997 216.596L593.897 216.996L593.597 217.596L593.497 217.896L593.397 218.396L593.198 218.896L592.897 219.296L592.397 219.396L591.097 219.596L581.698 222.296L581.198 222.696L580.797 223.196L580.397 223.496L579.897 223.696L578.997 223.796L578.397 223.896L573.597 225.796L571.198 227.296V228.996L571.097 229.096H570.797V229.796L570.597 229.896L570.297 229.696L569.897 229.496L569.397 229.296L568.897 228.896L568.297 228.696L567.497 229.296L567.097 229.496L563.997 230.096L559.097 232.796L558.297 233.596L557.997 234.496L558.297 235.696L558.797 236.396V236.796L557.497 237.296L550.997 237.896L549.797 238.296L548.698 238.896L547.797 239.496L546.297 241.196L545.097 241.296L544.597 241.496L544.397 241.896H543.698L540.597 243.296L539.697 243.796L538.097 243.296L536.397 243.996L534.797 245.096L533.597 245.596L521.297 248.896L507.797 251.396L504.897 252.196L504.697 251.796L504.597 250.596L504.097 249.696L503.597 248.596L502.897 247.496L502.397 245.796L501.697 244.596L501.197 243.296L500.097 241.696L498.697 240.996H495.697L491.597 239.896L487.497 240.096L486.097 240.596L484.597 240.996L479.797 241.496L476.697 241.396L472.897 240.096L471.997 238.996L471.597 237.896V236.696L471.797 235.596L472.497 234.496L473.497 233.296L474.597 231.296L475.597 230.496L476.297 229.496L476.597 226.896L476.197 225.696L475.597 224.996L472.997 224.296L471.197 224.096L469.297 223.496L468.197 222.096L467.697 219.896L468.197 217.296L468.697 215.696L469.297 214.396V213.196L469.097 211.696L468.997 209.996L469.597 208.196V206.596L470.097 204.296L471.097 203.096L472.097 201.296L474.497 194.696L474.197 192.496L473.497 190.796L472.097 190.096L471.197 189.196L470.297 187.996L470.397 185.596L475.197 166.996L474.697 164.696L473.997 163.296L473.897 161.896L474.997 159.396L476.297 157.696L477.797 156.496L480.397 154.896L491.197 150.296L496.197 146.896L500.897 141.196L525.697 120.696L533.697 108.696L541.297 91.6961L547.097 73.2961L550.897 53.8961L561.198 26.9961L578.097 1.99609ZM63.0975 102.096L66.1975 105.596L68.6975 107.596L69.8975 107.996H70.9975L73.2975 107.696L75.6975 107.896L76.7975 107.796L78.1975 107.396L78.5975 107.596V108.296L78.3975 109.596L78.5975 110.096L78.7975 110.396L79.1975 110.596L79.8975 110.796L81.3975 110.596L82.3975 109.596L83.1975 108.296L84.0975 107.196L85.3975 106.496L86.4975 106.596L88.8975 107.796L90.4975 107.996L91.6975 107.396L92.5975 106.196L93.6975 104.996L94.5975 104.296L95.8975 104.496L98.4975 105.296L99.6975 105.196L104.397 104.096L110.397 103.496L114.197 103.596L118.397 104.496L120.097 104.396L123.997 102.896L125.297 102.596L137.797 102.696L145.397 102.796L143.997 123.396L138.897 125.996L135.297 125.596L131.397 125.696L127.297 126.596L123.897 127.796L115.697 131.896L114.597 133.096L112.097 136.596L111.297 137.396L110.197 139.296L109.597 139.796L108.697 139.896L107.597 141.096L104.997 142.796L104.097 143.196L103.597 143.596L102.897 143.796L102.097 144.196L100.697 145.296L99.8975 146.396L98.5975 148.796L97.7975 151.996L96.8975 154.196L92.4975 155.496L89.8975 155.396L87.0975 154.796L80.7975 152.196L76.3975 151.096H73.9975L72.3975 151.596L71.4975 152.196L69.7975 153.096L68.5975 153.596L60.5975 155.496L53.6975 154.896L48.9975 155.196L47.6975 154.996L46.5975 154.396L36.1975 151.396L34.8975 150.596L34.4975 149.096L33.8975 148.096L33.7975 147.196L34.6975 145.896L35.2975 145.496L35.8975 145.296L36.3975 144.996L36.6975 144.296L36.5975 143.496L36.1975 142.796L35.5975 142.296L33.2975 141.696L32.5975 141.096L31.8975 138.696L30.5975 136.196L30.3975 135.096L30.7975 133.496L31.7975 130.996L32.0975 129.796V128.396L31.6975 126.996L31.1975 125.896L30.9975 124.896L31.3975 123.596L32.6975 120.996L33.0975 119.696L32.9975 118.196L33.3975 116.896L34.6975 115.896L36.2975 115.196L37.6975 114.896L39.0975 114.196L39.2975 112.896L38.6975 111.496L37.4975 110.596L33.9975 109.396L34.1975 109.096L37.1975 105.396L42.5975 100.796L44.9975 99.2961L47.9975 97.3961L49.2975 96.8961L50.6975 96.6961L51.7975 96.9961L53.8975 97.0961L54.8975 97.3961L59.3975 99.3961L61.9975 100.996L63.0975 102.096Z" fill="white" stroke="#f0f3fd" stroke-width="0.5" stroke-linecap="round" stroke-linejoin="round"/>
<path d="M35.2974 150.797L36.5974 151.597L46.9974 154.597L48.0974 155.197L49.3974 155.397L54.0974 155.097L60.9974 155.697L60.6974 166.797L61.5974 175.597L61.3974 176.597L61.2974 177.997V179.097L61.4974 179.997V180.997L61.8974 181.697L63.7974 182.997L64.4974 184.097L64.3974 185.997L64.5974 187.597L64.6974 188.997L67.0974 193.997V194.897L66.4974 195.597L65.6974 196.197L65.0974 196.797L64.7974 197.497L64.5974 198.197L65.2974 198.897L65.9974 198.797L68.3974 196.097L68.9974 195.797L69.5974 196.097L70.3974 196.797L71.8974 199.297L72.4974 201.697L72.8974 204.197L72.5974 205.397L72.3974 207.697L72.7974 209.297L72.8974 210.497L73.9974 211.397L74.3974 211.997L74.0974 214.297L73.6974 215.997L72.9974 216.797L72.0974 216.997L70.8974 216.697L69.8974 216.797L69.0974 217.297L68.5974 217.897L68.2974 218.497L68.0974 219.397V220.297L68.9974 221.797L68.8974 222.697L67.6974 225.097L66.0974 224.597L60.4974 223.897L59.1974 223.997L57.8974 223.797L46.6974 224.997L43.1974 226.197L42.2974 220.597L42.3974 219.697L42.6974 219.097L43.0974 215.397L42.3974 213.297V212.097L42.8974 211.197L43.2974 210.097L43.6974 208.497L43.7974 206.497L43.0974 204.697L41.4974 203.497L35.1974 203.997L32.7974 204.597L31.8974 205.297L30.5974 205.997L27.9974 205.797L23.7974 206.397L13.7974 200.397V200.297L14.2974 191.497L14.0974 188.597L12.3974 179.597L12.1974 174.797L12.0974 174.397L11.6974 173.097V172.597L11.5974 172.197L11.3974 171.897L10.8974 171.197L10.7974 170.997L13.7974 169.997L15.9974 169.097L17.5974 167.997L18.0974 166.997L17.9974 165.997L17.7974 164.997L17.9974 164.197L18.6974 163.897L21.0974 163.497L21.9974 163.197L24.6974 161.597L25.9974 160.597L26.7974 159.497L28.3974 155.297L28.5974 154.097L28.6974 152.697L28.9974 151.797L29.7974 151.497L31.2974 151.797L33.7974 152.597L34.8974 152.397L35.2974 151.197V150.797ZM145.397 102.697H146.897L157.297 102.797L160.797 103.497L170.797 109.397L173.597 110.297L186.697 111.697L201.997 113.297L213.697 114.497L228.697 115.997L238.897 114.597L252.597 112.697L254.897 113.997L258.897 119.597L263.497 125.997L268.697 133.297L269.497 133.797H270.397L272.997 172.597L260.297 185.197L208.597 194.797L189.997 201.397L182.097 208.297L174.997 208.997L161.997 206.897L147.097 198.997L126.297 194.097L122.197 191.597L116.897 191.197L115.697 191.697L115.197 192.297L111.697 192.997L110.197 191.197L108.197 187.697L107.897 185.997L107.797 183.997L107.197 182.297L108.597 178.197L108.497 177.197L108.097 176.597L107.797 175.797L108.097 174.597L108.197 173.297L107.997 171.897L107.097 170.297L106.597 168.597L106.097 166.197L105.197 164.397V163.297L105.797 162.497L106.097 161.497L105.697 160.497L104.797 159.497L101.197 156.797L100.197 156.297L96.9974 154.097L97.8974 151.897L98.6974 148.697L99.9974 146.297L100.797 145.197L102.197 144.097L102.997 143.697L103.697 143.497L104.197 143.097L105.097 142.697L107.697 140.997L108.797 139.797L109.697 139.697L110.297 139.197L111.397 137.297L112.197 136.497L114.697 132.997L115.797 131.797L123.997 127.697L127.397 126.497L131.497 125.597L135.397 125.497L138.997 125.897L144.097 123.297L145.397 102.697Z" fill="white" stroke="#f0f3fd" stroke-width="0.5" stroke-linecap="round" stroke-linejoin="round"/>
<path d="M11.6976 243.198L12.0976 241.798L11.9976 236.898L11.3976 234.598L10.3976 232.798L10.0976 231.898V231.198L10.1976 230.498L10.2976 229.698V228.898L10.1976 228.198L9.89756 227.398L8.89756 225.798L6.39756 222.298L6.49756 221.798L7.19756 220.898L6.59756 220.298L5.99756 219.498L5.59756 218.598L5.39756 217.498L5.99756 215.198L5.79756 214.198L4.49756 213.698L4.99756 212.698L5.59756 212.198L6.29756 211.798L7.09756 211.098L7.59756 210.398L7.89756 209.798L7.99756 209.098V208.098L8.29756 206.298L9.09756 205.098L10.1976 204.198L11.2976 203.498L12.3976 202.598L12.9976 201.498L13.2976 200.098L23.2976 206.098L27.4976 205.498L30.0976 205.698L31.3976 204.998L32.2976 204.298L34.6976 203.698L40.9976 203.198L42.5976 204.398L43.2976 206.198L43.1976 208.198L42.7976 209.798L42.3976 210.898L41.8976 211.798V212.998L42.5976 215.098L42.1976 218.798L41.8976 219.398L41.7976 220.298L42.6976 225.898L42.8976 228.598L43.1976 229.298V230.698L43.4976 231.798L43.5976 233.598L43.3976 235.698L43.6976 237.198L43.8976 238.998L45.5976 241.498L46.9976 242.498L48.4976 243.798L51.0976 244.498L51.6976 245.598L52.3976 247.398L53.5976 249.498L54.2976 251.398L55.1976 252.798L57.0976 254.698L58.5976 255.598L60.5976 257.498L62.5976 258.498L64.2976 258.898H65.4976L66.6976 258.698L68.1976 260.098V260.798L67.7976 261.098L66.7976 262.598L65.8976 263.198L64.9976 263.298L63.0976 262.598L62.6976 262.998L62.1976 263.898L60.3976 265.798L59.1976 266.798L57.9976 268.398L56.9976 271.198L57.7976 275.898L57.4976 276.898L56.7976 277.798L56.5976 278.898L56.6976 279.998L56.8976 280.998L56.6976 282.098L56.8976 283.298L59.2976 289.798L59.4976 290.798L60.2976 292.398L60.4976 293.198L60.5976 294.898L60.3976 296.098L58.1976 298.798L56.9976 298.898L56.5976 299.798L58.6976 308.498V310.598L59.4976 312.698L60.4976 313.598L61.8976 314.498L63.7976 315.098L67.2976 317.198L68.4976 317.698L69.4976 317.598L70.2976 316.898L71.1976 316.398L71.9976 315.798L72.9976 315.398L73.1976 317.198L73.4976 318.298L73.0976 319.998L70.6976 323.798L69.6976 324.398L69.0976 323.998L68.1976 323.598L67.0976 324.098L66.8976 324.898L67.6976 326.098L68.1976 326.898L68.2976 327.898L67.5976 327.698L65.9976 328.198L60.8976 329.098L59.3976 329.598L57.1976 330.598L52.4976 336.698L51.8976 337.898L51.1976 338.698L49.7976 338.898L47.5976 339.498L45.7976 340.198L41.4976 343.698L41.2976 343.798L41.3976 342.398L41.0976 340.098L39.0976 336.198L38.7976 335.498L38.1976 330.298L37.7976 329.698L33.7976 325.298L32.3976 321.898L31.0976 318.998L29.6976 316.998L28.9976 312.198L28.4976 309.898L27.8976 307.998L26.6976 305.098L24.8976 299.198L24.3976 297.898L24.0976 295.898L23.2976 294.098L23.0976 292.098L22.8976 291.498L22.5976 291.098L21.4976 290.298L21.1976 289.898L21.2976 289.098L21.5976 288.798L22.0976 288.898L22.6976 289.398L23.2976 290.698L23.9976 293.598L24.8976 294.398V292.598L24.7976 291.698L24.3976 290.898L25.2976 288.298L24.5976 286.198L23.3976 284.298L22.6976 282.198L22.7976 281.698L23.3976 280.998L23.4976 280.598L23.3976 280.198L23.1976 279.998L22.9976 279.898L22.6976 279.098L22.2976 278.798L21.8976 278.598L21.6976 278.398L21.5976 278.098L21.2976 277.798L20.9976 277.398L20.4976 275.198L20.3976 274.498L19.6976 272.298L16.7976 268.598L16.0976 266.298L15.9976 264.998L16.0976 264.298L16.5976 264.398L16.8976 264.898L16.7976 265.298L16.5976 265.798V266.498L16.9976 267.698L17.6976 268.998L18.6976 270.198L19.8976 270.998L19.9976 270.098L20.3976 267.998V266.698L19.6976 264.398L19.3976 262.298L19.0976 261.498L18.5976 260.798L16.9976 259.298L16.2976 258.498L15.8976 257.398L15.6976 255.898L15.9976 252.498L15.6976 251.398L14.8976 250.298L12.6976 249.298L11.6976 243.198ZM0.497559 229.598L0.897559 229.798Z" fill="white"/>
<path d="M0.497559 229.598L0.897559 229.798M11.6976 243.198L12.0976 241.798L11.9976 236.898L11.3976 234.598L10.3976 232.798L10.0976 231.898V231.198L10.1976 230.498L10.2976 229.698V228.898L10.1976 228.198L9.89756 227.398L8.89756 225.798L6.39756 222.298L6.49756 221.798L7.19756 220.898L6.59756 220.298L5.99756 219.498L5.59756 218.598L5.39756 217.498L5.99756 215.198L5.79756 214.198L4.49756 213.698L4.99756 212.698L5.59756 212.198L6.29756 211.798L7.09756 211.098L7.59756 210.398L7.89756 209.798L7.99756 209.098V208.098L8.29756 206.298L9.09756 205.098L10.1976 204.198L11.2976 203.498L12.3976 202.598L12.9976 201.498L13.2976 200.098L23.2976 206.098L27.4976 205.498L30.0976 205.698L31.3976 204.998L32.2976 204.298L34.6976 203.698L40.9976 203.198L42.5976 204.398L43.2976 206.198L43.1976 208.198L42.7976 209.798L42.3976 210.898L41.8976 211.798V212.998L42.5976 215.098L42.1976 218.798L41.8976 219.398L41.7976 220.298L42.6976 225.898L42.8976 228.598L43.1976 229.298V230.698L43.4976 231.798L43.5976 233.598L43.3976 235.698L43.6976 237.198L43.8976 238.998L45.5976 241.498L46.9976 242.498L48.4976 243.798L51.0976 244.498L51.6976 245.598L52.3976 247.398L53.5976 249.498L54.2976 251.398L55.1976 252.798L57.0976 254.698L58.5976 255.598L60.5976 257.498L62.5976 258.498L64.2976 258.898H65.4976L66.6976 258.698L68.1976 260.098V260.798L67.7976 261.098L66.7976 262.598L65.8976 263.198L64.9976 263.298L63.0976 262.598L62.6976 262.998L62.1976 263.898L60.3976 265.798L59.1976 266.798L57.9976 268.398L56.9976 271.198L57.7976 275.898L57.4976 276.898L56.7976 277.798L56.5976 278.898L56.6976 279.998L56.8976 280.998L56.6976 282.098L56.8976 283.298L59.2976 289.798L59.4976 290.798L60.2976 292.398L60.4976 293.198L60.5976 294.898L60.3976 296.098L58.1976 298.798L56.9976 298.898L56.5976 299.798L58.6976 308.498V310.598L59.4976 312.698L60.4976 313.598L61.8976 314.498L63.7976 315.098L67.2976 317.198L68.4976 317.698L69.4976 317.598L70.2976 316.898L71.1976 316.398L71.9976 315.798L72.9976 315.398L73.1976 317.198L73.4976 318.298L73.0976 319.998L70.6976 323.798L69.6976 324.398L69.0976 323.998L68.1976 323.598L67.0976 324.098L66.8976 324.898L67.6976 326.098L68.1976 326.898L68.2976 327.898L67.5976 327.698L65.9976 328.198L60.8976 329.098L59.3976 329.598L57.1976 330.598L52.4976 336.698L51.8976 337.898L51.1976 338.698L49.7976 338.898L47.5976 339.498L45.7976 340.198L41.4976 343.698L41.2976 343.798L41.3976 342.398L41.0976 340.098L39.0976 336.198L38.7976 335.498L38.1976 330.298L37.7976 329.698L33.7976 325.298L32.3976 321.898L31.0976 318.998L29.6976 316.998L28.9976 312.198L28.4976 309.898L27.8976 307.998L26.6976 305.098L24.8976 299.198L24.3976 297.898L24.0976 295.898L23.2976 294.098L23.0976 292.098L22.8976 291.498L22.5976 291.098L21.4976 290.298L21.1976 289.898L21.2976 289.098L21.5976 288.798L22.0976 288.898L22.6976 289.398L23.2976 290.698L23.9976 293.598L24.8976 294.398V292.598L24.7976 291.698L24.3976 290.898L25.2976 288.298L24.5976 286.198L23.3976 284.298L22.6976 282.198L22.7976 281.698L23.3976 280.998L23.4976 280.598L23.3976 280.198L23.1976 279.998L22.9976 279.898L22.6976 279.098L22.2976 278.798L21.8976 278.598L21.6976 278.398L21.5976 278.098L21.2976 277.798L20.9976 277.398L20.4976 275.198L20.3976 274.498L19.6976 272.298L16.7976 268.598L16.0976 266.298L15.9976 264.998L16.0976 264.298L16.5976 264.398L16.8976 264.898L16.7976 265.298L16.5976 265.798V266.498L16.9976 267.698L17.6976 268.998L18.6976 270.198L19.8976 270.998L19.9976 270.098L20.3976 267.998V266.698L19.6976 264.398L19.3976 262.298L19.0976 261.498L18.5976 260.798L16.9976 259.298L16.2976 258.498L15.8976 257.398L15.6976 255.898L15.9976 252.498L15.6976 251.398L14.8976 250.298L12.6976 249.298L11.6976 243.198Z" stroke="#f0f3fd" stroke-width="0.5" stroke-linecap="round" stroke-linejoin="round"/>
<path d="M56.4973 405.297L56.1973 405.597L55.2973 406.097L53.9973 406.297L52.5973 406.097L52.1973 405.497L53.3973 400.397V397.997L52.8973 395.797L51.6973 393.797L49.7973 392.097L49.5973 391.497L49.3973 390.697L48.9973 390.197L48.5973 389.797L48.3973 389.297L48.2973 388.097L48.0973 386.897L47.6973 385.797L47.0973 384.797L44.8973 382.297L44.5973 381.597L44.4973 381.097L43.6973 379.597L43.0973 377.997L42.7973 377.497L39.0973 372.797L37.6973 367.997L38.4973 365.997L38.9973 363.897L39.3973 352.597L40.6973 350.597L40.8973 349.997L40.9973 349.497L41.2973 349.097L41.9973 348.797L41.1973 346.797L41.2973 343.797L41.4973 343.697L45.7973 340.197L47.5973 339.497L49.7973 338.897L51.1973 338.697L51.8973 337.897L52.4973 336.697L57.1973 330.597L59.3973 329.597L60.8973 329.097L65.9973 328.197L67.6973 331.397L71.3973 331.497L72.7973 330.797L74.3973 331.297L75.6973 330.697L78.5973 330.297L78.9973 331.197L78.8973 332.297L79.3973 332.897L82.1973 331.797L83.0973 332.197V333.397L82.7973 334.197L83.2973 335.097L90.4973 337.197L93.5973 337.497L95.0973 338.397L99.6973 339.897L101.897 339.997L103.097 340.397L103.997 340.897L105.297 341.397L106.797 341.197L109.197 339.497L109.997 338.597L110.597 337.697L111.697 339.397L111.897 340.797L111.697 342.397L111.097 343.897L110.997 345.197L111.897 346.197L113.197 346.497L114.597 346.197L115.897 346.297L117.797 347.197L118.097 347.997L118.197 349.297L117.697 350.597L116.897 350.997L116.397 351.797L115.697 352.497L114.697 352.897H113.797L112.997 353.097L112.797 353.497L112.897 353.897V354.397L112.497 354.797L110.797 354.997L109.697 355.497L108.697 356.097L108.197 357.097L108.697 358.097L109.797 358.597L110.697 359.097L112.497 359.297L113.197 360.097L113.297 361.197L112.697 361.897L108.697 361.997L107.297 362.397L106.897 363.197L107.397 364.397L107.497 365.497L107.397 367.097L107.697 368.397L107.397 369.797L105.997 370.897L102.797 371.697L100.297 371.797L97.6973 371.297L96.8973 372.697L96.0973 373.297L95.4973 373.797V374.797L95.5973 375.697L94.8973 376.197L93.5973 376.397L92.7973 376.997L92.1973 378.197L91.9973 379.497L91.2973 380.097L89.7973 379.897L87.3973 378.497L86.8973 378.897L87.1973 381.997L86.8973 382.997L85.7973 382.897L84.0973 382.097L82.8973 381.097L80.5973 379.797L79.4973 379.397L78.2973 378.797L77.0973 378.597L75.7973 378.997L74.5973 379.497L73.6973 380.497L72.5973 380.997L71.6973 381.497L69.4973 381.797L68.6973 382.497V383.497L69.1973 384.297L69.4973 385.397L69.2973 386.797L67.1973 390.097L63.6973 393.597L58.9973 400.897L56.4973 405.297ZM50.2973 406.597L51.0973 406.997L51.1973 407.197L51.4973 407.897L51.2973 408.797L50.5973 409.197L50.1973 408.997L49.4973 408.197L49.0973 407.797L48.3973 407.997L47.9973 407.797L47.7973 406.997L48.2973 406.797L48.7973 406.697L50.2973 406.597Z" fill="white" stroke="#f0f3fd" stroke-width="0.5" stroke-linecap="round" stroke-linejoin="round"/>
<path d="M111.097 406.796L110.897 406.096L110.597 405.996L109.097 406.596L107.297 406.996L103.297 408.896L101.897 408.996L100.697 408.896H99.4975L97.1975 410.096L95.7975 410.196L94.5975 409.796L93.8975 408.896L94.6975 408.996L96.1975 409.296L97.0975 409.396L97.5975 408.996V408.196L97.1975 407.696L96.4975 408.196L94.8975 407.996L92.8975 408.796L89.2975 410.796L87.4975 411.296H86.4975L84.8975 410.796L82.9975 411.596L82.0975 411.696L80.8975 410.896L79.7975 408.696L78.8975 408.196L77.5975 407.996L76.5975 407.596L74.8975 406.496L73.8975 405.996L72.6975 405.596L71.3975 405.296L69.9975 405.196L69.1975 404.896L66.7975 403.496L65.5975 402.996H63.3975L62.7975 402.696L61.8975 401.996L61.2975 401.696L60.6975 401.596L59.8975 401.896L56.3975 405.396L58.5975 400.896L63.2975 393.596L66.7975 390.096L68.8975 386.796L69.0975 385.396L68.7975 384.296L68.2975 383.496V382.496L69.0975 381.796L71.2975 381.496L72.1975 380.996L73.2975 380.496L74.1975 379.496L75.7975 379.096L76.9975 378.796L78.1975 378.996L79.3975 379.596L80.4975 379.996L82.7975 381.296L83.9975 382.296L85.6975 383.096H86.7975L87.0975 382.096L86.7975 378.996L87.2975 378.596L89.6975 379.996L91.1975 380.196L91.8975 379.596L92.0975 378.296L92.7975 377.096L93.5975 376.896L94.8975 376.696L95.5975 376.196L95.4975 375.296V374.296L96.0975 373.796L96.8975 373.196L97.6975 371.796L100.297 372.296L102.897 372.196L106.097 371.396L107.497 370.296L107.797 368.896L107.497 367.596L107.597 365.996L107.497 364.896L106.997 363.696L107.397 362.896L108.797 362.496L112.797 362.396L113.397 361.696L113.297 360.596L112.597 359.796L110.797 359.596L109.897 359.096L108.797 358.596L108.297 357.596L108.797 356.596L109.797 355.996L110.897 355.496L112.597 355.296L112.997 354.896V354.396L112.897 353.996L113.097 353.596L113.897 353.396H114.797L115.797 352.996L116.497 352.296L116.997 351.496L117.797 351.096L118.297 349.796L120.797 350.696L121.597 351.696L124.197 353.596L125.897 353.296L128.097 351.796L132.297 349.996L133.397 348.796L134.297 348.096L136.797 349.096L138.197 348.896L138.597 347.596L138.397 346.096L138.497 341.496L139.997 341.196L141.997 340.996L147.097 338.896L149.797 336.996L152.397 335.796L154.597 333.696L158.397 325.196H161.997L162.997 325.396L164.897 324.296L166.297 323.096L169.497 321.096L170.897 320.896L171.897 321.396L172.697 324.596L172.297 329.396L169.997 329.996L169.597 330.996L169.397 332.996L169.597 334.296L169.397 335.296L168.597 335.796L167.597 336.296L165.397 336.796L164.597 337.596L164.097 338.596L164.297 339.596V340.596L164.197 341.496L162.997 342.396L160.597 343.896V344.696L161.497 345.096L164.597 345.296L165.697 345.696L165.997 346.296L165.397 347.196L161.997 351.096L160.297 353.696L160.097 356.196L160.297 357.996L161.197 358.996L162.097 359.596L162.797 360.296L162.897 361.096L162.397 362.496L159.497 364.596L155.397 375.796L153.397 390.196L152.997 390.796V390.896L147.797 391.296L136.497 394.296L123.697 396.496L118.097 398.496L115.397 400.096L111.097 406.796Z" fill="white" stroke="#f0f3fd" stroke-width="0.5" stroke-linecap="round" stroke-linejoin="round"/>
<path d="M152.897 390.797L152.497 391.897L152.297 392.997L152.197 393.197L150.697 396.997L150.597 397.597L150.897 400.197L150.697 401.097L149.497 401.497L148.197 401.297L146.797 400.697L145.897 399.897L145.997 398.997L146.997 398.597L148.297 398.697L149.397 398.597L149.897 397.497H149.697L148.797 396.197L148.697 395.897L148.597 395.697L148.697 395.397V394.997L148.297 394.897L147.897 394.997V395.597L147.797 395.797L147.397 396.497L147.197 396.597L146.897 396.497L146.297 396.197L145.897 396.097L144.497 396.197L143.897 396.397L143.597 396.797L143.197 397.797L142.197 398.597L141.097 398.797L140.297 397.897L139.497 398.397L139.197 398.997L139.497 400.597L139.997 400.197L140.397 400.097L142.297 400.297L142.597 400.497L142.497 401.297L142.097 401.997L141.297 402.797L140.297 403.197L139.497 403.097L137.697 402.397L137.197 402.097L136.797 401.597V401.297L136.697 401.097L135.897 400.797L134.397 400.697L133.197 401.097L130.897 402.597L130.797 402.297L130.597 401.897L130.497 401.697L130.797 401.097L130.397 400.197L129.597 399.297L128.797 398.697L126.297 397.797L123.697 397.697L121.397 398.197L119.597 399.097L116.297 401.897L112.797 405.697L112.697 405.997L112.197 406.797L111.697 407.197L111.597 406.997L115.797 400.397L118.497 398.797L124.097 396.797L136.897 394.597L148.197 391.597L152.897 390.797ZM290.497 345.897L280.797 348.897L265.097 352.197L259.697 355.797L252.097 358.697L251.097 358.897L249.897 358.697L247.697 357.997H246.197L244.897 358.397L242.197 359.597L240.997 359.797H228.197L225.497 359.397L224.197 358.697L223.397 358.397L222.997 358.697L222.697 358.897L221.097 359.397L215.797 360.297L205.297 360.797L204.197 360.997L202.197 361.797L201.297 361.997L198.697 361.897L197.597 361.997L196.897 362.497L188.397 364.397L186.297 365.497L180.397 371.597L178.697 372.897L177.797 373.797L176.997 376.197L174.097 379.997L172.197 381.797L169.897 382.797L159.297 385.397L156.897 386.697L154.697 388.597L153.897 389.697L153.597 390.297L155.597 375.897L159.697 364.697L162.597 362.597L163.097 361.197L162.997 360.397L162.297 359.697L161.397 359.097L160.497 358.097L160.297 356.297L160.497 353.797L162.197 351.197L165.597 347.297L166.197 346.397L165.897 345.797L164.797 345.397L161.697 345.197L160.797 344.797V343.997L163.197 342.497L164.397 341.597L164.497 340.697V339.697L164.297 338.697L164.797 337.697L165.597 336.897L167.797 336.397L168.797 335.897L169.597 335.397L169.797 334.397L169.597 333.097L169.797 331.097L170.197 330.097L172.497 329.497L173.197 329.797L181.797 330.597L183.697 331.297L184.697 333.097L186.897 334.197H188.197L189.497 334.097L191.197 333.697L193.097 332.897L195.597 331.397L206.197 323.597L208.497 321.497L209.497 318.497L211.097 316.097L211.997 310.797L217.597 310.297L220.397 309.397L222.697 308.297L224.597 306.897L229.997 304.897L231.997 303.897L233.797 303.697L235.197 305.497L236.097 307.797L238.197 311.797L238.597 313.497L239.697 314.997L246.897 313.797L251.797 311.697L257.997 309.997L262.697 309.397L267.097 309.997L271.097 311.397L275.297 312.297L283.797 312.697L285.997 314.197L286.797 316.897L286.697 319.697L286.997 321.797L285.697 322.997L284.897 324.197L284.297 325.697L287.497 332.497L289.397 338.597L289.497 341.097L289.997 342.697L290.497 345.897Z" fill="white" stroke="#f0f3fd" stroke-width="0.5" stroke-linecap="round" stroke-linejoin="round"/>
<path d="M374.298 319.797L367.098 319.597L366.098 319.997L363.298 322.397L362.698 322.597H362.198L361.698 322.697L361.198 323.197L360.098 321.797L357.898 321.397H353.098L353.298 321.597L353.598 322.197H350.998L343.898 324.297L344.198 322.797L343.198 321.797L341.798 321.097L340.898 320.397L340.498 320.897L338.798 320.097L333.298 318.697L332.398 319.197L329.098 320.197L327.998 320.397L327.098 320.997L323.998 324.797L321.198 326.297L311.698 329.597L310.398 330.497L305.398 335.797L297.498 342.897L295.198 344.397L290.698 345.797L290.098 342.597L289.598 340.997L289.498 338.497L287.598 332.397L284.398 325.597L284.998 324.097L285.798 322.897L286.598 321.297L286.298 319.197L286.398 316.397L285.598 313.697L283.398 312.197L274.898 311.797L270.698 310.897L266.698 309.497L262.298 308.897L257.598 309.497L251.398 311.197L246.498 313.297L239.298 314.497L238.198 312.997L237.798 311.297L235.698 307.297L234.798 304.997L233.398 303.197L231.598 303.397L229.598 304.397L224.198 306.397L222.298 307.797L219.998 308.897L217.198 309.797L211.598 310.297L210.298 308.997L210.098 307.897L209.498 306.797L209.398 305.997L209.198 305.197V304.497L208.998 303.797L207.798 302.997L205.198 301.897L202.398 301.397L200.198 299.897L198.798 297.697L195.298 288.297L193.898 287.097L191.198 286.497L189.998 285.497L190.098 283.997L190.598 282.697L191.298 281.397L191.598 280.197L190.498 279.297L189.098 278.597H182.198L180.898 277.797L180.098 276.897L179.498 275.097L179.598 271.597L179.898 269.697L180.298 267.997V267.197L180.198 266.697L180.998 266.197L181.298 265.397L181.198 264.297L181.698 261.797L183.098 259.097L183.598 257.697L184.898 254.997L193.498 247.797L229.698 222.397L316.698 215.697L322.298 217.597L322.998 219.697L314.998 232.297L312.298 235.597L310.898 238.697L310.298 240.997V242.497L308.498 247.997L308.298 249.797V251.397L309.798 252.997L312.398 256.497V258.397L311.498 260.297L301.498 268.897L300.098 270.697L300.598 272.297L307.498 277.097L311.898 281.397L316.598 284.597L321.398 286.297L327.698 287.197L332.298 287.297L333.798 287.897L335.398 288.797L336.598 290.197L337.798 292.697L338.398 294.697L339.898 296.697L340.798 298.397L343.898 301.497L348.398 303.697L352.498 304.097L357.298 303.997L362.498 305.297L368.198 307.997L369.598 309.597L370.498 310.997L370.998 312.197L371.098 313.297L371.498 314.297L373.198 317.397L373.698 318.697L373.898 319.497V319.997L374.298 319.797Z" fill="white" stroke="#f0f3fd" stroke-width="0.5" stroke-linecap="round" stroke-linejoin="round"/>
<path d="M126.197 194.097L146.997 198.997L161.897 206.897L174.897 208.997L181.997 208.297L189.897 201.397L208.497 194.797L260.197 185.197L229.797 222.297L193.597 247.697L184.997 254.897L183.697 257.597L183.197 258.997L181.797 261.697L181.297 264.197L181.397 265.297L181.097 266.097L180.297 266.597L180.397 267.097V267.897L179.997 269.597L179.697 271.497L179.597 274.997L180.197 276.797L180.997 277.697L182.297 278.497L181.897 280.597L181.397 281.097L180.497 281.497L179.897 281.197L179.497 280.497L179.197 280.097L178.597 279.997L178.097 280.697L177.997 281.597L179.097 283.597V284.697L178.097 285.097L176.697 284.897L175.097 284.397L172.897 284.597L170.897 285.597L169.097 286.197L167.897 286.297L167.397 286.897L167.697 287.597L167.297 288.297L164.697 287.697L163.697 288.097L162.997 288.997L160.597 290.697H158.597L157.397 289.997L156.597 288.797L156.097 287.397L155.897 285.997L155.297 284.497L155.197 282.397L154.697 280.297L154.197 276.997V275.097L153.897 273.397L152.597 271.997L150.897 271.097L147.597 270.497L147.697 266.597L147.997 265.597V264.397L147.497 263.897L147.197 263.497L147.297 262.997L147.997 262.297L148.397 260.997L149.197 259.597L149.797 258.797L150.597 257.997L151.397 256.197L151.697 255.297L152.797 254.497L155.897 253.097L156.797 251.597L157.497 249.597L157.297 248.097L157.497 246.797V245.397L156.897 243.197L155.697 241.997L153.797 241.197L150.997 240.897L148.797 240.397L147.197 238.897L145.197 236.697L142.497 234.597L141.397 234.197L140.397 233.997L139.197 234.797L138.397 235.897L137.597 237.397L135.497 238.097L133.497 237.297L131.397 234.797L129.297 232.997L127.797 232.497L126.397 232.397L125.497 231.997L125.197 230.997L126.497 229.797L133.797 224.697L135.497 222.897L136.697 220.497L135.397 218.297L131.397 213.197L130.497 210.297V205.897L129.397 199.897L126.197 194.097Z" fill="white" stroke="#f0f3fd" stroke-width="0.5" stroke-linecap="round" stroke-linejoin="round"/>
<path d="M111.697 192.998L115.097 192.198L115.597 191.598L116.797 191.098L122.097 191.498L126.197 193.998L129.197 200.098L130.297 206.098V210.498L131.197 213.398L135.197 218.498L136.497 220.698L135.297 223.098L133.697 224.998L126.397 230.098L125.097 231.298L125.397 232.298L126.297 232.698L127.697 232.798L129.197 233.298L131.297 235.098L133.397 237.598L135.397 238.398L137.497 237.698L138.297 236.198L139.097 235.098L140.297 234.298L141.297 234.498L142.397 234.898L145.097 236.998L147.097 239.198L148.697 240.698L150.897 241.198L153.697 241.498L155.597 242.298L156.797 243.498L157.397 245.698V247.098L157.197 248.398L157.397 249.898L156.697 251.898L155.797 253.398L152.697 254.798L151.597 255.598L151.297 256.498L150.497 258.298L149.697 259.098L149.097 259.898L148.297 261.298L147.897 262.598L147.197 263.298L147.097 263.798L147.397 264.198L147.897 264.698V265.898L147.597 266.898L147.497 270.798L144.897 272.998L142.297 273.998L138.997 274.498L138.897 272.298L138.297 270.898L135.797 267.398L134.697 264.998L133.797 260.698L131.997 258.098L130.597 257.198L128.997 257.098L127.497 257.298L125.897 257.098L124.597 257.298L123.097 258.198L122.097 259.798L120.697 261.498L119.497 262.198L116.897 263.198L115.297 262.998L113.697 261.898L112.597 260.498L111.097 260.298L110.597 261.198L110.297 262.398L109.397 263.598L107.497 264.198L102.797 263.198L101.297 261.998L99.9975 260.698L98.2975 260.098L97.1975 259.298L95.4975 259.398L93.5975 259.798L91.3975 260.498L87.9975 262.998L86.5975 263.798L85.3975 264.598L84.1975 265.298L82.0975 267.298L80.6975 267.698L78.2975 267.898L75.2975 267.598L74.3975 268.398L71.7975 267.598L71.6975 266.998L68.4975 266.498L68.0975 264.598L67.0975 263.098L68.0975 261.598L68.4975 261.298V260.598L66.9975 259.198L65.7975 259.398H64.5975L62.8975 258.998L60.8975 257.998L58.8975 256.098L60.4975 253.498L61.1975 252.898L61.7975 251.298L61.6975 247.998L62.1975 246.298L63.2975 244.898L67.0975 242.598L67.7975 241.898L71.8975 241.098L74.1975 238.798L78.4975 235.598L79.7975 234.998L82.2975 233.298L83.2975 232.198L83.5975 229.498L84.3975 226.698L85.0975 225.098L84.9975 224.098L85.7975 223.198L88.1975 223.398L90.1975 223.098L91.8975 222.198L95.6975 219.298L96.3975 216.598L96.4975 213.698L97.5975 212.098L99.3975 210.698L100.697 208.898L100.997 207.698L101.097 206.298L100.597 205.098L100.197 203.298L99.8975 199.798L100.397 198.198L101.097 196.698L104.697 194.798L108.297 193.398L111.697 192.998ZM108.097 224.698H109.097L109.597 224.298L109.997 223.698L109.897 223.198L109.497 222.598L108.397 221.898L107.697 220.998L107.197 220.498L106.197 219.998L105.197 219.598H104.397L103.497 219.898L102.897 220.198L102.097 220.998L101.597 221.698L101.297 222.098H100.497L99.9975 222.298L99.5975 222.898L98.4975 223.298L97.9975 223.998L97.8975 225.598L98.1975 225.998L98.0975 226.298L97.4975 226.398L97.2975 226.998L96.7975 227.598L95.6975 227.998L95.2975 228.498L94.6975 228.698L93.5975 228.998L92.8975 229.198L92.7975 229.698L93.1975 230.398L93.6975 230.898L94.1975 231.098L94.7975 231.498L95.6975 232.498V233.198L95.3975 233.298L94.6975 233.398L94.2975 233.898L93.9975 235.198L94.1975 236.298L95.2975 236.998L96.3975 237.798L96.6975 238.398L96.3975 239.798L96.6975 240.098H99.5975L100.097 239.998L100.197 239.698L100.097 239.098L100.297 238.698L100.897 238.598L101.497 238.298L101.697 237.698V236.498L101.397 235.598L100.997 235.698L100.597 235.398V234.698L100.497 233.998L100.097 233.198L99.9975 232.598L100.097 231.898L99.9975 231.298L100.297 230.698L101.097 229.898L102.097 229.198L102.697 228.598L102.897 227.998L102.797 227.498L102.597 226.598L102.997 225.998L103.497 225.398L103.897 225.998L104.297 225.398H104.897L106.097 225.498L106.397 225.098V224.398L106.597 223.798L106.997 223.498L107.397 223.198H107.797L108.197 223.398L107.997 223.898L107.897 224.498L108.097 224.698Z" fill="white" stroke="#f0f3fd" stroke-width="0.5" stroke-linecap="round" stroke-linejoin="round"/>
<path d="M58.2973 298.797L60.4973 296.097L60.6973 294.897L60.5973 293.197L60.3973 292.397L59.5973 290.797L59.3973 289.797L56.9973 283.397L56.7973 282.197L56.9973 281.097L56.7973 280.097L56.6973 278.997L56.8973 277.897L57.5973 276.997L57.8973 275.997L57.0973 271.297L58.0973 268.497L59.2973 266.797L60.4973 265.797L62.2973 263.897L62.7973 262.997L63.4973 263.097L65.3973 263.797L66.2973 263.697L67.1973 263.097L68.1973 264.597L68.5973 266.497L71.7973 266.997L72.0973 267.697L74.6973 268.497V269.597L75.3973 271.797L76.7973 273.797L80.7973 278.297L81.9973 280.197L82.6973 281.897L83.6973 283.297L84.2973 284.497L83.7973 285.997L81.8973 288.397L80.7973 289.197L79.6973 290.297L75.7973 292.697L74.8973 293.397L73.7973 293.697L73.0973 293.797L72.1973 293.997L71.2973 293.897L69.9973 293.397L68.0973 293.497L66.9973 293.997L66.2973 294.797L64.1973 296.597L60.4973 298.597L59.4973 298.697L58.2973 298.797ZM147.497 270.797L150.797 271.397L152.497 272.297L153.797 273.697L154.097 275.397V277.297L154.597 280.597L155.097 282.697L155.197 284.797L155.797 286.297L155.997 287.697L156.497 289.097L157.297 290.297L158.497 290.997H160.497L162.897 289.297L163.597 288.397L164.597 287.997L167.197 288.597L167.597 287.897L167.297 287.197L167.797 286.597L168.997 286.497L170.797 285.897L172.797 284.897L174.997 284.697L176.597 285.197L177.997 285.397L178.997 284.997V283.797L177.897 281.797L177.997 280.897L178.497 280.197L179.097 280.297L179.397 280.697L179.797 281.397L180.397 281.697L181.297 281.297L181.797 280.797L182.197 278.697H189.097L190.497 279.397L191.597 280.297L191.297 281.497L190.597 282.797L190.097 284.097L189.997 285.597L191.197 286.597L193.897 287.197L195.297 288.397L198.797 297.797L200.197 299.997L202.397 301.497L205.197 301.997L207.797 303.097L208.997 303.897L209.197 304.597V305.297L209.397 306.097L209.497 306.897L210.097 307.997L210.297 309.097L211.597 310.397L210.697 315.697L209.097 318.097L208.097 321.097L205.797 323.197L195.197 330.997L192.697 332.497L190.797 333.297L189.097 333.697L187.797 333.797H186.497L184.297 332.697L183.297 330.897L181.397 330.297L172.797 329.497L172.097 329.197L172.497 324.397L171.697 321.197L170.697 320.697L169.297 320.897L166.097 322.897L164.697 324.097L162.797 325.197L161.797 324.997H158.197V323.297L157.897 321.797L156.297 319.797L151.697 315.497L149.997 313.297L148.997 311.397L147.597 309.597L145.597 308.897L142.997 308.797L141.397 308.497L140.097 308.997L139.097 309.197L138.297 309.797L137.297 310.197H135.597L133.797 310.497L132.597 311.197L129.897 312.197L127.797 310.897L127.097 310.697L126.497 309.797L126.597 306.197L124.597 304.897L125.997 301.497L128.297 300.297L130.397 298.297L131.897 295.297L132.997 286.297L134.497 280.097L139.197 274.397L142.497 273.897L145.097 272.897L147.497 270.797ZM60.7973 155.697L68.7973 153.797L69.9973 153.297L71.6973 152.397L72.5973 151.797L74.1973 151.297H76.5973L80.9973 152.397L87.2973 154.997L90.0973 155.597L92.6973 155.697L97.0973 154.397L100.297 156.597L101.297 157.097L104.897 159.797L105.797 160.797L106.197 161.797L105.897 162.797L105.297 163.597V164.697L106.197 166.497L106.697 168.897L107.197 170.597L108.097 172.197L108.297 173.597L108.197 174.897L107.897 176.097L108.197 176.897L108.597 177.497L108.697 178.497L107.297 182.597L107.897 184.297L107.997 186.297L108.297 187.997L110.297 191.497L111.797 193.297L108.397 193.497L104.797 194.897L101.197 196.797L100.497 198.297L99.9973 199.897L100.297 203.397L100.697 205.197L101.197 206.397L101.097 207.797L100.797 208.997L99.4973 210.797L97.6973 212.197L96.5973 213.797L96.4973 216.697L95.7973 219.397L91.9973 222.297L90.2973 223.197L88.2973 223.497L85.8973 223.297L85.0973 224.197L85.1973 225.197L84.4973 226.797L80.5973 224.997L79.4973 224.297L78.9973 223.497L78.0973 223.197L76.9973 222.997L75.7973 223.797L73.0973 224.897L69.8973 224.797L68.7973 224.997L67.3973 225.097L68.5973 222.697L68.6973 221.797L67.7973 220.297V219.397L67.9973 218.497L68.2973 217.897L68.7973 217.297L69.5973 216.797L70.5973 216.697L71.7973 216.997L72.6973 216.797L73.3973 215.997L73.7973 214.297L74.0973 211.997L73.6973 211.397L72.5973 210.497L72.4973 209.297L72.0973 207.697L72.2973 205.397L72.5973 204.197L72.1973 201.697L71.5973 199.297L70.0973 196.797L69.2973 196.097L68.6973 195.797L68.0973 196.097L65.6973 198.797L64.9973 198.897L64.2973 198.197L64.4973 197.497L64.7973 196.797L65.3973 196.197L66.1973 195.597L66.7973 194.897V193.997L64.3973 188.997L64.2973 187.597L64.0973 185.997L64.1973 184.097L63.4973 182.997L61.5973 181.697L61.1973 180.997V179.997L60.9973 179.097V177.997L61.0973 176.597L61.2973 175.497L60.3973 166.697L60.7973 155.697Z" fill="white" stroke="#f0f3fd" stroke-width="0.5" stroke-linecap="round" stroke-linejoin="round"/>
<path d="M129.697 312.298L132.397 311.298L133.597 310.598L135.397 310.298H137.097L138.097 309.898L138.897 309.298L139.897 309.098L141.197 308.598L142.797 308.898L145.397 308.998L147.397 309.698L148.797 311.498L149.797 313.398L151.497 315.598L156.097 319.898L157.697 321.898L157.997 323.398V325.098L154.197 333.598L151.997 335.698L149.397 336.898L146.697 338.798L141.597 340.898L139.597 341.098L138.097 341.398L137.997 345.998L138.197 347.498L137.797 348.798L136.397 348.998L133.897 347.998L132.997 348.698L131.897 349.898L127.697 351.698L125.497 353.198L123.797 353.498L121.197 351.598L120.397 350.598L117.897 349.698L117.797 348.398L117.497 347.598L115.597 346.698L114.297 346.598L112.897 346.898L111.597 346.598L110.697 345.598L110.797 344.298L111.397 342.798L111.597 341.198L111.397 339.798L110.297 338.098L110.597 336.498L110.497 336.098L110.997 334.998L111.997 334.398L112.897 331.898L113.597 331.398L114.397 331.498L114.997 331.198L115.097 330.498L115.397 329.398L115.597 328.198L116.597 326.598L118.197 325.498L119.797 324.898L121.297 324.598H122.497L123.697 324.298L124.297 323.198L123.197 322.098L122.797 320.798L123.297 319.398L124.297 318.398L124.897 316.998L124.997 316.098L125.597 315.598L126.897 315.498H128.097L129.097 314.798L129.697 312.298Z" fill="white" stroke="#f0f3fd" stroke-width="0.5" stroke-linecap="round" stroke-linejoin="round"/>
<path d="M65.9973 328.297L67.5973 327.797L68.2973 327.997L68.1973 326.997L67.7973 326.097L66.8973 324.997L67.0973 324.197L68.1973 323.697L69.0973 324.097L69.6973 324.497L70.6973 323.897L73.0973 320.097L73.4973 318.397L73.1973 317.297L72.9973 315.497L73.8973 313.497L74.7973 312.097L75.7973 309.397L76.7973 307.997L77.1973 306.997L77.6973 306.897L77.9973 307.497L77.6973 308.897L77.9973 309.997L78.9973 310.497L80.5973 310.097L81.9973 309.397L83.6973 306.297V304.897L83.4973 303.397L82.9973 302.397V301.297L83.4973 300.697L84.4973 300.197H85.2973L85.9973 300.297L87.3973 298.497L89.0973 297.097L90.4973 295.497L91.7973 295.097L92.6973 295.297L93.5973 298.597L93.9973 299.497L95.5973 299.797L98.3973 298.697L99.0973 297.597L99.5973 296.497L99.6973 295.697L100.397 294.597L101.197 294.397L102.197 294.797L104.897 296.997L105.997 298.197L107.397 298.897L110.497 299.697L111.897 300.597L113.597 301.097L115.097 301.697L117.897 303.597L121.397 304.797L122.497 305.397L123.197 305.697L124.397 305.197L126.397 306.497L126.297 310.097L126.897 310.997L127.597 311.197L129.697 312.497L128.997 314.497L127.997 315.197H126.797L125.497 315.297L124.897 315.797L124.797 316.697L124.197 318.097L123.197 319.097L122.697 320.497L123.097 321.797L124.197 322.897L123.597 323.997L122.397 324.297H121.197L119.697 324.597L118.097 325.197L116.497 326.297L115.497 327.897L115.297 329.097L114.997 330.197L114.897 330.897L114.797 331.097L113.997 330.997L113.297 331.497L112.397 333.997L111.397 334.597L110.897 335.697L110.997 336.097L110.697 337.697L110.097 338.597L109.297 339.497L106.897 341.197L105.397 341.397L104.097 340.897L103.197 340.397L101.997 339.997L99.7973 339.897L95.1973 338.397L93.6973 337.497L90.5973 337.197L83.3973 335.097L82.8973 334.197L83.1973 333.397V332.197L82.2973 331.797L79.4973 332.897L78.9973 332.297L79.0973 331.197L78.6973 330.297L75.7973 330.697L74.4973 331.297L72.8973 330.797L71.4973 331.497L67.7973 331.397L65.9973 328.297ZM59.0973 255.997L57.5973 255.097L55.6973 253.197L54.7973 251.797L54.0973 249.897L52.8973 247.797L52.1973 245.997L51.5973 244.897L48.9973 244.197L47.4973 242.897L46.0973 241.897L44.3973 239.397L44.1973 237.597L43.8973 236.097L44.0973 233.997L43.9973 232.197L43.6973 231.097V229.697L43.3973 228.997L43.1973 226.297L46.6973 225.097L57.4973 223.997L58.7973 224.197L60.0973 224.097L65.6973 224.797L67.2973 225.297L68.7973 224.997L69.8973 224.597L73.0973 224.697L75.7973 223.597L76.9973 222.797L78.0973 222.997L78.9973 223.297L79.4973 224.097L80.5973 224.797L84.4973 226.597L83.6973 229.397L83.3973 232.097L82.3973 233.197L79.8973 234.897L78.5973 235.497L74.2973 238.697L71.9973 240.997L67.8973 241.797L67.1973 242.497L63.2973 244.797L62.1973 246.197L61.6973 247.997L61.8973 251.197L61.2973 252.797L60.5973 253.397L59.0973 255.997Z" fill="white" stroke="#f0f3fd" stroke-width="0.5" stroke-linecap="round" stroke-linejoin="round"/>
<path d="M72.9972 315.297L71.9972 315.697L71.1972 316.297L70.2972 316.797L69.4972 317.497L68.4972 317.597L67.2972 317.097L63.7972 314.997L61.8972 314.397L60.4972 313.497L59.4972 312.597L58.6972 310.497V308.397L56.5972 299.697L56.9972 298.797L58.1972 298.697L59.6972 298.597L60.6972 298.497L64.3972 296.497L66.4972 294.697L67.0972 293.897L68.1972 293.397L70.0972 293.297L71.2972 293.797L72.1972 293.897L73.0972 293.697L73.7972 293.597L74.8972 293.297L75.7972 292.597L79.6972 290.197L80.7972 289.097L81.8972 288.297L83.6972 285.997L84.1972 284.397L83.5972 283.197L82.5972 281.797L81.8972 280.097L80.6972 278.197L76.6972 273.697L75.2972 271.697L74.5972 269.497V268.397L75.4972 267.597L78.4972 267.897L80.8972 267.697L82.2972 267.297L84.3972 265.297L85.5972 264.597L86.7972 263.797L88.1972 262.997L91.5972 260.497L93.7972 259.797L95.6972 259.397L97.3972 259.297L98.4972 260.097L100.197 260.697L101.497 261.997L102.997 263.197L107.697 264.197L109.597 263.597L110.497 262.397L110.797 261.197L111.297 260.297L112.797 260.497L113.897 261.897L115.497 262.997L117.097 263.197L119.697 262.197L120.897 261.497L122.297 259.797L123.297 258.197L124.797 257.297L126.097 257.097L127.697 257.297L129.197 257.097L130.797 257.197L132.197 258.097L133.997 260.697L134.897 264.997L135.997 267.297L138.497 270.797L139.097 272.197L139.197 274.397L134.497 280.097L132.997 286.297L131.897 295.297L130.397 298.297L128.297 300.297L125.997 301.497L124.597 304.897L123.397 305.397L122.697 305.097L121.597 304.497L118.097 303.297L115.297 301.397L113.797 300.797L112.097 300.297L110.697 299.397L107.597 298.597L106.197 297.897L105.097 296.697L102.397 294.497L101.397 294.097L100.597 294.297L99.8972 295.397L99.7972 296.197L99.2972 297.297L98.5972 298.397L95.7972 299.497L94.1972 299.197L93.7972 298.297L92.8972 294.997H91.6972L90.4972 295.497L89.0972 297.097L87.3972 298.497L85.9972 300.297L85.2972 300.197H84.4972L83.4972 300.697L82.9972 301.297V302.397L83.4972 303.397L83.6972 304.897V306.297L81.9972 309.397L80.5972 310.097L78.9972 310.497L77.9972 309.997L77.6972 308.897L77.9972 307.497L77.6972 306.897L77.1972 306.997L76.7972 307.997L75.7972 309.397L74.7972 312.097L73.9972 313.297C74.0972 313.297 72.9972 315.297 72.9972 315.297ZM108.097 224.697L107.597 224.397L107.697 223.797L107.897 223.297L107.497 223.097H107.097L106.697 223.397L106.297 223.697L106.097 224.297V224.997L105.797 225.397L104.597 225.297H103.997L103.597 225.897L103.197 225.297L102.697 225.897L102.297 226.497L102.497 227.397L102.597 227.897L102.397 228.497L101.797 229.097L100.797 229.797L99.9972 230.597L99.6972 231.197L99.7972 231.797L99.6972 232.497L99.7972 233.097L100.197 233.897L100.297 234.597V235.297L100.697 235.597L101.097 235.497L101.397 236.397V237.597L101.197 238.197L100.597 238.497L99.9972 238.597L99.7972 238.997L99.8972 239.597L99.7972 239.897L99.2972 239.997H96.3972L96.0972 239.697L96.3972 238.297L96.0972 237.697L94.9972 236.897L93.8972 236.197L93.6972 235.097L93.9972 233.797L94.3972 233.297L95.0972 233.197L95.3972 233.097V232.397L94.4972 231.397L93.8972 230.997L93.3972 230.797L92.8972 230.297L92.4972 229.597L92.5972 229.097L93.2972 228.897L94.3972 228.597L94.9972 228.397L95.3972 227.897L96.1972 227.797L96.6972 227.197L96.8972 226.597L97.4972 226.497L97.5972 226.197L97.2972 225.797L97.3972 224.197L97.8972 223.497L98.9972 223.097L99.3972 222.497L99.8972 222.297H100.697L100.997 221.897L101.497 221.197L102.297 220.397L102.897 220.097L103.797 219.797H104.597L105.597 220.197L106.597 220.697L107.097 221.197L107.797 221.997L108.897 222.697L109.297 223.297L109.397 223.797L108.997 224.397L108.497 224.797L108.097 224.697Z" fill="white" stroke="#f0f3fd" stroke-width="0.5" stroke-linecap="round" stroke-linejoin="round"/>
</g>
<defs>
<clipPath id="clip0_1370_110005">
<rect width="735.7" height="430.5" fill="white" transform="translate(0.297363 0.796875)"/>
</clipPath>
</defs>
</svg>
