<?xml version="1.0" encoding="UTF-8"?>
<!DOCTYPE svg PUBLIC "-//W3C//DTD SVG 1.1//EN" "http://www.w3.org/Graphics/SVG/1.1/DTD/svg11.dtd">
<svg xmlns="http://www.w3.org/2000/svg" version="1.1" width="1000px" height="222px" style="shape-rendering:geometricPrecision; text-rendering:geometricPrecision; image-rendering:optimizeQuality; fill-rule:evenodd; clip-rule:evenodd" xmlns:xlink="http://www.w3.org/1999/xlink">
<g><path style="opacity:0.992" fill="#fefffe" d="M -0.5,-0.5 C 332.833,-0.5 666.167,-0.5 999.5,-0.5C 999.5,28.8333 999.5,58.1667 999.5,87.5C 946.309,97.5235 892.643,102.357 838.5,102C 814.698,100.985 791.032,98.6516 767.5,95C 724.125,86.1251 680.792,77.1251 637.5,68C 604.323,62.6918 572.656,67.3585 542.5,82C 515.571,96.8002 488.905,112.134 462.5,128C 426.626,148.104 388.959,152.104 349.5,140C 310.997,126.609 272.663,112.609 234.5,98C 201.702,87.0892 168.035,80.9225 133.5,79.5C 106.09,80.4679 79.0897,84.3012 52.5,91C 34.7162,95.8736 17.0495,101.04 -0.5,106.5C -0.5,70.8333 -0.5,35.1667 -0.5,-0.5 Z"/></g>
</svg>
