<?xml version="1.0" encoding="utf-8"?>
<svg viewBox="0 0 157 55" fill="none" xmlns="http://www.w3.org/2000/svg">
  <defs>
    <linearGradient id="paint0_linear_1370_49215" x1="152.263" y1="5.33487" x2="3.36544" y2="50.4671" gradientUnits="userSpaceOnUse" spreadMethod="pad">
      <stop stop-color="#F8F8FF"/>
      <stop offset="1" stop-color="white"/>
    </linearGradient>
  </defs>
  <rect x="1.15527" y="0.796875" width="154.593" height="53" rx="12" fill="url(#paint0_linear_1370_49215)"/>
  <path d="M69.1183 19.7726H69.9754V21.2012H69.1183V22.2012C69.1183 22.5155 69.004 22.7869 68.7754 23.0155C68.5469 23.244 68.2897 23.344 67.9754 23.344H65.9754C65.6183 23.344 65.2897 23.2869 64.9754 23.144C64.6612 23.0155 64.3754 22.8297 64.1469 22.6012C63.9183 22.3726 63.7326 22.0869 63.604 21.7726C63.4612 21.4583 63.404 21.1297 63.404 20.7726V18.2012C63.404 18.1297 63.4326 18.0583 63.4897 18.0012C63.5469 17.944 63.604 17.9155 63.6897 17.9155H64.5469C64.6183 17.9155 64.6897 17.944 64.7469 18.0012C64.804 18.0583 64.8326 18.1297 64.8326 18.2012V20.7726C64.8326 21.0869 64.9326 21.3583 65.1612 21.5869C65.3897 21.8155 65.6612 21.9155 65.9754 21.9155H67.6897V16.7726C67.6897 16.7012 67.7183 16.6297 67.7754 16.5726C67.8326 16.5155 67.8897 16.4869 67.9754 16.4869H68.8326C68.904 16.4869 68.9754 16.5155 69.0326 16.5726C69.0897 16.6297 69.1183 16.7012 69.1183 16.7726V19.7726ZM65.4754 14.844C65.4754 14.6726 65.5469 14.5155 65.704 14.3869C65.8469 14.2726 66.0326 14.2012 66.2612 14.2012C66.4754 14.2012 66.6612 14.2726 66.8183 14.3869C66.9612 14.5155 67.0469 14.6726 67.0469 14.844C67.0469 15.0297 66.9612 15.1869 66.8183 15.3012C66.6612 15.4297 66.4754 15.4869 66.2612 15.4869C66.0326 15.4869 65.8469 15.4297 65.704 15.3012C65.5469 15.1869 65.4754 15.0297 65.4754 14.844ZM69.9785 21.2012C69.8499 21.2012 69.7499 21.1726 69.6642 21.0869C69.5785 21.0012 69.5499 20.9012 69.5499 20.7726V20.2012C69.5499 20.0869 69.5785 19.9869 69.6642 19.9012C69.7499 19.8155 69.8499 19.7726 69.9785 19.7726H70.8357V18.6297C70.8357 18.3297 70.8928 18.0583 71.0357 17.8297C71.1785 17.6012 71.3642 17.4155 71.5928 17.2583C71.8214 17.1012 72.0785 16.9869 72.3785 16.9012C72.6642 16.8155 72.9785 16.7726 73.2928 16.7726C73.6642 16.7726 74.0499 16.8297 74.4214 16.944C74.7928 17.0583 75.1214 17.244 75.4071 17.4869V19.8869C75.4071 20.2155 75.3357 20.5012 75.2214 20.7297C75.0928 20.9583 74.9214 21.1583 74.7214 21.3155C74.5214 21.4726 74.2785 21.5869 74.0214 21.6583C73.7499 21.744 73.4785 21.7726 73.1928 21.7726C72.8214 21.7726 72.4785 21.7297 72.1928 21.6297C71.9071 21.5297 71.6071 21.3869 71.3071 21.2012H69.9785ZM72.2642 20.1012C72.3928 20.1869 72.5357 20.2583 72.6928 20.2869C72.8499 20.3297 73.0071 20.344 73.1785 20.344C73.3928 20.344 73.5785 20.3155 73.7357 20.2297C73.8928 20.1583 73.9785 20.044 73.9785 19.8869V18.3583C73.8928 18.3155 73.7785 18.2726 73.6357 18.244C73.4928 18.2155 73.3499 18.2012 73.2071 18.2012C72.9642 18.2012 72.7499 18.2583 72.5499 18.344C72.3499 18.444 72.2642 18.6155 72.2642 18.844V20.1012ZM84.5578 19.7726H85.4149V21.2012H84.5578V22.2012C84.5578 22.5155 84.4435 22.7869 84.2149 23.0155C83.9863 23.244 83.7292 23.344 83.4149 23.344H81.4149C81.0578 23.344 80.7292 23.2869 80.4149 23.144C80.1006 23.0155 79.8149 22.8297 79.5863 22.6012C79.3578 22.3726 79.172 22.0869 79.0435 21.7726C78.9006 21.4583 78.8435 21.1297 78.8435 20.7726V18.9155C78.8435 18.844 78.872 18.7726 78.9292 18.7155C78.9863 18.6583 79.0435 18.6297 79.1292 18.6297H79.9863C80.0578 18.6297 80.1292 18.6583 80.1863 18.7155C80.2435 18.7726 80.272 18.844 80.272 18.9155V20.7726C80.272 21.0869 80.372 21.3583 80.6006 21.5869C80.8292 21.8155 81.1006 21.9155 81.4149 21.9155H83.1292V13.6297C83.1292 13.5583 83.1578 13.4869 83.2149 13.4297C83.272 13.3726 83.3292 13.344 83.4149 13.344H84.272C84.3435 13.344 84.4149 13.3726 84.472 13.4297C84.5292 13.4869 84.5578 13.5583 84.5578 13.6297V19.7726ZM84.9894 20.2012C84.9894 20.0869 85.018 19.9869 85.1037 19.9012C85.1894 19.8155 85.2894 19.7726 85.418 19.7726H87.5608V16.7726C87.5608 16.7012 87.5894 16.6297 87.6465 16.5726C87.7037 16.5155 87.7608 16.4869 87.8465 16.4869H88.7037C88.7751 16.4869 88.8465 16.5155 88.9037 16.5726C88.9608 16.6297 88.9894 16.7012 88.9894 16.7726V20.0583C88.9894 20.3726 88.8751 20.644 88.6465 20.8726C88.418 21.1012 88.1608 21.2012 87.8465 21.2012H85.418C85.2894 21.2012 85.1894 21.1726 85.1037 21.0869C85.018 21.0012 84.9894 20.9012 84.9894 20.7726V20.2012ZM85.1323 23.1297C85.1323 22.9583 85.2037 22.8012 85.3608 22.6726C85.5037 22.5583 85.6894 22.4869 85.918 22.4869C86.1323 22.4869 86.318 22.5583 86.4751 22.6726C86.618 22.8012 86.7037 22.9583 86.7037 23.1297C86.7037 23.3155 86.618 23.4726 86.4751 23.5869C86.318 23.7155 86.1323 23.7726 85.918 23.7726C85.6894 23.7726 85.5037 23.7155 85.3608 23.5869C85.2037 23.4726 85.1323 23.3155 85.1323 23.1297ZM86.9894 23.1297C86.9894 22.9583 87.0608 22.8012 87.218 22.6726C87.3608 22.5583 87.5465 22.4869 87.7751 22.4869C87.9894 22.4869 88.1751 22.5583 88.3323 22.6726C88.4751 22.8012 88.5608 22.9583 88.5608 23.1297C88.5608 23.3155 88.4751 23.4726 88.3323 23.5869C88.1751 23.7155 87.9894 23.7726 87.7751 23.7726C87.5465 23.7726 87.3608 23.7155 87.218 23.5869C87.0608 23.4726 86.9894 23.3155 86.9894 23.1297ZM92.1275 16.4869C92.1989 16.4869 92.2704 16.5155 92.3275 16.5726C92.3847 16.6297 92.4132 16.7012 92.4132 16.7726V19.7726H93.2704V21.2012H92.4132C92.4132 21.6297 92.3561 22.0012 92.2561 22.3012C92.1418 22.6155 91.9989 22.8583 91.8132 23.0583C91.6132 23.2583 91.3847 23.4155 91.1275 23.5012C90.8704 23.5869 90.5847 23.6297 90.2847 23.6297C89.9418 23.6297 89.5989 23.5869 89.2561 23.4869L89.5847 22.2012C89.7275 22.244 89.8704 22.2583 90.0418 22.2583C90.3132 22.2583 90.5418 22.1869 90.7132 22.0297C90.8847 21.8726 90.9847 21.6012 90.9847 21.2012V16.7726C90.9847 16.7012 91.0132 16.6297 91.0704 16.5726C91.1275 16.5155 91.1847 16.4869 91.2704 16.4869H92.1275ZM90.9132 14.844C90.9132 14.6726 90.9847 14.5155 91.1418 14.3869C91.2847 14.2726 91.4704 14.2012 91.6989 14.2012C91.9132 14.2012 92.0989 14.2726 92.2561 14.3869C92.3989 14.5155 92.4847 14.6726 92.4847 14.844C92.4847 15.0297 92.3989 15.1869 92.2561 15.3012C92.0989 15.4297 91.9132 15.4869 91.6989 15.4869C91.4704 15.4869 91.2847 15.4297 91.1418 15.3012C90.9847 15.1869 90.9132 15.0297 90.9132 14.844ZM92.841 20.2012C92.841 20.0869 92.8695 19.9869 92.9552 19.9012C93.041 19.8155 93.141 19.7726 93.2695 19.7726H94.6981V16.7726C94.6981 16.7012 94.7267 16.6297 94.7838 16.5726C94.841 16.5155 94.8981 16.4869 94.9838 16.4869H95.841C95.9124 16.4869 95.9838 16.5155 96.041 16.5726C96.0981 16.6297 96.1267 16.7012 96.1267 16.7726V19.7726H97.5552V21.2012H93.2695C93.141 21.2012 93.041 21.1726 92.9552 21.0869C92.8695 21.0012 92.841 20.9012 92.841 20.7726V20.2012ZM94.6267 14.844C94.6267 14.6726 94.6981 14.5155 94.8552 14.3869C94.9981 14.2726 95.1838 14.2012 95.4124 14.2012C95.6267 14.2012 95.8124 14.2726 95.9695 14.3869C96.1124 14.5155 96.1981 14.6726 96.1981 14.844C96.1981 15.0297 96.1124 15.1869 95.9695 15.3012C95.8124 15.4297 95.6267 15.4869 95.4124 15.4869C95.1838 15.4869 94.9981 15.4297 94.8552 15.3012C94.6981 15.1869 94.6267 15.0297 94.6267 14.844ZM97.1281 20.2012C97.1281 20.0869 97.1566 19.9869 97.2424 19.9012C97.3281 19.8155 97.4281 19.7726 97.5566 19.7726H98.9852V16.7726C98.9852 16.7012 99.0138 16.6297 99.0709 16.5726C99.1281 16.5155 99.1852 16.4869 99.2709 16.4869H100.128C100.199 16.4869 100.271 16.5155 100.328 16.5726C100.385 16.6297 100.414 16.7012 100.414 16.7726V20.0583C100.414 20.3726 100.299 20.644 100.071 20.8726C99.8424 21.1012 99.5852 21.2012 99.2709 21.2012H97.5566C97.4281 21.2012 97.3281 21.1726 97.2424 21.0869C97.1566 21.0012 97.1281 20.9012 97.1281 20.7726V20.2012ZM97.6281 14.844C97.6281 14.6726 97.6995 14.5155 97.8566 14.3869C97.9995 14.2726 98.1852 14.2012 98.4138 14.2012C98.6281 14.2012 98.8138 14.2726 98.9709 14.3869C99.1138 14.5155 99.1995 14.6726 99.1995 14.844C99.1995 15.0297 99.1138 15.1869 98.9709 15.3012C98.8138 15.4297 98.6281 15.4869 98.4138 15.4869C98.1852 15.4869 97.9995 15.4297 97.8566 15.3012C97.6995 15.1869 97.6281 15.0297 97.6281 14.844ZM99.4852 14.844C99.4852 14.6726 99.5566 14.5155 99.7138 14.3869C99.8566 14.2726 100.042 14.2012 100.271 14.2012C100.485 14.2012 100.671 14.2726 100.828 14.3869C100.971 14.5155 101.057 14.6726 101.057 14.844C101.057 15.0297 100.971 15.1869 100.828 15.3012C100.671 15.4297 100.485 15.4869 100.271 15.4869C100.042 15.4869 99.8566 15.4297 99.7138 15.3012C99.5566 15.1869 99.4852 15.0297 99.4852 14.844Z" style="fill: rgb(67, 83, 194);"/>
  <path d="M72.8783 31.8468V34.1785H71.4225V35.7076H72.8783V40.9032C72.8783 42.6773 73.6778 43.387 75.689 43.387C76.0425 43.387 76.3791 43.3447 76.6736 43.2941V41.7818C76.4212 41.8072 76.2613 41.8241 75.9836 41.8241C75.0831 41.8241 74.6876 41.4017 74.6876 40.4386V35.7076H76.6736V34.1785H74.6876V31.8468H72.8783Z" style="fill: rgb(67, 83, 194);"/>
  <path d="M81.7972 43.5137C84.4733 43.5137 86.1143 41.7143 86.1143 38.7321C86.1143 35.7667 84.4649 33.9588 81.7972 33.9588C79.1211 33.9588 77.4717 35.7667 77.4717 38.7321C77.4717 41.7143 79.1127 43.5137 81.7972 43.5137ZM81.7972 41.9001C80.2235 41.9001 79.3399 40.7427 79.3399 38.7321C79.3399 36.7383 80.2235 35.5724 81.7972 35.5724C83.3625 35.5724 84.2545 36.7383 84.2545 38.7321C84.2545 40.7343 83.3625 41.9001 81.7972 41.9001Z" style="fill: rgb(67, 83, 194);"/>
  <path d="M87.5183 43.3363H89.3276V37.9041C89.3276 36.6116 90.2953 35.7414 91.667 35.7414C91.9868 35.7414 92.5254 35.8005 92.6769 35.8512V34.0602C92.4833 34.0095 92.1383 33.9842 91.869 33.9842C90.674 33.9842 89.6558 34.6431 89.3949 35.5471H89.2602V34.1363H87.5183V43.3363Z" style="fill: rgb(67, 83, 194);"/>
  <path d="M97.1693 35.5049C98.5073 35.5049 99.3825 36.4426 99.4246 37.8872H94.7962C94.8972 36.451 95.8313 35.5049 97.1693 35.5049ZM99.4162 40.8525C99.0796 41.5706 98.3306 41.9677 97.2366 41.9677C95.7892 41.9677 94.8551 40.9455 94.7962 39.3319V39.2305H101.268V38.5969C101.268 35.7076 99.7275 33.9588 97.1777 33.9588C94.5942 33.9588 92.9532 35.8259 92.9532 38.7658C92.9532 41.7058 94.5605 43.5137 97.1861 43.5137C99.2815 43.5137 100.746 42.4999 101.158 40.8525H99.4162Z" style="fill: rgb(67, 83, 194);"/>
  <path d="M61.0132 39.9389C61.1528 42.198 63.0281 43.6428 65.8192 43.6428C68.8022 43.6428 70.6688 42.1279 70.6688 39.7112C70.6688 37.8111 69.6046 36.7603 67.0229 36.1562L65.636 35.8147C63.9963 35.4294 63.3334 34.9128 63.3334 34.0109C63.3334 32.8726 64.3626 32.1283 65.9064 32.1283C67.3718 32.1283 68.3835 32.855 68.5667 34.0196H70.4681C70.3548 31.8919 68.4882 30.3945 65.9326 30.3945C63.1851 30.3945 61.3534 31.8919 61.3534 34.1422C61.3534 35.9985 62.3914 37.1018 64.6679 37.636L66.2902 38.03C67.9561 38.424 68.6888 39.0019 68.6888 39.9651C68.6888 41.0859 67.5375 41.9003 65.9675 41.9003C64.2841 41.9003 63.1153 41.1385 62.9496 39.9389H61.0132Z" style="fill: rgb(67, 83, 194);"/>
  <path d="M42.2708 33.9842C41.0254 33.9842 39.9482 34.6093 39.3928 35.6569H39.2582V34.1363H37.5162V46.3945H39.3255V41.9424H39.4685C39.9482 42.9139 40.9833 43.4884 42.2877 43.4884C44.6019 43.4884 46.0746 41.6551 46.0746 38.7321C46.0746 35.809 44.6019 33.9842 42.2708 33.9842ZM41.7575 41.8579C40.2427 41.8579 39.2918 40.6582 39.2918 38.7405C39.2918 36.8143 40.2427 35.6147 41.7659 35.6147C43.2975 35.6147 44.2148 36.789 44.2148 38.7321C44.2148 40.6836 43.2975 41.8579 41.7575 41.8579Z" style="fill: rgb(67, 83, 194);"/>
  <path d="M52.4056 33.9842C51.1601 33.9842 50.0829 34.6093 49.5275 35.6569H49.3929V34.1363H47.6509V46.3945H49.4602V41.9424H49.6033C50.0829 42.9139 51.118 43.4884 52.4224 43.4884C54.7366 43.4884 56.2093 41.6551 56.2093 38.7321C56.2093 35.809 54.7366 33.9842 52.4056 33.9842ZM51.8922 41.8579C50.3775 41.8579 49.4265 40.6582 49.4265 38.7405C49.4265 36.8143 50.3775 35.6147 51.9006 35.6147C53.4322 35.6147 54.3495 36.789 54.3495 38.7321C54.3495 40.6836 53.4322 41.8579 51.8922 41.8579Z" style="fill: rgb(67, 83, 194);"/>
  <path d="M34.27 43.3363H36.3459L31.8016 30.701H29.6996L25.1553 43.3363H27.1614L28.3214 39.9826H33.1187L34.27 43.3363ZM30.6503 32.9951H30.7986L32.6215 38.3365H28.8186L30.6503 32.9951Z" style="fill: rgb(67, 83, 194);"/>
  <path d="M128.17 29.1583C127.379 25.138 130.876 22.9904 131.132 22.84C130.643 22.1847 130.037 21.6263 129.343 21.1936C127.253 19.8904 124.706 19.7689 123.191 20.4342L123.146 20.4539C122.414 20.7725 121.625 20.937 120.827 20.937C120.029 20.937 119.24 20.7725 118.509 20.4539L118.463 20.4342C116.944 19.7674 114.402 19.8889 112.311 21.1936C110.221 22.4983 108.189 25.4342 109.219 31.066C110.249 36.6978 114.008 40.1243 114.008 40.1243C114.589 40.5779 115.282 40.8655 116.013 40.9565C116.744 41.0474 117.487 40.9383 118.161 40.6407C119.638 39.9967 120.311 39.8813 120.607 39.8919C120.759 39.8919 120.9 39.8919 121.048 39.8919C121.344 39.8843 122.017 39.9967 123.494 40.6407C124.168 40.9383 124.91 41.0474 125.641 40.9565C126.373 40.8655 127.065 40.5779 127.646 40.1243C127.646 40.1243 130.279 37.726 131.748 33.6389C130.484 33.0663 128.687 31.795 128.17 29.1583Z" style="fill: rgb(67, 83, 194);"/>
  <path d="M120.161 20.2276C120.161 20.2276 119.499 14.6079 125.829 13.6055L125.803 14.3649C125.752 15.8664 125.148 17.2963 124.107 18.3796C123.065 19.4629 121.66 20.1232 120.161 20.2336V20.2276Z" style="fill: rgb(67, 83, 194);"/>
  <rect x="1.15527" y="0.796875" width="154.593" height="53" rx="12" stroke="#4353c2"/>
</svg>