<?xml version="1.0" encoding="UTF-8"?>
<svg version="1.1" xmlns="http://www.w3.org/2000/svg" width="441" height="534">
<path d="M0 0 C1.57336006 0.40908451 3.14548413 0.82321641 4.71313477 1.25366211 C3.30270034 4.4564624 1.62519662 6.58055769 -0.85905457 9.03271484 C-1.97129395 10.13823952 -1.97129395 10.13823952 -3.10600281 11.26609802 C-3.92003067 12.06508011 -4.73405853 12.86406219 -5.57275391 13.68725586 C-6.42986969 14.53663223 -7.28698547 15.38600861 -8.17007446 16.26112366 C-10.03359355 18.10697807 -11.89878407 19.9509566 -13.76680565 21.79223633 C-16.72871303 24.71266175 -19.68127824 27.6424107 -22.63215637 30.57397461 C-31.02443326 38.90878006 -39.42643704 47.23368975 -47.84375 55.54321289 C-52.49377188 60.13384755 -57.13453835 64.73363918 -61.76565343 69.3433485 C-64.21203261 71.7775719 -66.6628726 74.20687947 -69.12544823 76.62472534 C-71.88002776 79.33324089 -74.61844967 82.05720065 -77.35400391 84.78491211 C-78.15791061 85.56770035 -78.96181732 86.35048859 -79.79008484 87.15699768 C-90.35275897 97.77535153 -96.23237349 109.63828869 -96.72436523 124.62866211 C-96.15195223 150.23113486 -77.53983998 165.15549395 -60.72436523 181.87866211 C-59.12712637 183.47087566 -57.53011923 185.06332172 -55.93334961 186.65600586 C-52.05385495 190.52457729 -48.17123674 194.38998772 -44.28686523 198.25366211 C-43.95686523 191.65366211 -43.62686523 185.05366211 -43.28686523 178.25366211 C-39.28686523 182.25366211 -35.28686523 186.25366211 -31.28686523 190.25366211 C-26.75147801 186.5678431 -22.96132362 182.79269894 -19.28686523 178.25366211 C-18.95686523 178.25366211 -18.62686523 178.25366211 -18.28686523 178.25366211 C-18.27877838 178.83804047 -18.27069153 179.42241882 -18.26235962 180.02450562 C-18.17648959 186.09135186 -18.07699449 192.1578647 -17.96948242 198.22436523 C-17.93113253 200.49025893 -17.89629041 202.75621476 -17.86499023 205.0222168 C-17.81946997 208.27407077 -17.76145448 211.52549471 -17.70092773 214.77709961 C-17.68360092 216.30371719 -17.68360092 216.30371719 -17.66592407 217.86117554 C-17.63611954 219.27241196 -17.63611954 219.27241196 -17.60571289 220.7121582 C-17.58572739 221.9579213 -17.58572739 221.9579213 -17.56533813 223.22885132 C-17.46350982 225.47979825 -17.46350982 225.47979825 -15.28686523 227.25366211 C-14.79186523 188.64366211 -14.79186523 188.64366211 -14.28686523 149.25366211 C-10.0590169 152.87753211 -6.12819426 156.29592917 -2.28686523 160.25366211 C1.38134265 158.7534063 3.36050593 156.6310658 5.90063477 153.62866211 C7.15355572 152.15491093 8.41976951 150.69205002 9.71313477 149.25366211 C10.04313477 149.25366211 10.37313477 149.25366211 10.71313477 149.25366211 C10.71900101 150.56244827 10.72486725 151.87123444 10.73091125 153.21968079 C10.78805209 165.53628213 10.86076825 177.85270545 10.94884968 190.16912556 C10.99363272 196.50157214 11.03287133 202.8339532 11.05957031 209.16650391 C11.08552411 215.27444449 11.12587017 221.38213399 11.17632103 227.48991966 C11.19304347 229.82354809 11.20452412 232.15722 11.21074867 234.49090004 C11.22033129 237.75234103 11.24832072 241.01313176 11.28076172 244.27441406 C11.27932663 245.24545578 11.27789154 246.2164975 11.27641296 247.21696472 C11.28895111 248.10457489 11.30148926 248.99218506 11.31440735 249.9066925 C11.3213208 251.0640036 11.3213208 251.0640036 11.32837391 252.24469471 C11.60508141 254.70708435 11.60508141 254.70708435 14.71313477 257.25366211 C15.20813477 188.94366211 15.20813477 188.94366211 15.71313477 119.25366211 C18.02313477 121.23366211 20.33313477 123.21366211 22.71313477 125.25366211 C24.71015539 126.92389754 26.70913415 128.59180794 28.71313477 130.25366211 C30.19533444 128.79841152 31.67380616 127.3393631 33.15063477 125.87866211 C33.9743457 125.06655273 34.79805664 124.25444336 35.64672852 123.41772461 C37.74748149 121.43017696 37.74748149 121.43017696 38.71313477 119.25366211 C39.37313477 119.25366211 40.03313477 119.25366211 40.71313477 119.25366211 C40.71809999 120.52644547 40.71809999 120.52644547 40.72316551 121.82494164 C40.8042943 142.44669489 40.89635322 163.06837389 41.00066185 183.69002342 C41.05083905 193.6623925 41.09728127 203.63475315 41.13500977 213.60717773 C41.16789336 222.29651284 41.20770424 230.98578347 41.25592482 239.67504752 C41.28122608 244.27832056 41.30299652 248.88155063 41.31647873 253.48487473 C41.32926633 257.81372863 41.35128461 262.14243543 41.38051796 266.47120857 C41.38961968 268.06355898 41.39528998 269.65593309 41.3973484 271.24830818 C41.40065276 273.41541278 41.41607957 275.58209563 41.43466187 277.74911499 C41.44019262 278.96403814 41.44572338 280.1789613 41.45142174 281.4307003 C41.42253554 284.38893786 41.42253554 284.38893786 43.71313477 286.25366211 C44.04313477 221.57366211 44.37313477 156.89366211 44.71313477 90.25366211 C45.37313477 90.25366211 46.03313477 90.25366211 46.71313477 90.25366211 C48.29907227 91.89819336 48.29907227 91.89819336 50.08813477 94.06616211 C52.43032666 96.89846024 54.69500061 99.1462865 57.71313477 101.25366211 C58.4955957 100.45959961 59.27805664 99.66553711 60.08422852 98.84741211 C61.10623254 97.8160319 62.12837511 96.78478895 63.15063477 95.75366211 C63.6669043 95.22901367 64.18317383 94.70436523 64.71508789 94.16381836 C66.02890264 92.84141659 67.36906982 91.54530643 68.71313477 90.25366211 C69.04313477 90.25366211 69.37313477 90.25366211 69.71313477 90.25366211 C70.04313477 158.56366211 70.37313477 226.87366211 70.71313477 297.25366211 C73.9481799 294.15138313 73.9481799 294.15138313 74.09789562 290.21443653 C74.10735216 289.38986543 74.1168087 288.56529432 74.12655181 287.71573621 C74.11928044 286.35728472 74.11928044 286.35728472 74.11186218 284.97138977 C74.11850901 284.00919169 74.12515584 283.04699361 74.13200408 282.05563802 C74.15072205 278.81725927 74.14802286 275.57924714 74.14550781 272.34082031 C74.15451959 270.02513096 74.16484536 267.70944641 74.1763916 265.39376831 C74.20405626 259.09454761 74.21325897 252.79541718 74.21924567 246.49614358 C74.22860475 239.91773643 74.25480606 233.33939738 74.2792511 226.7610321 C74.31851171 215.71553844 74.34633866 204.67005549 74.36669922 193.62451172 C74.38770043 182.24688096 74.414968 170.86929372 74.45068359 159.49169922 C74.45288242 158.79054343 74.45508124 158.08938764 74.4573467 157.3669847 C74.46841614 153.84953953 74.47960899 150.33209476 74.4908632 146.81465018 C74.58408842 117.62769516 74.65544593 88.44070855 74.71313477 59.25366211 C75.37313477 59.25366211 76.03313477 59.25366211 76.71313477 59.25366211 C78.33422852 60.89819336 78.33422852 60.89819336 80.15063477 63.06616211 C82.25777153 65.56468929 84.36554874 67.97786771 86.71313477 70.25366211 C89.87033048 68.85975672 91.99440006 67.21731239 94.40063477 64.75366211 C95.30362305 63.84100586 95.30362305 63.84100586 96.22485352 62.90991211 C97.79625878 61.30839301 97.79625878 61.30839301 98.71313477 59.25366211 C99.37313477 59.25366211 100.03313477 59.25366211 100.71313477 59.25366211 C101.04313477 127.56366211 101.37313477 195.87366211 101.71313477 266.25366211 C104.94598274 263.15724028 104.94598274 263.15724028 105.09789562 259.2300539 C105.10735216 258.40896619 105.1168087 257.58787848 105.12655181 256.74190933 C105.11928044 255.38929426 105.11928044 255.38929426 105.11186218 254.00935364 C105.11850901 253.05123911 105.12515584 252.09312458 105.13200408 251.10597628 C105.1507217 247.88141661 105.14802289 244.65722514 105.14550781 241.43261719 C105.15451961 239.12677991 105.16484538 236.82094744 105.1763916 234.51512146 C105.20405601 228.24275935 105.21325893 221.9704879 105.21924567 215.69807267 C105.22860481 209.14769258 105.25480613 202.59738088 105.2792511 196.04704285 C105.31851156 185.04862769 105.34633859 174.05022329 105.36669922 163.05175781 C105.38770049 151.72262954 105.4149681 140.39354498 105.45068359 129.06445312 C105.45288242 128.36628433 105.45508124 127.66811554 105.4573467 126.94879011 C105.46841614 123.44632901 105.47960899 119.94386831 105.4908632 116.4414078 C105.58408815 87.37886708 105.65544579 58.31629464 105.71313477 29.25366211 C106.17856689 29.65343262 106.64399902 30.05320313 107.12353516 30.46508789 C107.74220459 30.99602051 108.36087402 31.52695313 108.99829102 32.07397461 C109.60809814 32.59749512 110.21790527 33.12101562 110.84619141 33.66040039 C113.44917412 35.88180293 116.07903276 38.06928484 118.71313477 40.25366211 C120.19533444 38.79841152 121.67380616 37.3393631 123.15063477 35.87866211 C123.9743457 35.06655273 124.79805664 34.25444336 125.64672852 33.41772461 C127.74748149 31.43017696 127.74748149 31.43017696 128.71313477 29.25366211 C129.37313477 29.25366211 130.03313477 29.25366211 130.71313477 29.25366211 C131.04313477 97.56366211 131.37313477 165.87366211 131.71313477 236.25366211 C144.62438477 223.42491211 157.53563477 210.59616211 170.83813477 197.37866211 C174.90786621 193.34534668 178.97759766 189.31203125 183.1706543 185.15649414 C186.8349376 181.50559528 186.8349376 181.50559528 190.49655151 177.85202026 C192.11843261 176.23624874 193.74425454 174.62442668 195.3732605 173.01583862 C197.85171265 170.56688584 200.3170465 168.10536702 202.7800293 165.64086914 C203.49854128 164.93674959 204.21705326 164.23263004 204.95733833 163.50717354 C215.96534818 152.40884979 222.01057291 138.88966055 222.02783203 123.2644043 C221.69477068 106.90695309 212.94682208 94.82265587 201.65673828 83.77490234 C200.77789474 82.89868729 199.89905121 82.02247223 198.99357605 81.1197052 C197.10186812 79.23646443 195.20703937 77.35724517 193.30539131 75.48412895 C190.29947424 72.52318371 187.30820185 69.54772059 184.31858826 66.57032776 C179.59484733 61.86921934 174.8618307 57.17758165 170.12456793 52.49010283 C161.6190401 44.07376909 153.12517283 35.64570144 144.64140838 27.20743138 C141.6652326 24.24807996 138.68353743 21.29443627 135.69728577 18.34525383 C133.41572071 16.08988209 131.14031661 13.82830613 128.86376953 11.56787109 C127.6179158 10.34222946 127.6179158 10.34222946 126.34689331 9.09182739 C125.59973557 8.34770096 124.85257782 7.60357452 124.08277893 6.8368988 C123.42817971 6.18933845 122.77358049 5.54177809 122.09914494 4.87459469 C120.71313477 3.25366211 120.71313477 3.25366211 120.71313477 1.25366211 C141.03861167 -4.50865633 165.93993522 -8.3189075 185.71313477 1.25366211 C202.52768672 11.46172577 216.34690972 26.78209272 229.77563477 40.94116211 C231.12063616 42.354368 231.12063616 42.354368 232.4928093 43.7961235 C281.21534319 95.16379018 281.21534319 95.16379018 281.0793457 126.99853516 C280.75908326 137.82264326 277.7609551 147.75612768 273.15063477 157.50366211 C272.87735352 158.10436523 272.60407227 158.70506836 272.32250977 159.32397461 C265.08621871 173.55229373 249.79330439 185.31014608 238.65576172 196.42456055 C236.74233857 198.33714163 234.82967442 200.2504811 232.91697693 202.16378784 C228.82031475 206.26097096 224.72184536 210.35633881 220.62209511 214.45043182 C214.69475856 220.36959464 208.77022956 226.29156118 202.84635272 232.21418622 C193.23204667 241.82631092 183.61551589 251.43620661 173.99755859 261.04467773 C164.66206781 270.37097059 155.327642 279.69832725 145.99462891 289.02709961 C145.12974813 289.8915863 145.12974813 289.8915863 144.24739502 290.77353737 C141.35444491 293.66518231 138.46151554 296.556848 135.56859648 299.448524 C111.61998961 323.38678684 87.66776075 347.3214225 63.71313477 371.25366211 C60.62387486 369.87661106 58.5062362 368.29844323 56.11702251 365.91481876 C55.4166961 365.22094124 54.71636968 364.52706371 53.99482125 363.8121596 C53.2330578 363.04729894 52.47129434 362.28243828 51.68644714 361.49440002 C50.87125793 360.68374193 50.05606872 359.87308383 49.21617681 359.03786033 C46.95476116 356.78692304 44.69788973 354.53154163 42.44288766 352.27418244 C40.00940584 349.84029267 37.57021334 347.4121374 35.13179016 344.98320007 C30.35429799 340.22232667 25.58238192 335.45590188 20.81263515 330.68726981 C16.93311127 326.80869648 13.05201143 322.93170727 9.16979408 319.05583 C-1.84320763 308.06044704 -12.85200008 297.06087431 -23.85544626 286.05592871 C-24.4487447 285.46255036 -25.04204313 284.86917201 -25.65332031 284.2578125 C-26.24734509 283.66370596 -26.84136986 283.06959943 -27.45339539 282.45748966 C-37.06892684 272.84114627 -46.69438146 263.23480456 -56.3244193 253.63299025 C-66.21864315 243.76753481 -76.10534846 233.89459905 -85.98433608 224.01388592 C-91.52812726 218.46943195 -97.07493 212.92807171 -102.62983131 207.39474678 C-107.36232999 202.68051253 -112.08776279 197.95933177 -116.80436663 193.22919262 C-119.20833457 190.81872 -121.61632999 188.4126892 -124.03117752 186.01308823 C-126.6565889 183.40317755 -129.26925781 180.78111794 -131.87922668 178.15577698 C-132.63429797 177.41099281 -133.38936926 176.66620865 -134.1673215 175.89885527 C-147.74437856 162.14545664 -155.45644245 144.63576854 -155.66186523 125.25366211 C-155.28062248 89.24788315 -126.38753081 64.41199687 -103.34936523 40.06616211 C-102.47782177 39.14314678 -101.60627831 38.22013145 -100.70832443 37.26914597 C-69.58637223 4.51765721 -45.23590263 -10.8535253 0 0 Z " fill="#E1B542" transform="translate(159.286865234375,144.746337890625)"/>
<path d="M0 0 C2.73070146 1.0784535 4.21043937 2.55497971 6.28509426 4.63391018 C7.10676586 5.45001263 7.92843746 6.26611507 8.7750082 7.1069479 C10.113969 8.45973087 10.113969 8.45973087 11.47997952 9.8398428 C12.43558582 10.79465818 13.39184527 11.74882026 14.34870815 12.70237637 C16.94409169 15.2926257 19.53004166 17.89211018 22.11427879 20.49347401 C24.81714624 23.21136882 27.52810886 25.92116579 30.23809719 28.63195705 C34.78583904 33.18339115 39.32790533 37.74042535 43.86620998 42.30126858 C49.69935098 48.16331871 55.5417576 54.01604257 61.38714123 59.86588192 C66.40501234 64.88772654 71.41861337 69.91382795 76.43153 74.94061756 C78.04721213 76.56040526 79.66348571 78.17960104 81.27983761 79.79872036 C83.81363922 82.33740122 86.3447719 84.87871388 88.87381458 87.42213535 C90.25098156 88.80601224 91.63059859 90.18744958 93.01026821 91.56883144 C93.82066051 92.38493389 94.63105282 93.20103634 95.46600246 94.04186916 C96.17611855 94.75495991 96.88623463 95.46805065 97.61786938 96.20275021 C99.12158108 97.83788967 99.12158108 97.83788967 99.12158108 98.83788967 C88.79919719 99.80839842 78.4820124 100.46536378 68.12158108 100.83788967 C67.36507511 100.86528225 66.60856915 100.89267483 65.82913876 100.92089748 C48.52816269 101.47506626 32.8373985 101.79865475 19.2495718 89.58837795 C12.32896399 82.72443544 6.38804224 75.02260431 1.12158108 66.83788967 C-2.63295846 68.10583722 -4.11680887 70.39850889 -6.22027683 73.63799953 C-13.58980792 84.81372218 -23.0448508 96.61263613 -36.64477634 99.69018459 C-46.92268453 101.26684476 -57.39154327 101.05954729 -67.75341892 100.71288967 C-68.51722118 100.68734257 -69.28102345 100.66179546 -70.06797123 100.63547421 C-79.69244573 100.28881618 -89.28416383 99.6786214 -98.87841892 98.83788967 C-94.33059335 93.37771524 -89.49540105 88.33696296 -84.44482517 83.34179592 C-83.25058178 82.15323246 -83.25058178 82.15323246 -82.03221226 80.94065762 C-78.65360684 77.57827331 -75.26906357 74.22188955 -71.88501072 70.86498928 C-69.40285424 68.40102236 -66.92378426 65.93397901 -64.44482517 63.46679592 C-63.69044666 62.72071575 -62.93606815 61.97463558 -62.15882969 61.20594692 C-58.82857937 57.89095666 -55.58343118 54.55598915 -52.5195322 50.99218655 C-47.93918051 45.67753117 -42.98821439 40.72312637 -38.05420017 35.74023342 C-37.54708185 35.22779142 -37.03996353 34.71534943 -36.51747799 34.18737888 C-33.84464402 31.48806125 -31.16831514 28.79226004 -28.48950291 26.098876 C-26.27802595 23.87395043 -24.0740914 21.64193055 -21.87622166 19.4035635 C-19.2077854 16.68599589 -16.52745402 13.98073547 -13.83791256 11.28405857 C-12.81816234 10.25758448 -11.80268074 9.22685145 -10.79159069 8.19184589 C-9.38477013 6.75360092 -7.96071902 5.33227051 -6.53588963 3.91186428 C-5.73093555 3.09882336 -4.92598148 2.28578243 -4.09663486 1.4481039 C-1.87841892 -0.16211033 -1.87841892 -0.16211033 0 0 Z " fill="#156AB4" transform="translate(221.87841892242432,24.162110328674316)"/>
<path d="M0 0 C3.80162069 0.66330361 5.16232581 1.9433791 7.8125 4.7109375 C8.58207031 5.48824219 9.35164063 6.26554688 10.14453125 7.06640625 C12.15295668 9.72598435 12.93631925 11.19611843 13 14.5234375 C11.77734375 16.5859375 11.77734375 16.5859375 9.9375 18.5234375 C8.97457031 19.544375 8.97457031 19.544375 7.9921875 20.5859375 C5.43646427 23.07150362 2.81026915 25.3300567 0 27.5234375 C-1.79534882 25.92323529 -3.58629461 24.31853647 -5.375 22.7109375 C-5.88289062 22.25912109 -6.39078125 21.80730469 -6.9140625 21.34179688 C-9.32172796 19.17172998 -11.19061861 17.23750959 -13 14.5234375 C-12.78658614 10.02702834 -10.91100271 7.84058094 -7.8125 4.7109375 C-7.05582031 3.92074219 -6.29914063 3.13054687 -5.51953125 2.31640625 C-3 0.5234375 -3 0.5234375 0 0 Z " fill="#1465B7" transform="translate(247,186.4765625)"/>
<path d="M0 0 C2.45703125 1.85546875 2.45703125 1.85546875 4.8125 4.1875 C5.99779297 5.32251953 5.99779297 5.32251953 7.20703125 6.48046875 C9 9 9 9 9.60546875 11.93359375 C8.78589634 16.08433145 6.52351162 18.14121063 3.5 20.875 C2.97535156 21.37257813 2.45070312 21.87015625 1.91015625 22.3828125 C0.61995498 23.60263915 -0.68831732 24.80330249 -2 26 C-5.76678971 24.41212612 -8.37085951 22.05967109 -11.3125 19.25 C-12.21613281 18.40953125 -13.11976563 17.5690625 -14.05078125 16.703125 C-16 14 -16 14 -16.0390625 10.94140625 C-14.87029089 7.63281594 -13.61614768 6.06567099 -11.0625 3.6875 C-10.35222656 3.01074219 -9.64195312 2.33398438 -8.91015625 1.63671875 C-5.6310724 -1.17296659 -4.10591 -1.26474016 0 0 Z " fill="#1568B5" transform="translate(161,277)"/>
<path d="M0 0 C3.22961544 1.11810921 4.86409689 2.27487577 7.24609375 4.703125 C8.26123047 5.69892578 8.26123047 5.69892578 9.296875 6.71484375 C11.41493902 9.69226549 12.0529193 11.33948013 11.93359375 15.015625 C10.2898384 17.50916655 8.20827481 19.40187178 5.99609375 21.390625 C5.13081055 22.20853516 5.13081055 22.20853516 4.24804688 23.04296875 C2.82514217 24.38355665 1.38129414 25.70185284 -0.06640625 27.015625 C-3.59736941 25.4930996 -6.05179765 23.42181758 -8.81640625 20.765625 C-9.615625 20.01796875 -10.41484375 19.2703125 -11.23828125 18.5 C-13.06640625 16.015625 -13.06640625 16.015625 -13.62109375 13.05859375 C-12.88885985 9.04162044 -11.32144028 7.43691984 -8.44140625 4.578125 C-7.58289063 3.69253906 -6.724375 2.80695313 -5.83984375 1.89453125 C-3.06640625 0.015625 -3.06640625 0.015625 0 0 Z " fill="#166BB3" transform="translate(278.06640625,155.984375)"/>
<path d="M0 0 C2.67578125 2.01171875 2.67578125 2.01171875 5.3125 4.6875 C6.19550781 5.55761719 7.07851562 6.42773438 7.98828125 7.32421875 C10 10 10 10 10.62109375 12.46484375 C9.71233506 16.17417952 7.41905714 18.30781527 4.75 20.875 C4.25886719 21.38546875 3.76773438 21.8959375 3.26171875 22.421875 C-0.3280159 25.96374652 -0.3280159 25.96374652 -3.02734375 26.109375 C-5.84052122 24.52731084 -7.98176976 22.60791377 -10.3125 20.375 C-11.21613281 19.53710938 -12.11976562 18.69921875 -13.05078125 17.8359375 C-15 15 -15 15 -15.0078125 11.40625 C-13.98121906 7.93652333 -13.20376755 6.50818112 -10.5625 4.125 C-9.94503906 3.55007813 -9.32757813 2.97515625 -8.69140625 2.3828125 C-5.75447252 -0.01828344 -3.76309274 -0.49414349 0 0 Z " fill="#1568B5" transform="translate(131,306)"/>
<path d="M0 0 C4.399825 1.95547778 7.77217965 4.39724928 10.375 8.5 C11.44140625 11.83984375 11.44140625 11.83984375 11.375 15.5 C9.77064388 18.06696979 7.69387664 19.94157083 5.4375 21.9375 C4.86064453 22.47826172 4.28378906 23.01902344 3.68945312 23.57617188 C2.26869918 24.90299167 0.82405547 26.20414863 -0.625 27.5 C-4.31109045 24.49125206 -7.8727656 21.41876499 -11.125 17.9375 C-11.6303125 17.39996094 -12.135625 16.86242187 -12.65625 16.30859375 C-13.625 14.5 -13.625 14.5 -13.5390625 12.08984375 C-11.44721467 6.16294157 -6.24176483 0.86093308 0 0 Z " fill="#1568B5" transform="translate(217.625,216.5)"/>
<path d="M0 0 C3.35675197 0.75008245 4.81546745 2.23614696 7.21484375 4.67578125 C7.9934375 5.44148437 8.77203125 6.2071875 9.57421875 6.99609375 C11.86656352 10.09360094 12.63592125 11.67954177 12.46484375 15.55078125 C10.81698789 18.04193817 8.73986283 19.93672414 6.52734375 21.92578125 C5.66206055 22.74369141 5.66206055 22.74369141 4.77929688 23.578125 C3.35639217 24.9187129 1.91254414 26.23700909 0.46484375 27.55078125 C-1.89173872 25.57626106 -4.22276688 23.57700667 -6.53515625 21.55078125 C-7.12941406 21.03644531 -7.72367188 20.52210938 -8.3359375 19.9921875 C-12.39866298 16.25913425 -12.39866298 16.25913425 -12.98828125 13.19921875 C-12.34399451 9.43347381 -10.54337468 7.89464612 -7.84765625 5.23828125 C-6.97753906 4.35527344 -6.10742188 3.47226563 -5.2109375 2.5625 C-2.53515625 0.55078125 -2.53515625 0.55078125 0 0 Z " fill="#156BB3" transform="translate(187.53515625,245.44921875)"/>
</svg>
