<?xml version="1.0" encoding="UTF-8"?><svg id="Layer_1" xmlns="http://www.w3.org/2000/svg" viewBox="0 0 455.92 73.24"><defs><style>.cls-1{fill:#dbb24f;}.cls-2{fill:#1d70b8;}</style></defs><path id="Alinma_Bank" class="cls-2" d="M0,39.16L7.85,16.67h5.38l7.86,22.48h-4.93l-1.49-4.57H6.25l-1.48,4.57H0ZM10.47,21.68l-2.93,9.04h5.9l-2.97-9.04Zm13.38,17.47V16.67h4.32v22.48h-4.32Zm8.59-22.64h4.41v4.06h-4.41v-4.06Zm.03,22.64V22.51h4.34v16.65h-4.34Zm8.44,0V22.51h4.11v2.48c.17-.3,.36-.59,.56-.84,1.08-1.38,2.63-2.07,4.65-2.07,1.74,0,3.1,.52,4.08,1.56,.98,1.04,1.48,2.48,1.48,4.32v11.2h-4.34v-10.41c0-1.02-.22-1.78-.66-2.28-.44-.5-1.11-.75-2.01-.75-1.13,0-2.01,.35-2.62,1.04-.61,.69-.92,1.69-.92,3.01v9.39h-4.32Zm18.85,0V22.51h4.11v2.69c.2-.47,.44-.89,.73-1.27,.96-1.24,2.35-1.86,4.17-1.86,1.46,0,2.65,.5,3.58,1.49,.36,.38,.64,.79,.85,1.25l.54-.88c.89-1.24,2.19-1.86,3.91-1.86s3.18,.54,4.18,1.61,1.51,2.56,1.51,4.46v11.02h-4.34v-9.77c0-1.24-.2-2.16-.6-2.76-.4-.6-1.02-.9-1.87-.9-.91,0-1.61,.28-2.08,.85-.47,.57-.71,1.38-.71,2.43v10.14h-4.34v-10.49c0-1-.21-1.73-.63-2.21-.42-.48-1.07-.72-1.95-.72s-1.54,.28-2,.85c-.47,.57-.7,1.38-.7,2.43v10.14h-4.34Zm31.47,.42c-1.53,0-2.75-.44-3.68-1.32-.93-.88-1.39-2.04-1.39-3.48s.42-2.72,1.26-3.64c.84-.91,2.06-1.49,3.65-1.72l2.86-.4c.74-.11,1.36-.28,1.86-.51,.21-.11,.37-.29,.49-.55s.16-.54,.12-.82c-.06-.47-.29-.83-.71-1.09-.49-.32-1.19-.47-2.12-.47-.83,0-1.48,.2-1.94,.61-.46,.4-.71,.98-.73,1.73h-4.17c.09-1.94,.75-3.4,1.97-4.38,1.22-.97,3.01-1.46,5.36-1.46,2.05,0,3.66,.44,4.84,1.31,1.18,.87,1.77,2.07,1.77,3.58v9.3c0,.74,.06,1.26,.18,1.56s.37,.54,.74,.7v.62h-4.69c-.2-.67-.32-1.32-.38-1.97l-.02-.04c-1.35,1.63-3.11,2.44-5.28,2.44Zm5.21-6.57v-1.9c-.51,.28-1.17,.51-2,.69l-1.6,.3c-.75,.14-1.33,.4-1.72,.78-.39,.38-.59,.86-.59,1.45,0,.67,.18,1.19,.53,1.56s.84,.56,1.47,.56c1.4,0,2.51-.49,3.33-1.48,.16-.2,.29-.49,.4-.86,.12-.38,.17-.74,.17-1.11Zm15.95,6.15V16.67h10.75c2.14,0,3.82,.5,5.03,1.5s1.81,2.4,1.81,4.19-.68,3.28-2.03,4.25c-.22,.16-.47,.31-.75,.44,.52,.2,.98,.45,1.39,.74,1.42,.98,2.14,2.43,2.14,4.32,0,2.3-.7,4.04-2.11,5.24-1.41,1.2-3.46,1.79-6.15,1.79h-10.07Zm4.43-18.62v4.94h5.31c1.16,0,2.02-.22,2.6-.66,.57-.44,.86-1.1,.86-1.98,0-.77-.3-1.35-.9-1.73-.6-.38-1.52-.57-2.74-.57h-5.12Zm0,8.72v5.99h5.64c1.2,0,2.11-.26,2.72-.79,.61-.53,.91-1.33,.91-2.41,0-.94-.31-1.64-.93-2.1s-1.55-.69-2.79-.69h-5.56Zm21.51,10.32c-1.53,0-2.75-.44-3.68-1.32-.93-.88-1.39-2.04-1.39-3.48s.42-2.72,1.26-3.64c.84-.91,2.06-1.49,3.65-1.72l2.86-.4c.74-.11,1.36-.28,1.86-.51,.21-.11,.37-.29,.49-.55s.16-.54,.12-.82c-.06-.47-.29-.83-.71-1.09-.49-.32-1.19-.47-2.12-.47-.83,0-1.48,.2-1.94,.61-.46,.4-.71,.98-.73,1.73h-4.17c.09-1.94,.75-3.4,1.97-4.38,1.22-.97,3.01-1.46,5.36-1.46,2.05,0,3.66,.44,4.84,1.31,1.18,.87,1.77,2.07,1.77,3.58v9.3c0,.74,.06,1.26,.18,1.56s.37,.54,.74,.7v.62h-4.69c-.2-.67-.32-1.32-.38-1.97l-.02-.04c-1.35,1.63-3.11,2.44-5.28,2.44Zm5.21-6.57v-1.9c-.51,.28-1.17,.51-2,.69l-1.6,.3c-.75,.14-1.33,.4-1.72,.78-.39,.38-.59,.86-.59,1.45,0,.67,.18,1.19,.53,1.56s.84,.56,1.47,.56c1.4,0,2.51-.49,3.33-1.48,.16-.2,.29-.49,.4-.86,.12-.38,.17-.74,.17-1.11Zm8.06,6.15V22.51h4.11v2.48c.17-.3,.36-.59,.56-.84,1.08-1.38,2.63-2.07,4.65-2.07,1.74,0,3.1,.52,4.08,1.56,.98,1.04,1.48,2.48,1.48,4.32v11.2h-4.34v-10.41c0-1.02-.22-1.78-.66-2.28-.44-.5-1.11-.75-2.01-.75-1.13,0-2.01,.35-2.62,1.04-.61,.69-.92,1.69-.92,3.01v9.39h-4.32Zm19.01,0V16.67h4.32v12.15l5.42-6.31h5.35l-5.94,6.31,6.08,10.34h-5.14l-3.96-7.15-1.81,1.92v5.24h-4.32Z"/><path id="for_Islamic_Microfinance" class="cls-2" d="M50.86,56.41v-5.1h3.27v.88h-2.22v1.3h1.68v.86h-1.68v2.07h-1.05Zm4.6-.47c-.35-.36-.52-.83-.52-1.42s.17-1.07,.52-1.44c.34-.35,.77-.53,1.3-.53s.96,.18,1.3,.53c.35,.36,.52,.84,.52,1.44s-.17,1.06-.52,1.42c-.34,.35-.77,.52-1.3,.52s-.96-.17-1.3-.52Zm1.91-.58c.15-.19,.22-.47,.22-.84s-.07-.65-.22-.85c-.14-.2-.35-.29-.61-.29s-.46,.1-.6,.29c-.15,.2-.22,.48-.22,.85s.07,.65,.22,.84c.14,.18,.34,.28,.6,.28s.46-.09,.61-.28Zm3.9-1.9c-.35,0-.64,.1-.88,.3v2.65h-.99v-3.81h.58c.19,0,.32,.1,.37,.3,.28-.22,.57-.33,.89-.33,.07,0,.18,.02,.34,.06v.83h-.3Zm3.55,2.95v-5.1h1.06v5.1h-1.06Zm1.87-.34v-.76h.43c.22,.21,.5,.31,.84,.31,.38,0,.57-.12,.57-.36,0-.1-.04-.17-.13-.22-.09-.05-.25-.1-.48-.13-.42-.07-.72-.18-.91-.35-.22-.18-.32-.46-.32-.82s.13-.67,.38-.87c.25-.2,.59-.3,1.02-.3,.46,0,.86,.1,1.19,.3v.76h-.42c-.22-.17-.47-.25-.75-.25-.34,0-.51,.1-.51,.3,0,.09,.05,.16,.14,.2,.09,.05,.25,.08,.48,.12,.44,.07,.76,.19,.95,.36,.21,.18,.31,.46,.31,.83s-.12,.69-.36,.9c-.25,.23-.63,.34-1.13,.34-.47,0-.9-.13-1.3-.38Zm3.6,.34v-4.99h.54c.2,0,.32,.04,.38,.11,.05,.07,.08,.24,.08,.5v4.39h-.99Zm4.51,0c-.14,0-.25-.02-.32-.05-.08-.04-.14-.11-.18-.2-.27,.2-.59,.3-.97,.3s-.67-.1-.89-.3c-.24-.21-.35-.52-.35-.91s.14-.7,.42-.91c.26-.2,.63-.3,1.08-.3,.24,0,.45,.02,.62,.06v-.27c0-.3-.18-.44-.55-.44-.35,0-.65,.09-.92,.28h-.41v-.75c.48-.24,.95-.36,1.41-.36,.48,0,.84,.09,1.08,.28,.25,.2,.38,.51,.38,.94v2.64h-.41Zm-.58-1.04v-.56c-.18-.03-.35-.05-.5-.05-.43,0-.65,.15-.65,.46s.17,.46,.5,.46c.23,0,.45-.1,.65-.31Zm2.38-2.77c.21,0,.33,.1,.38,.3,.38-.23,.75-.35,1.13-.35s.67,.14,.86,.42c.39-.28,.81-.42,1.25-.42,.68,0,1.03,.36,1.03,1.08v2.78h-.99v-2.6c0-.26-.11-.39-.34-.39-.25,0-.51,.09-.79,.26v2.72h-.99v-2.6c0-.26-.11-.39-.33-.39-.25,0-.51,.09-.8,.26v2.72h-.99v-3.81h.58Zm5.63-.65c-.12-.11-.17-.24-.17-.38s.06-.28,.17-.39c.11-.11,.24-.16,.38-.16s.28,.05,.39,.16c.11,.11,.17,.24,.17,.39s-.06,.28-.17,.38c-.11,.1-.24,.16-.39,.16s-.28-.05-.38-.16Zm-.11,4.47v-3.81h.54c.2,0,.32,.04,.37,.12,.05,.08,.08,.26,.08,.56v3.13h-.99Zm2.35-.48c-.33-.35-.49-.82-.49-1.42s.18-1.08,.53-1.44c.34-.35,.79-.52,1.35-.52,.43,0,.83,.12,1.21,.35v.77h-.5c-.21-.19-.44-.29-.71-.29s-.47,.1-.63,.29c-.17,.2-.25,.48-.25,.84s.08,.64,.23,.83c.15,.19,.36,.28,.63,.28,.32,0,.58-.11,.79-.33h.47v.73c-.39,.29-.82,.44-1.27,.44-.58,0-1.03-.18-1.35-.53Zm5.88-4.63h1.3l1.17,3.32,1.16-3.32h1.27v5.1h-1.05v-3.22l-1.13,3.22h-.69l-1.11-3.23v3.23h-.93v-5.1Zm5.88,.64c-.12-.11-.17-.24-.17-.38s.06-.28,.17-.39c.11-.11,.24-.16,.38-.16s.28,.05,.39,.16c.11,.11,.17,.24,.17,.39s-.06,.28-.17,.38c-.11,.1-.24,.16-.39,.16s-.28-.05-.38-.16Zm-.11,4.47v-3.81h.54c.2,0,.32,.04,.37,.12,.05,.08,.08,.26,.08,.56v3.13h-.99Zm2.35-.48c-.33-.35-.49-.82-.49-1.42s.18-1.08,.53-1.44c.34-.35,.79-.52,1.35-.52,.43,0,.83,.12,1.21,.35v.77h-.5c-.21-.19-.44-.29-.71-.29s-.47,.1-.63,.29c-.17,.2-.25,.48-.25,.84s.08,.64,.23,.83c.15,.19,.36,.28,.63,.28,.32,0,.58-.11,.79-.33h.47v.73c-.39,.29-.82,.44-1.27,.44-.58,0-1.03-.18-1.35-.53Zm5.31-2.48c-.35,0-.64,.1-.88,.3v2.65h-.99v-3.81h.58c.19,0,.32,.1,.37,.3,.28-.22,.57-.33,.89-.33,.07,0,.18,.02,.34,.06v.83h-.3Zm1.64,2.48c-.35-.36-.52-.83-.52-1.42s.17-1.07,.52-1.44c.34-.35,.77-.53,1.3-.53s.96,.18,1.3,.53c.35,.36,.52,.84,.52,1.44s-.17,1.06-.52,1.42c-.34,.35-.77,.52-1.3,.52s-.96-.17-1.3-.52Zm1.91-.58c.15-.19,.22-.47,.22-.84s-.07-.65-.22-.85c-.14-.2-.35-.29-.61-.29s-.46,.1-.6,.29c-.15,.2-.22,.48-.22,.85s.07,.65,.22,.84c.14,.18,.34,.28,.6,.28s.46-.09,.61-.28Zm2.03-2.76h.42v-.14c0-.73,.37-1.09,1.1-1.09,.18,0,.41,.03,.67,.1v.7h-.45c-.12,0-.2,.02-.24,.06-.06,.05-.08,.13-.08,.25v.12h.71v.79h-.71v3.03h-.99v-3.03h-.42v-.79Zm3.16-.65c-.12-.11-.17-.24-.17-.38s.06-.28,.17-.39c.11-.11,.24-.16,.38-.16s.28,.05,.39,.16c.11,.11,.17,.24,.17,.39s-.06,.28-.17,.38c-.11,.1-.24,.16-.39,.16s-.28-.05-.38-.16Zm-.11,4.47v-3.81h.54c.2,0,.32,.04,.37,.12,.05,.08,.08,.26,.08,.56v3.13h-.99Zm2.44-3.81c.21,0,.33,.11,.38,.32,.35-.25,.75-.37,1.21-.37,.7,0,1.05,.37,1.05,1.12v2.74h-.99v-2.58c0-.15-.03-.26-.1-.32-.06-.05-.15-.08-.28-.08-.25,0-.54,.09-.87,.28v2.71h-.99v-3.81h.58Zm6.15,3.81c-.14,0-.25-.02-.32-.05-.08-.04-.14-.11-.18-.2-.27,.2-.59,.3-.97,.3s-.67-.1-.89-.3c-.24-.21-.35-.52-.35-.91s.14-.7,.42-.91c.26-.2,.63-.3,1.08-.3,.24,0,.45,.02,.62,.06v-.27c0-.3-.18-.44-.55-.44-.35,0-.65,.09-.92,.28h-.41v-.75c.48-.24,.95-.36,1.41-.36,.48,0,.84,.09,1.08,.28,.25,.2,.38,.51,.38,.94v2.64h-.41Zm-.58-1.04v-.56c-.18-.03-.35-.05-.5-.05-.43,0-.65,.15-.65,.46s.17,.46,.5,.46c.23,0,.45-.1,.65-.31Zm2.38-2.77c.21,0,.33,.11,.38,.32,.35-.25,.75-.37,1.21-.37,.7,0,1.05,.37,1.05,1.12v2.74h-.99v-2.58c0-.15-.03-.26-.1-.32-.06-.05-.15-.08-.28-.08-.25,0-.54,.09-.87,.28v2.71h-.99v-3.81h.58Zm3.94,3.34c-.33-.35-.49-.82-.49-1.42s.18-1.08,.53-1.44c.34-.35,.79-.52,1.35-.52,.43,0,.83,.12,1.21,.35v.77h-.5c-.21-.19-.44-.29-.71-.29s-.47,.1-.63,.29c-.17,.2-.25,.48-.25,.84s.08,.64,.23,.83c.15,.19,.36,.28,.63,.28,.32,0,.58-.11,.79-.33h.47v.73c-.39,.29-.82,.44-1.27,.44-.58,0-1.03-.18-1.35-.53Zm4.46-1.15c.06,.57,.36,.85,.89,.85,.35,0,.65-.11,.92-.32h.43v.71c-.45,.29-.93,.44-1.45,.44-.58,0-1.03-.18-1.35-.53-.31-.34-.47-.81-.47-1.42s.17-1.07,.5-1.44c.32-.35,.73-.53,1.24-.53,.54,0,.94,.17,1.19,.5,.28,.36,.42,.94,.42,1.74h-2.34Zm.02-.75h1.35c-.04-.48-.25-.71-.64-.71s-.62,.24-.71,.71Z"/><g id="_نك_الإنماء"><path class="cls-2" d="M278.4,27.47h-2.69c-.77,0-1.54,.18-2.3,.54-1.34,.48-2.42,1.49-3.23,3.02-.26,.73-.38,1.49-.38,2.26v1.19h-1.22v4.62h10.76v-4.62h-4.83v-1.19c0-.44,.22-.76,.67-.94,.17-.17,.35-.25,.54-.25h2.69v-4.62Z"/><polygon class="cls-2" points="288.99 16.78 284.28 16.78 284.28 39.1 293.41 39.1 293.41 34.48 288.99 34.48 288.99 16.78"/><rect class="cls-2" x="292.13" y="34.48" width="8.52" height="4.62"/><rect class="cls-2" x="293.29" y="34.48" width="8.52" height="4.62"/><rect class="cls-2" x="300.53" y="34.48" width="8.52" height="4.62"/><path class="cls-2" d="M322.68,34.48h-5.63v-4.62c0-.29,.04-.51,.13-.66,.36-.36,.77-.53,1.22-.53h4.29v5.82Zm4.83-10.57h-9.12c-.85,0-1.66,.18-2.43,.54-.68,.23-1.31,.63-1.89,1.19-.53,.59-.98,1.25-1.34,1.98-.26,.69-.39,1.44-.39,2.23v4.62h-4.58v4.62h24.2v-4.62h-4.45v-10.57Z"/><path class="cls-2" d="M339.93,24.04h-4.83v10.44h-4.42v4.62h9.25v-15.06Zm-.35-7.26h-4.16v4.21h4.16v-4.21Z"/><path class="cls-2" d="M397.73,21.78h-1.22c-.32,0-.67,.05-1.06,.16-.75,.36-1.25,.84-1.51,1.45-.17,.38-.26,.72-.26,1.04v.53h-.54v2.26h4.99v-2.26h-2.3v-.53c0-.12,.14-.27,.42-.44,.13-.04,.21-.06,.26-.06h1.22v-2.14Zm10.31-5h-4.71v17.71h-13.99c-.19,0-.37-.09-.54-.28-.19-.12-.37-.25-.54-.38-.09-.17-.13-.39-.13-.66v-9.12h-4.7v9.12c0,.76,.18,1.54,.54,2.36,.53,1.45,1.56,2.46,3.07,3.05,.77,.36,1.54,.53,2.3,.53h23.24v-4.62h-4.54V16.78Z"/><rect class="cls-2" x="411.3" y="34.48" width="8.52" height="4.62"/><rect class="cls-2" x="412.47" y="34.48" width="8.52" height="4.62"/><rect class="cls-2" x="419.71" y="34.48" width="8.52" height="4.62"/><path class="cls-2" d="M436.35,24.04h-4.83v10.44h-4.58v4.62h13.73v-4.62h-4.32v-10.44Zm-.35-7.26h-4.16v4.21h4.16v-4.21Z"/><rect class="cls-2" x="439.39" y="34.48" width="8.52" height="4.62"/><path class="cls-2" d="M454.91,41.84h-4.16v4.21h4.16v-4.21Zm.96-17.8h-4.83v10.44h-4.42v4.62h9.25v-15.06Z"/><polygon class="cls-2" points="360.77 16.15 355.77 16.15 355.77 34.44 350.78 34.44 350.78 39.22 360.77 39.22 360.77 16.15"/><polygon class="cls-2" points="360.77 16.15 355.77 16.15 355.77 34.44 350.78 34.44 350.78 39.22 360.77 39.22 360.77 16.15"/><path class="cls-2" d="M348.45,43.61c0-.19,.09-.32,.26-.39,.06-.02,.16-.03,.3-.03h1.08v-2.18h-1.08c-.75,0-1.39,.27-1.94,.81-.55,.54-.82,1.14-.82,1.79v.55h-.43v2.18h4.7v-2.18h-2.07v-.55Z"/><path class="cls-2" d="M348.45,43.61c0-.19,.09-.32,.26-.39,.06-.02,.16-.03,.3-.03h1.08v-2.18h-1.08c-.75,0-1.39,.27-1.94,.81-.55,.54-.82,1.14-.82,1.79v.55h-.43v2.18h4.7v-2.18h-2.07v-.55Z"/><path class="cls-2" d="M351.34,34.44v-15.56h-4.97v15.56c-.71,0-1.42,.01-2.13,.02v4.77h7.73v-4.79h-.64Z"/><path class="cls-2" d="M351.34,34.44v-15.56h-4.97v15.56c-.71,0-1.42,.01-2.13,.02v4.77h7.73v-4.79h-.64Z"/><rect class="cls-2" x="365.21" y="16.15" width="4.84" height="23.07"/><rect class="cls-2" x="365.21" y="16.15" width="4.84" height="23.07"/><path class="cls-2" d="M278.4,32.09h-2.69c-.19,0-.37,.08-.54,.25-.45,.19-.67,.5-.67,.94v1.2h4.83v4.62h-10.75v-4.62h1.22v-1.2c0-.78,.13-1.53,.38-2.26,.81-1.53,1.89-2.54,3.23-3.02,.77-.36,1.54-.53,2.3-.53h2.69v4.62Zm10.59,2.39h4.42v4.62h-9.12V16.78h4.71v17.71Zm11.63,4.62h-8.51v-4.62h8.51v4.62Zm1.17,0h-8.51v-4.62h8.51v4.62Zm7.25,0h-8.51v-4.62h8.51v4.62Zm18.48-4.62h4.45v4.62h-24.2v-4.62h4.58v-4.62c0-.8,.13-1.54,.38-2.23,.36-.73,.81-1.39,1.34-1.98,.58-.57,1.21-.96,1.89-1.2,.77-.36,1.58-.53,2.43-.53h9.12v10.57Zm-4.83-5.82h-4.29c-.45,0-.85,.18-1.22,.53-.09,.15-.13,.37-.13,.66v4.62h5.63v-5.82Zm17.24,10.44h-9.25v-4.62h4.42v-10.44h4.83v15.06Zm-.35-18.11h-4.16v-4.21h4.16v4.21Zm68.46,13.49h4.55v4.62h-23.24c-.77,0-1.54-.18-2.3-.53-1.52-.59-2.54-1.6-3.07-3.05-.36-.82-.54-1.6-.54-2.36v-9.12h4.71v9.12c0,.27,.04,.49,.13,.66,.17,.13,.35,.25,.54,.38,.17,.19,.35,.28,.54,.28h13.99V16.78h4.71v17.71Zm-10.31-10.57h-1.22s-.13,.02-.26,.06c-.28,.17-.42,.31-.42,.44v.53h2.3v2.26h-4.99v-2.26h.54v-.53c0-.31,.09-.66,.26-1.04,.26-.61,.76-1.09,1.5-1.45,.38-.1,.74-.16,1.06-.16h1.22v2.14Zm22.1,15.19h-8.51v-4.62h8.51v4.62Zm1.17,0h-8.51v-4.62h8.51v4.62Zm7.25,0h-8.51v-4.62h8.51v4.62Zm8.15-4.62h4.32v4.62h-13.73v-4.62h4.58v-10.44h4.83v10.44Zm-.35-13.49h-4.16v-4.21h4.16v4.21Zm11.89,18.11h-8.51v-4.62h8.51v4.62Zm7.99,0h-9.25v-4.62h4.42v-10.44h4.83v15.06Zm-.96,6.95h-4.16v-4.21h4.16v4.21Z"/></g><path id="_لتمويل_الصغير_والأصغر" class="cls-2" d="M325.86,54.67c.27,.24,.52,.47,.81,.71h1.26v.86h-.24l.14,.13c-.64,.92-1.66,1.28-2.73,1.28-1.36,0-2.85-.58-3.69-1.3l.04-1.17c.69,.8,2.34,1.56,3.75,1.56,.52,0,1.02-.1,1.42-.32-.16-.13-.4-.32-.59-.48l-.35-.28,.18-.99Zm-1.26,4.02c0,.14-.05,.26-.15,.37-.1,.1-.24,.15-.37,.15-.14,0-.27-.05-.37-.15-.11-.11-.15-.24-.15-.36,0-.13,.05-.27,.16-.37,.1-.11,.24-.16,.37-.16,.13,0,.26,.05,.36,.15,.1,.1,.15,.23,.15,.36Zm1.19,0c0,.13-.06,.26-.16,.37-.11,.1-.23,.15-.36,.15s-.26-.05-.37-.16c-.1-.1-.15-.24-.15-.36s.05-.26,.15-.36c.11-.11,.25-.16,.37-.16,.14,0,.26,.05,.36,.15,.11,.11,.16,.23,.16,.37Zm2.45-3.31c.43,0,.49-.61,.71-1.24,.27-.74,.66-1.63,1.65-1.63,1,.01,1.65,1.06,1.65,2.26,0,.31-.03,.59-.11,.86l-.74,.68-2.44-.48c-.13,.22-.41,.41-.66,.41h-.49v-.86h.44Zm3.1-.11c.04-.17,.06-.31,.06-.46,0-.8-.41-1.48-.88-1.48-.34,0-.77,.5-1.07,1.6l1.89,.34Zm5.19-4.12v4.22h.44v.86h-3.1c-.08,0-.17,0-.27,0-.17-.01-.4-.04-.66-.11l.1-.95c.22,.1,.47,.18,.73,.2v-3.41l.86-.08v3.49h1.01v-4.15l.88-.07Zm2.01,5.09h-1.71v-.86h1.71v.86Zm.41,0h-1.71v-.86h1.71v.86Zm.65-.86v-2.39l.89-.08v2.46h.77v-2.52l.89-.08v2.6h.79v-2.65l.89-.09v2.96l-.66,.64h-4.35v-.86h.79Zm8.53-4.22v4.45l-.66,.64h-2.01c-.08,0-.18,0-.27,0-.17-.01-.4-.04-.65-.11l.08-.95c.22,.09,.48,.18,.75,.19v-3.42l.88-.02v3.44h.98v-4.15l.89-.07Zm-1.55,7.61h-1.82l.09-.65h.31c-.31-.7,.71-1.17,1.29-1.24v.65c-.1,.02-.21,.05-.31,.08-.18,.06-.38,.15-.48,.29,.08,.1,.21,.19,.47,.22h.46v.66Zm2.53-7.56l.89-.07v5.11h-.89v-5.03Zm6.24,1.43v2.74h.43v.86h-.43v.02c0,.55-.19,1.58-1.77,1.68l-.71-.85c.12,0,1.62,0,1.62-.84v-3.52l.87-.08Zm2,3.6h-1.71v-.86h1.71v.86Zm.41,0h-1.71v-.86h1.71v.86Zm1.57,0h-1.71v-.86h1.71v.86Zm-.14-.86h1.43c.19,0,.48,.02,.68,.05,.09-.49-.2-.78-.6-1h0c-.43-.2-.87-.27-.87-.27l-.17-.71s1-.77,2.29-.77c.62,0,1.38,.19,2.22,.75l-.24,.72c-.44-.06-1.53,.68-1.34,1.27,.2-.03,.47-.03,.69-.03h1.35v.86h-1.38c-.33-.01-.66,.16-.67,.16l-.46-.15c-.07-.12-.12-.2-.16-.3-.03,.08-.08,.17-.12,.26l-.46,.19c-.07-.02-.56-.16-1.59-.16h-.61v-.86Zm1.88-1.72c.41,.22,.74,.52,.92,.94,.16-.37,.45-.73,.76-.96-.29-.08-.56-.11-.81-.11-.34,0-.62,.06-.86,.13Zm1.39-1.93c0,.27-.22,.51-.51,.51s-.5-.24-.5-.51,.21-.51,.5-.51,.51,.24,.51,.51Zm3.74,4.51h-1.71v-.86h1.71v.86Zm-.14,0v-.86h.46v-2.65l.88-.09v.94c.55-.63,1.24-.93,1.88-.93,1.45,0,2.35,1.33,2.35,2.69,0,.07,0,.16-.01,.27l-.65,.63h-4.9Zm1.34-.86h3.33c-.06-1.27-.75-1.8-1.49-1.8-.86,0-1.76,.68-1.84,1.8Zm8.53-4.22v4.45l-.66,.64h-2.01c-.08,0-.18,0-.27,0-.17-.01-.4-.04-.65-.11l.08-.95c.22,.09,.48,.18,.75,.19v-3.42l.88-.02v3.44h.98v-4.15l.89-.07Zm-1.49,.33h-1.82l.09-.65h.31c-.29-.7,.7-1.17,1.29-1.24v.65c-.1,.02-.21,.05-.31,.08-.18,.06-.38,.15-.48,.29,.08,.1,.21,.19,.47,.22h.46v.66Zm2.48-.28l.89-.07v5.11h-.89v-5.03Zm8.55-.07v4.24h.44v.86h-.44v.81l-.65,.64h-2.54c-.67,0-1.01-.36-1.16-.72-.09-.21-.15-.45-.16-.72v-1.48l.87-.09v1.58c0,.28,.12,.43,.25,.5,.07,.04,.15,.07,.25,.07h2.27v-5.61l.88-.08Zm.3,5.11v-.86h1.68v-2.65l.89-.09v2.96l-.66,.64h-1.92Zm1.49,1.18c0,.14-.05,.26-.15,.37-.1,.1-.24,.15-.37,.15-.14,0-.27-.05-.37-.15-.11-.11-.15-.24-.15-.36,0-.13,.05-.27,.16-.37,.1-.11,.24-.16,.37-.16,.13,0,.26,.05,.36,.15,.1,.1,.15,.23,.15,.36Zm1.19,0c0,.13-.06,.26-.16,.37-.11,.1-.23,.15-.36,.15s-.26-.05-.37-.16c-.1-.1-.15-.24-.15-.36s.05-.26,.15-.36c.11-.11,.25-.16,.37-.16,.14,0,.26,.05,.36,.15,.11,.11,.16,.23,.16,.37Zm3.54-1.17c0,.55-.18,1.58-1.78,1.68l-.71-.85c.12,0,1.62,0,1.62-.84v-.17l-.26,.11s-.09,.04-.13,.06c-.88-.1-1.58-.78-1.58-1.65,0-1.11,.95-1.98,2.1-1.98,.18,0,.48,.05,.72,.13v2.63h.45v.86h-.44v.02Zm-.87-2.82c-.66-.01-1.05,.56-1.05,1.1,0,.46,.29,.88,.94,.88,.05,0,.04,0,.11,0v-1.98Zm6.46,1.94v.86h-2.07l-2.08-.41c-.13,.23-.4,.41-.67,.41h-.48v-.86h.44c.43,0,.49-.61,.71-1.24,.26-.74,.66-1.64,1.65-1.63,1,.01,1.65,1.06,1.65,2.26,0,.21-.02,.39-.06,.6h.92Zm-1.75-.11c.04-.17,.06-.31,.06-.46,0-.8-.41-1.48-.88-1.48-.34,0-.77,.5-1.07,1.6l1.89,.34Zm1.61,.97v-.86h.96v-2.65l.89-.09v2.74h.97v.86h-2.82Zm1.31-4.68c0,.28-.22,.52-.53,.52-.29,0-.52-.24-.52-.52s.23-.53,.52-.53c.31,0,.53,.24,.53,.53Zm1.26,.01c0,.28-.22,.53-.52,.53s-.52-.25-.52-.53,.22-.52,.52-.52,.52,.24,.52,.52Zm2.26,4.67v-.86h.95v-4.17l.89-.07v4.47l-.66,.64h-1.19Zm.14,0v-.86h-.43v-4.24l-.88,.07v4.17h-.97v.86h2.29Z"/><path class="cls-2" d="M237.03,21.18h0v-.02l-.63-.62-.36-.36-.26-.26c-.22-.22-.58-.22-.8,0l-.26,.26-.36,.36-.62,.62-.02,.02h0c-.2,.22-.19,.55,0,.77l.02,.02,1.23,1.23h.01l.38,.4,.38-.38h.02l1.23-1.25v-.02c.21-.21,.22-.55,.02-.76"/><path class="cls-2" d="M232.53,25.75h0v-.02l-.63-.62-.36-.36-.26-.26c-.22-.22-.58-.22-.8,0l-.26,.26-.36,.36-.62,.62v.02h-.02c-.2,.22-.19,.55,0,.77v.02l1.25,1.23h.02l.38,.4,.38-.38h.02l1.23-1.25v-.02c.21-.22,.22-.55,.02-.76"/><path class="cls-2" d="M228.03,30.23h0v-.02l-.63-.62-.36-.36-.26-.26c-.22-.22-.58-.22-.8,0l-.26,.26-.36,.36-.62,.62-.02,.02h0c-.2,.22-.19,.55,0,.77l.02,.02,1.23,1.23h.02l.38,.4,.38-.38s.01,0,.01-.01l1.24-1.23v-.02c.21-.21,.22-.55,.02-.76"/><path class="cls-2" d="M223.63,34.57h0v-.02l-.63-.62-.36-.36-.26-.26c-.22-.22-.58-.22-.8,0l-.26,.26-.36,.36-.62,.62v.02h-.02c-.2,.22-.19,.55,0,.77v.02l1.25,1.23h.02l.38,.4,.38-.38h.02l1.23-1.25v-.02c.21-.22,.22-.55,.02-.76"/><path class="cls-2" d="M219.23,39.08h0v-.02l-.63-.62-.36-.36-.26-.26c-.22-.22-.58-.22-.8,0l-.26,.26-.36,.36-.62,.62v.02h-.02c-.19,.22-.19,.55,0,.77v.02l1.25,1.23h.02l.38,.4,.38-.38h.02l1.23-1.25v-.02c.21-.21,.22-.55,.02-.76"/><path class="cls-2" d="M214.86,43.45h0v-.02l-.63-.62-.36-.36-.26-.26c-.22-.22-.58-.22-.8,0l-.26,.26-.36,.36-.62,.62v.02h-.02c-.2,.22-.19,.55,0,.77v.02l1.25,1.23h.02l.38,.4,.38-.38h.02l1.23-1.25v-.02c.21-.21,.22-.55,.02-.76"/><path class="cls-1" d="M256.57,29.42l-11.11-11.11h-9.57l13.2,13.2,.07,.07c2.6,2.88,2.58,7.29-.07,10.14l-11.91,11.91V22.39h-.02c-.02,.1-.06,.19-.13,.27v.02l-1.25,1.23h-.02l-.38,.4-.38-.38h-.02l-1.23-1.25-.02-.02c-.07-.08-.11-.17-.13-.27h-.02V57.23h0l-.9,.9V26.96h-.02c-.02,.1-.06,.19-.13,.27v.02l-1.25,1.23h-.02l-.38,.4-.38-.38h-.02l-1.23-1.25v-.02c-.09-.08-.12-.17-.14-.27h-.02V61.73l-.9,.9h0V31.44h-.02c-.02,.1-.06,.19-.13,.27v.02l-1.25,1.23h-.02l-.38,.4-.38-.38h-.02l-1.23-1.25-.02-.02c-.07-.08-.11-.17-.13-.27h-.02v29.66l-.8-.81v-24.51h-.02c-.02,.1-.06,.19-.13,.27,0,0,0,.01-.01,.01l-1.24,1.24s0,.01-.01,.01l-.39,.38-.38-.38s-.01-.01-.01-.01l-1.24-1.24s-.01-.01-.01-.01c-.07-.08-.11-.17-.13-.27h-.03v20.91l-.8-.8v-15.6h-.02c-.02,.1-.06,.19-.13,.26,0,0-.01,.01-.01,.02l-1.23,1.24s-.01,0-.01,.01l-.39,.38-.38-.38s-.01-.01-.02-.01l-1.23-1.24-.02-.02c-.07-.07-.11-.17-.13-.26h-.02v12l-.77-.77v-6.87h-.02c-.02,.1-.06,.19-.13,.27,0,0,0,.01-.01,.01l-1.23,1.24s-.01,.01-.02,.01l-.38,.38-.39-.38h-.01l-1.23-1.25h-.01c-.07-.09-.11-.19-.13-.28h-.02v3.27l-6.2-6.2c-2.65-2.86-2.67-7.26-.07-10.14l.07-.07,13.2-13.2h-9.57l-11.11,11.11c-3.97,3.97-3.97,10.42,0,14.39l13.68,13.68,3.6,3.6,.77,.77,4.4,4.4,1.8,1.8,1.8,1.8,3.38,3.38,29.42-29.42c3.97-3.97,3.97-10.42,0-14.39"/><polygon class="cls-2" points="222.01 14.71 227.15 9.57 232.29 14.71 241.86 14.71 227.15 0 212.44 14.71 222.01 14.71"/></svg>