<?xml version="1.0" encoding="utf-8"?>
<svg viewBox="386.225 167.8476 29.8409 27.7794" width="29.841" height="27.779" xmlns="http://www.w3.org/2000/svg">
  <path d="M 396.86 174.661 C 396.968 174.684 397.075 174.708 397.183 174.732 C 397.086 174.913 396.972 175.033 396.802 175.171 C 396.726 175.233 396.726 175.233 396.648 175.297 C 396.592 175.342 396.537 175.388 396.48 175.434 C 396.422 175.482 396.363 175.53 396.302 175.58 C 396.175 175.684 396.048 175.788 395.92 175.891 C 395.718 176.057 395.515 176.222 395.315 176.388 C 394.741 176.859 394.167 177.329 393.592 177.798 C 393.274 178.057 392.957 178.317 392.64 178.577 C 392.473 178.715 392.306 178.852 392.138 178.988 C 391.949 179.142 391.763 179.295 391.575 179.449 C 391.521 179.493 391.465 179.538 391.409 179.583 C 390.687 180.183 390.286 180.852 390.252 181.7 C 390.291 183.145 391.563 183.988 392.712 184.933 C 392.821 185.022 392.93 185.112 393.039 185.202 C 393.304 185.421 393.569 185.639 393.835 185.857 C 393.857 185.484 393.88 185.111 393.903 184.728 C 394.177 184.953 394.449 185.179 394.723 185.406 C 395.032 185.197 395.292 184.984 395.543 184.728 C 395.565 184.728 395.588 184.728 395.611 184.728 C 395.612 184.761 395.612 184.793 395.613 184.828 C 395.619 185.17 395.625 185.513 395.633 185.855 C 395.635 185.983 395.638 186.112 395.64 186.239 C 395.643 186.423 395.647 186.606 395.651 186.79 C 395.652 186.876 395.652 186.876 395.653 186.964 C 395.656 187.044 395.656 187.044 395.657 187.125 C 395.659 187.196 395.659 187.196 395.661 187.268 C 395.667 187.395 395.667 187.395 395.816 187.495 C 395.85 185.314 395.85 185.314 395.884 183.09 C 396.173 183.294 396.442 183.488 396.705 183.711 C 396.955 183.626 397.09 183.506 397.263 183.337 C 397.349 183.253 397.435 183.171 397.524 183.09 C 397.546 183.09 397.569 183.09 397.592 183.09 C 397.592 183.164 397.593 183.238 397.593 183.314 C 397.597 184.009 397.603 184.705 397.608 185.401 C 397.612 185.758 397.614 186.116 397.616 186.473 C 397.618 186.818 397.62 187.163 397.624 187.508 C 397.625 187.64 397.626 187.772 397.626 187.904 C 397.627 188.088 397.629 188.272 397.631 188.456 C 397.631 188.511 397.631 188.566 397.631 188.622 C 397.632 188.672 397.633 188.722 397.634 188.774 C 397.634 188.839 397.634 188.839 397.634 188.906 C 397.653 189.045 397.653 189.045 397.865 189.189 C 397.899 185.332 397.899 185.332 397.934 181.396 C 398.092 181.508 398.249 181.619 398.412 181.734 C 398.549 181.829 398.685 181.923 398.822 182.017 C 398.924 181.935 399.025 181.852 399.125 181.769 C 399.182 181.724 399.238 181.678 399.296 181.631 C 399.439 181.519 399.439 181.519 399.506 181.396 C 399.55 181.396 399.596 181.396 399.642 181.396 C 399.643 181.468 399.643 181.468 399.643 181.541 C 399.649 182.706 399.654 183.87 399.662 185.035 C 399.665 185.597 399.668 186.161 399.671 186.724 C 399.673 187.215 399.676 187.706 399.679 188.197 C 399.68 188.456 399.682 188.716 399.683 188.977 C 399.684 189.221 399.686 189.465 399.688 189.71 C 399.688 189.8 399.689 189.889 399.689 189.979 C 399.689 190.102 399.69 190.224 399.691 190.347 C 399.691 190.415 399.692 190.484 399.692 190.554 C 399.691 190.722 399.691 190.722 399.847 190.826 C 399.869 187.174 399.892 183.521 399.916 179.758 C 399.96 179.758 400.006 179.758 400.052 179.758 C 400.16 179.851 400.16 179.851 400.283 179.973 C 400.442 180.133 400.598 180.26 400.803 180.379 C 400.857 180.334 400.91 180.29 400.966 180.243 C 401.035 180.185 401.105 180.127 401.176 180.069 C 401.211 180.039 401.245 180.009 401.282 179.978 C 401.372 179.904 401.464 179.831 401.555 179.758 C 401.578 179.758 401.601 179.758 401.623 179.758 C 401.646 183.616 401.669 187.473 401.692 191.448 C 401.913 191.273 401.913 191.273 401.923 191.051 C 401.924 191.004 401.924 190.957 401.925 190.909 C 401.925 190.833 401.925 190.833 401.924 190.754 C 401.925 190.7 401.925 190.645 401.926 190.59 C 401.926 190.407 401.926 190.224 401.926 190.041 C 401.927 189.91 401.927 189.78 401.928 189.649 C 401.931 189.293 401.931 188.937 401.931 188.582 C 401.931 188.21 401.934 187.839 401.936 187.467 C 401.938 186.843 401.94 186.22 401.942 185.595 C 401.943 184.953 401.945 184.31 401.947 183.668 C 401.947 183.628 401.947 183.589 401.947 183.548 C 401.948 183.349 401.949 183.151 401.95 182.952 C 401.956 181.304 401.961 179.656 401.965 178.007 C 402.01 178.007 402.055 178.007 402.102 178.007 C 402.212 178.1 402.212 178.1 402.336 178.222 C 402.481 178.364 402.624 178.5 402.785 178.628 C 403.001 178.55 403.146 178.457 403.31 178.318 C 403.372 178.266 403.372 178.266 403.435 178.214 C 403.542 178.123 403.542 178.123 403.605 178.007 C 403.65 178.007 403.694 178.007 403.741 178.007 C 403.764 181.865 403.786 185.723 403.81 189.698 C 404.03 189.522 404.03 189.522 404.041 189.301 C 404.041 189.254 404.042 189.208 404.043 189.16 C 404.042 189.083 404.042 189.083 404.042 189.006 C 404.042 188.952 404.043 188.898 404.043 188.841 C 404.045 188.66 404.045 188.478 404.045 188.296 C 404.045 188.166 404.046 188.035 404.046 187.905 C 404.048 187.551 404.049 187.196 404.049 186.842 C 404.05 186.472 404.051 186.103 404.053 185.732 C 404.056 185.111 404.058 184.491 404.06 183.869 C 404.061 183.229 404.062 182.589 404.065 181.95 C 404.066 181.911 404.066 181.871 404.066 181.83 C 404.067 181.632 404.067 181.435 404.068 181.237 C 404.074 179.595 404.079 177.954 404.083 176.313 C 404.115 176.336 404.146 176.358 404.179 176.381 C 404.222 176.412 404.264 176.441 404.308 176.473 C 404.349 176.502 404.391 176.532 404.434 176.562 C 404.612 176.687 404.791 176.811 404.971 176.935 C 405.073 176.852 405.174 176.769 405.274 176.687 C 405.331 176.641 405.387 176.595 405.445 176.548 C 405.588 176.436 405.588 176.436 405.655 176.313 C 405.699 176.313 405.745 176.313 405.791 176.313 C 405.814 180.17 405.836 184.029 405.86 188.003 C 406.742 187.279 407.624 186.554 408.532 185.808 C 408.81 185.58 409.088 185.352 409.375 185.118 C 409.626 184.911 409.626 184.911 409.875 184.705 C 409.986 184.614 410.097 184.523 410.209 184.432 C 410.379 184.294 410.546 184.155 410.714 184.016 C 410.764 183.976 410.813 183.936 410.864 183.895 C 411.616 183.268 412.029 182.505 412.03 181.622 C 412.007 180.698 411.409 180.016 410.638 179.392 C 410.578 179.342 410.518 179.293 410.456 179.242 C 410.326 179.135 410.197 179.03 410.068 178.924 C 409.862 178.756 409.658 178.588 409.454 178.421 C 409.131 178.155 408.807 177.89 408.484 177.625 C 407.902 177.15 407.322 176.674 406.743 176.197 C 406.539 176.031 406.336 175.863 406.132 175.697 C 405.976 175.57 405.82 175.442 405.665 175.314 C 405.579 175.245 405.579 175.245 405.493 175.174 C 405.441 175.133 405.39 175.09 405.338 175.047 C 405.294 175.011 405.249 174.974 405.202 174.936 C 405.108 174.845 405.108 174.845 405.108 174.732 C 406.496 174.406 408.198 174.191 409.549 174.732 C 410.698 175.308 411.642 176.174 412.559 176.973 C 412.651 177.053 412.651 177.053 412.745 177.134 C 416.074 180.035 416.074 180.035 416.065 181.833 C 416.042 182.445 415.838 183.005 415.523 183.556 C 415.504 183.59 415.485 183.623 415.466 183.658 C 414.972 184.462 413.927 185.126 413.166 185.754 C 413.035 185.862 412.904 185.97 412.774 186.078 C 412.494 186.31 412.214 186.541 411.934 186.772 C 411.529 187.106 411.124 187.441 410.72 187.775 C 410.063 188.318 409.405 188.861 408.748 189.404 C 408.111 189.93 407.473 190.456 406.835 190.983 C 406.776 191.032 406.776 191.032 406.716 191.082 C 406.518 191.245 406.32 191.408 406.123 191.571 C 404.486 192.924 402.85 194.275 401.213 195.627 C 401.003 195.549 400.857 195.46 400.694 195.325 C 400.646 195.286 400.599 195.247 400.55 195.207 C 400.498 195.164 400.446 195.12 400.392 195.076 C 400.336 195.03 400.28 194.984 400.223 194.937 C 400.069 194.81 399.914 194.683 399.76 194.555 C 399.594 194.418 399.427 194.281 399.261 194.143 C 398.935 193.874 398.609 193.606 398.282 193.336 C 398.017 193.117 397.752 192.898 397.487 192.679 C 396.735 192.058 395.982 191.437 395.231 190.815 C 395.19 190.782 395.15 190.748 395.108 190.714 C 395.068 190.68 395.027 190.647 394.985 190.613 C 394.328 190.069 393.67 189.527 393.012 188.985 C 392.336 188.427 391.661 187.87 390.986 187.312 C 390.607 186.998 390.228 186.686 389.848 186.373 C 389.525 186.107 389.203 185.84 388.88 185.573 C 388.716 185.437 388.552 185.301 388.386 185.166 C 388.207 185.018 388.028 184.87 387.85 184.722 C 387.798 184.68 387.747 184.638 387.694 184.595 C 386.766 183.818 386.239 182.829 386.225 181.734 C 386.251 179.701 388.226 178.299 389.8 176.924 C 389.858 176.872 389.918 176.819 389.979 176.766 C 392.106 174.916 393.77 174.048 396.86 174.661 Z" fill="#E1B542" style="" transform="matrix(0.9999999999999999, 0, 0, 0.9999999999999999, 0, -2.842170943040401e-14)"/>
  <path d="M 401.137 167.852 C 401.323 167.912 401.424 167.996 401.566 168.113 C 401.622 168.159 401.679 168.205 401.737 168.253 C 401.828 168.329 401.828 168.329 401.921 168.407 C 401.987 168.461 402.052 168.515 402.117 168.569 C 402.294 168.715 402.471 168.862 402.648 169.009 C 402.833 169.162 403.017 169.315 403.203 169.468 C 403.513 169.725 403.824 169.983 404.134 170.24 C 404.533 170.571 404.932 170.902 405.331 171.232 C 405.673 171.516 406.016 171.8 406.359 172.083 C 406.47 172.175 406.58 172.266 406.69 172.357 C 406.863 172.501 407.036 172.645 407.209 172.788 C 407.303 172.866 407.398 172.944 407.492 173.022 C 407.547 173.069 407.603 173.115 407.66 173.162 C 407.708 173.203 407.756 173.242 407.807 173.284 C 407.909 173.377 407.909 173.377 407.909 173.433 C 407.204 173.488 406.499 173.525 405.791 173.546 C 405.74 173.547 405.688 173.549 405.635 173.551 C 404.452 173.582 403.38 173.6 402.452 172.911 C 401.979 172.523 401.573 172.088 401.213 171.625 C 400.957 171.697 400.856 171.827 400.712 172.01 C 400.208 172.641 399.562 173.307 398.633 173.481 C 397.931 173.57 397.216 173.558 396.508 173.539 C 396.455 173.537 396.403 173.536 396.349 173.534 C 395.692 173.515 395.037 173.48 394.381 173.433 C 394.692 173.124 395.022 172.84 395.368 172.558 C 395.449 172.49 395.449 172.49 395.532 172.423 C 395.763 172.232 395.994 172.043 396.225 171.853 C 396.395 171.714 396.564 171.575 396.734 171.436 C 396.785 171.393 396.837 171.351 396.89 171.307 C 397.118 171.12 397.34 170.932 397.549 170.731 C 397.861 170.431 398.2 170.151 398.537 169.869 C 398.572 169.841 398.606 169.812 398.642 169.782 C 398.825 169.63 399.008 169.477 399.191 169.325 C 399.341 169.2 399.492 169.074 399.642 168.947 C 399.824 168.793 400.007 168.64 400.191 168.488 C 400.261 168.431 400.331 168.372 400.399 168.314 C 400.495 168.233 400.593 168.152 400.69 168.072 C 400.746 168.026 400.8 167.98 400.857 167.933 C 401.008 167.842 401.008 167.842 401.137 167.852 Z" fill="#156AB4" style="" transform="matrix(0.9999999999999999, 0, 0, 0.9999999999999999, 0, -2.842170943040401e-14)"/>
  <path d="M 402.853 177.018 C 403.113 177.055 403.206 177.127 403.387 177.283 C 403.439 177.327 403.492 177.372 403.547 177.416 C 403.684 177.567 403.737 177.65 403.741 177.838 C 403.657 177.954 403.657 177.954 403.532 178.063 C 403.466 178.122 403.466 178.122 403.4 178.18 C 403.225 178.32 403.045 178.448 402.853 178.572 C 402.73 178.482 402.608 178.391 402.486 178.3 C 402.451 178.275 402.417 178.249 402.381 178.223 C 402.216 178.1 402.089 177.991 401.965 177.838 C 401.979 177.584 402.108 177.46 402.32 177.283 C 402.371 177.239 402.423 177.194 402.477 177.148 C 402.648 177.047 402.648 177.047 402.853 177.018 Z" fill="#1465B7" style="" transform="matrix(0.9999999999999999, 0, 0, 0.9999999999999999, 0, -2.842170943040401e-14)"/>
  <path d="M 396.978 182.13 C 397.146 182.235 397.146 182.235 397.306 182.366 C 397.388 182.43 397.388 182.43 397.47 182.496 C 397.592 182.638 397.592 182.638 397.634 182.804 C 397.578 183.038 397.423 183.155 397.216 183.309 C 397.181 183.337 397.145 183.365 397.108 183.394 C 397.02 183.463 396.931 183.53 396.841 183.598 C 396.584 183.508 396.406 183.375 396.205 183.217 C 396.143 183.17 396.081 183.122 396.018 183.073 C 395.884 182.92 395.884 182.92 395.882 182.748 C 395.961 182.561 396.047 182.473 396.222 182.338 C 396.27 182.3 396.318 182.262 396.369 182.223 C 396.593 182.063 396.697 182.059 396.978 182.13 Z" fill="#1568B5" style="" transform="matrix(0.9999999999999999, 0, 0, 0.9999999999999999, 0, -2.842170943040401e-14)"/>
  <path d="M 404.975 175.296 C 405.196 175.359 405.308 175.424 405.471 175.561 C 405.541 175.618 405.541 175.618 405.611 175.675 C 405.756 175.843 405.799 175.936 405.791 176.144 C 405.678 176.284 405.536 176.391 405.385 176.503 C 405.326 176.55 405.326 176.55 405.266 176.597 C 405.169 176.673 405.07 176.747 404.971 176.821 C 404.73 176.735 404.562 176.619 404.373 176.469 C 404.319 176.426 404.264 176.384 404.208 176.34 C 404.083 176.2 404.083 176.2 404.045 176.033 C 404.095 175.806 404.203 175.716 404.399 175.554 C 404.458 175.504 404.516 175.454 404.576 175.403 C 404.766 175.296 404.766 175.296 404.975 175.296 Z" fill="#166BB3" style="" transform="matrix(0.9999999999999999, 0, 0, 0.9999999999999999, 0, -2.842170943040401e-14)"/>
  <path d="M 394.927 183.767 C 395.11 183.881 395.11 183.881 395.291 184.033 C 395.351 184.081 395.411 184.131 395.473 184.181 C 395.611 184.332 395.611 184.332 395.653 184.471 C 395.592 184.681 395.435 184.802 395.252 184.946 C 395.219 184.975 395.185 185.004 395.151 185.034 C 394.906 185.234 394.906 185.234 394.721 185.242 C 394.529 185.153 394.382 185.044 394.224 184.918 C 394.161 184.871 394.1 184.824 394.036 184.775 C 393.903 184.615 393.903 184.615 393.903 184.412 C 393.972 184.216 394.026 184.135 394.206 184 C 394.249 183.968 394.291 183.935 394.334 183.902 C 394.535 183.767 394.67 183.74 394.927 183.767 Z" fill="#1568B5" style="" transform="matrix(0.9999999999999999, 0, 0, 0.9999999999999999, 0, -2.842170943040401e-14)"/>
  <path d="M 400.846 178.713 C 401.147 178.824 401.377 178.961 401.555 179.193 C 401.628 179.382 401.628 179.382 401.623 179.588 C 401.514 179.734 401.372 179.839 401.218 179.952 C 401.178 179.983 401.139 180.013 401.098 180.044 C 401.002 180.12 400.903 180.193 400.803 180.266 C 400.551 180.096 400.308 179.923 400.086 179.726 C 400.052 179.696 400.017 179.665 399.981 179.634 C 399.916 179.532 399.916 179.532 399.922 179.396 C 400.064 179.061 400.42 178.762 400.846 178.713 Z" fill="#1568B5" style="" transform="matrix(0.9999999999999999, 0, 0, 0.9999999999999999, 0, -2.842170943040401e-14)"/>
  <path d="M 398.79 180.348 C 399.019 180.39 399.119 180.474 399.283 180.612 C 399.337 180.655 399.39 180.699 399.444 180.743 C 399.602 180.918 399.654 181.008 399.642 181.226 C 399.529 181.367 399.387 181.474 399.236 181.586 C 399.177 181.632 399.177 181.632 399.117 181.68 C 399.019 181.755 398.921 181.83 398.822 181.904 C 398.661 181.792 398.502 181.68 398.344 181.565 C 398.303 181.536 398.263 181.507 398.221 181.477 C 397.944 181.266 397.944 181.266 397.903 181.094 C 397.947 180.88 398.07 180.794 398.254 180.644 C 398.314 180.594 398.373 180.544 398.434 180.493 C 398.617 180.379 398.617 180.379 398.79 180.348 Z" fill="#156BB3" style="" transform="matrix(0.9999999999999999, 0, 0, 0.9999999999999999, 0, -2.842170943040401e-14)"/>
</svg>