<?xml version="1.0" encoding="utf-8"?>
<!-- Generator: Adobe Illustrator 26.3.1, SVG Export Plug-In . SVG Version: 6.00 Build 0)  -->
<svg version="1.1" id="Layer_1" xmlns="http://www.w3.org/2000/svg" xmlns:xlink="http://www.w3.org/1999/xlink" x="0px" y="0px"
	 viewBox="0 0 2122 2122" style="enable-background:new 0 0 2122 2122;" xml:space="preserve">
<style type="text/css">
	.st0{fill:#1D1D1B;}
</style>
<g>
	<g>
		<path class="st0" d="M1577.5,1544.5l-398-578.3l-45-65.4L849.7,487.1l-23.6-34.3H476.3l85.3,124l378.6,550.1l45,65.3l304.2,442
			l23.6,34.2h349.9L1577.5,1544.5z M1354.5,1589.3l-316-459.2l-45-65.4L626.8,532h157.7l296.6,430.9l45,65.4l386.2,561.1
			L1354.5,1589.3L1354.5,1589.3z"/>
		<polygon class="st0" points="993.5,1064.8 1038.5,1130.2 985.2,1192.2 575.8,1668.5 474.9,1668.5 940.2,1126.9 		"/>
		<polygon class="st0" points="1620.7,452.9 1179.5,966.2 1126.1,1028.2 1081.1,962.9 1134.5,900.8 1433.4,552.9 1519.8,452.9 		"/>
	</g>
</g>
</svg>
