<svg width="382" height="410" viewBox="0 0 382 410" fill="none" xmlns="http://www.w3.org/2000/svg">
<path d="M310.293 188.258L330.712 153.108L310.293 123.625L287.607 146.304L310.293 188.258Z" stroke="white" stroke-width="0.6" stroke-miterlimit="10"/>
<path d="M197.996 78.2667L233.161 54.4531L262.652 74.8644L242.234 98.678L197.996 78.2667Z" stroke="white" stroke-width="0.6" stroke-miterlimit="10"/>
<path d="M285.339 140.634L306.892 116.82C306.892 116.82 283.07 82.8025 268.324 77.1328L246.772 102.081C260.384 113.421 272.861 127.027 285.339 140.634Z" stroke="white" stroke-width="0.6" stroke-miterlimit="10"/>
<path d="M264.92 69.1953L298.95 46.5167L255.848 26.1055L235.429 51.0541L264.92 69.1953Z" stroke="white" stroke-width="0.6" stroke-miterlimit="10"/>
<path d="M314.832 117.955L334.115 142.901L357.937 111.15L338.652 76L314.832 117.955Z" stroke="white" stroke-width="0.6" stroke-miterlimit="10"/>
<path d="M68.6834 189.393L48.2649 153.108L69.816 123.625L91.3699 145.169L68.6834 189.393Z" stroke="white" stroke-width="0.6" stroke-miterlimit="10"/>
<path d="M180.981 78.2667L146.951 54.4531L116.325 74.8644L136.743 98.678L180.981 78.2667Z" stroke="white" stroke-width="0.6" stroke-miterlimit="10"/>
<path d="M94.7706 140.634L73.2195 116.82C73.2195 116.82 97.0393 82.8025 111.786 77.1328L133.339 102.081C133.339 102.081 95.9049 137.232 94.7706 140.634Z" stroke="white" stroke-width="0.6" stroke-miterlimit="10"/>
<path d="M115.189 69.197L80.0269 46.5184L123.129 27.2422L143.548 51.0558L115.189 69.197Z" stroke="white" stroke-width="0.6" stroke-miterlimit="10"/>
<path d="M65.28 117.955L44.8616 142.901L21.0396 111.15L40.3254 76L65.28 117.955Z" stroke="white" stroke-width="0.6" stroke-miterlimit="10"/>
<path d="M67.5479 221.145L47.1294 257.43L67.5479 286.91L90.2344 265.367L67.5479 221.145Z" stroke="white" stroke-width="0.6" stroke-miterlimit="10"/>
<path d="M180.981 332.264L145.816 356.078L116.325 335.666L136.743 311.855L180.981 332.264Z" stroke="white" stroke-width="0.6" stroke-miterlimit="10"/>
<path d="M93.6384 269.902L72.0845 293.716C72.0845 293.716 95.907 327.734 110.653 333.403L132.204 308.458C118.592 295.984 104.982 283.509 93.6384 269.902Z" stroke="white" stroke-width="0.6" stroke-miterlimit="10"/>
<path d="M114.057 341.34L78.8914 364.018L121.996 383.295L142.415 359.484L114.057 341.34Z" stroke="white" stroke-width="0.6" stroke-miterlimit="10"/>
<path d="M63.012 292.579L43.7262 267.633L19.907 299.383L39.19 334.536L63.012 292.579Z" stroke="white" stroke-width="0.6" stroke-miterlimit="10"/>
<path d="M309.16 221.145L329.579 257.43L309.16 286.91L286.474 265.367L309.16 221.145Z" stroke="white" stroke-width="0.6" stroke-miterlimit="10"/>
<path d="M196.86 332.264L232.026 354.943L261.519 335.666L241.101 311.855L196.86 332.264Z" stroke="white" stroke-width="0.6" stroke-miterlimit="10"/>
<path d="M284.206 268.77L305.757 292.58C305.757 292.58 281.937 326.598 267.191 332.268L245.637 307.322C259.249 295.983 271.728 283.511 284.206 268.77Z" stroke="white" stroke-width="0.6" stroke-miterlimit="10"/>
<path d="M262.652 341.34L297.817 364.018L254.712 383.295L234.294 359.484L262.652 341.34Z" stroke="white" stroke-width="0.6" stroke-miterlimit="10"/>
<path d="M313.697 292.579L332.98 267.633L356.802 299.383L337.519 334.536L313.697 292.579Z" stroke="white" stroke-width="0.6" stroke-miterlimit="10"/>
<path d="M188.921 1.16016L209.339 30.6434L187.788 66.9286L167.369 29.5084L188.921 1.16016Z" stroke="white" stroke-width="0.6" stroke-miterlimit="10"/>
<path d="M188.921 409.376L211.607 381.027L190.056 341.34L168.502 379.895L188.921 409.376Z" stroke="white" stroke-width="0.6" stroke-miterlimit="10"/>
<path d="M380.624 207.536L351.13 227.947L314.832 206.403L353.398 185.992L380.624 207.536Z" stroke="white" stroke-width="0.6" stroke-miterlimit="10"/>
<path d="M0.623779 207.536L30.1147 227.947L66.4126 206.403L31.2501 185.992L0.623779 207.536Z" stroke="white" stroke-width="0.6" stroke-miterlimit="10"/>
</svg>
